%TF.GenerationSoftware,KiCad,Pcbnew,9.0.6*%
%TF.CreationDate,2026-08-19T00:14:20+05:30*%
%TF.ProjectId,RF_Transiever,52465f54-7261-46e7-9369-657665722e6b,rev?*%
%TF.SameCoordinates,Original*%
%TF.FileFunction,Copper,L2,Inr*%
%TF.FilePolarity,Positive*%
%FSLAX46Y46*%
G04 Gerber Fmt 4.6, Leading zero omitted, Abs format (unit mm)*
G04 Created by KiCad (PCBNEW 9.0.6) date 2026-08-19 00:14:20*
%MOMM*%
%LPD*%
G01*
G04 APERTURE LIST*
%TA.AperFunction,ComponentPad*%
%ADD10C,4.400000*%
%TD*%
%TA.AperFunction,ComponentPad*%
%ADD11R,1.700000X1.700000*%
%TD*%
%TA.AperFunction,ComponentPad*%
%ADD12C,1.700000*%
%TD*%
%TA.AperFunction,ViaPad*%
%ADD13C,0.700000*%
%TD*%
G04 APERTURE END LIST*
D10*
%TO.N,GND*%
%TO.C,H4*%
X147450000Y-103850000D03*
%TD*%
%TO.N,GND*%
%TO.C,H3*%
X110100000Y-104600000D03*
%TD*%
%TO.N,GND*%
%TO.C,H2*%
X146450000Y-80700000D03*
%TD*%
%TO.N,GND*%
%TO.C,H1*%
X110050000Y-80850000D03*
%TD*%
D11*
%TO.N,GND*%
%TO.C,J1*%
X139280000Y-79350000D03*
D12*
%TO.N,DIO5*%
X136740000Y-79350000D03*
%TO.N,DIO4*%
X134200000Y-79350000D03*
%TO.N,DIO3*%
X131660000Y-79350000D03*
%TO.N,DIO2*%
X129120000Y-79350000D03*
%TO.N,DIO1*%
X126580000Y-79350000D03*
%TO.N,DIO0*%
X124040000Y-79350000D03*
%TO.N,+3.3V*%
X121500000Y-79350000D03*
%TD*%
D11*
%TO.N,GND*%
%TO.C,J2*%
X138740000Y-105600000D03*
D12*
%TO.N,VCTL*%
X136200000Y-105600000D03*
%TO.N,CS*%
X133660000Y-105600000D03*
%TO.N,MOSI*%
X131120000Y-105600000D03*
%TO.N,MISO*%
X128580000Y-105600000D03*
%TO.N,SCK*%
X126040000Y-105600000D03*
%TO.N,NRST*%
X123500000Y-105600000D03*
%TO.N,GND*%
X120960000Y-105600000D03*
%TD*%
D13*
%TO.N,Net-(U1-VR_ANA)*%
X116400000Y-91250000D03*
X114000000Y-90880000D03*
%TO.N,GND*%
X124900000Y-86400000D03*
X127750000Y-102450000D03*
X121500000Y-96700000D03*
X141100000Y-96600000D03*
X137200000Y-92000000D03*
X119100000Y-92600000D03*
X134600000Y-93250000D03*
X135700000Y-90600000D03*
X131650000Y-98750000D03*
X130150000Y-83840000D03*
X126550000Y-88750000D03*
X115900000Y-97200000D03*
X115100000Y-96500000D03*
X147650000Y-90000000D03*
X109000000Y-88700000D03*
X122500000Y-86400000D03*
X139450000Y-90000000D03*
X123000000Y-88750000D03*
X113300000Y-95100000D03*
X132850000Y-87800000D03*
X131850000Y-87150000D03*
X139000000Y-102200000D03*
X112800000Y-106900000D03*
X133700000Y-86100000D03*
X135900000Y-96100000D03*
X129550000Y-92600000D03*
X144650000Y-90000000D03*
X137200000Y-90600000D03*
X144600000Y-98300000D03*
X111800000Y-99700000D03*
X116300000Y-106200000D03*
X120600000Y-94539000D03*
X131600000Y-90000000D03*
X150050000Y-85150000D03*
X133150000Y-91250000D03*
X120305000Y-97075000D03*
X137200000Y-91300000D03*
X121300000Y-86350000D03*
X144700000Y-86300000D03*
X122900000Y-94700000D03*
X146700000Y-90000000D03*
X123950000Y-94700000D03*
X116800000Y-95100000D03*
X134400000Y-89200000D03*
X113350000Y-103000000D03*
X135600000Y-84300000D03*
X133150000Y-97000000D03*
X141400000Y-87400000D03*
X115100000Y-94400000D03*
X141550000Y-90000000D03*
X147900000Y-92050000D03*
X127750000Y-88750000D03*
X130700000Y-82200000D03*
X150000000Y-96800000D03*
X115900000Y-96500000D03*
X143600000Y-90000000D03*
X130750000Y-86650000D03*
X132300000Y-90650000D03*
X145700000Y-90000000D03*
X132750000Y-92100000D03*
X144900000Y-93600000D03*
X146800000Y-99500000D03*
X136500000Y-98550000D03*
X133700000Y-88550000D03*
X129550000Y-86450000D03*
X113300000Y-97200000D03*
X119550000Y-88750000D03*
X148850000Y-92050000D03*
X113300000Y-96500000D03*
X128400000Y-92600000D03*
X119250000Y-104550000D03*
X135100000Y-101150000D03*
X141300000Y-84500000D03*
X116800000Y-93700000D03*
X118800000Y-89400000D03*
X120250000Y-92600000D03*
X135000000Y-103100000D03*
X149800000Y-92000000D03*
X131850000Y-92600000D03*
X109700000Y-84900000D03*
X128150000Y-96000000D03*
X131500000Y-95850000D03*
X124150000Y-88750000D03*
X136433100Y-91300000D03*
X114200000Y-96500000D03*
X116450000Y-88850000D03*
X113300000Y-95800000D03*
X142400000Y-105700000D03*
X125000000Y-94700000D03*
X127250000Y-92600000D03*
X120305000Y-98225000D03*
X121450000Y-92600000D03*
X148550000Y-90000000D03*
X120300000Y-95939000D03*
X113300000Y-94400000D03*
X129800000Y-101950000D03*
X117200000Y-80200000D03*
X117050000Y-87600000D03*
X121800000Y-94700000D03*
X132550000Y-101700000D03*
X108550000Y-95600000D03*
X115000000Y-78500000D03*
X130700000Y-92600000D03*
X115100000Y-97200000D03*
X123750000Y-86400000D03*
X129300000Y-94580000D03*
X140550000Y-83000000D03*
X144900000Y-94800000D03*
X142600000Y-90000000D03*
X116800000Y-96500000D03*
X121850000Y-88750000D03*
X123850000Y-92600000D03*
X133750000Y-93950000D03*
X115300000Y-105200000D03*
X115900000Y-95800000D03*
X115100000Y-95100000D03*
X127100000Y-96000000D03*
X115100000Y-95800000D03*
X107250000Y-92050000D03*
X125300000Y-99200000D03*
X126050000Y-86400000D03*
X114200000Y-94400000D03*
X143700000Y-101900000D03*
X127650000Y-83950000D03*
X114200000Y-93700000D03*
X130450000Y-95850000D03*
X136433100Y-92000000D03*
X116800000Y-94400000D03*
X116800000Y-97200000D03*
X118000000Y-92600000D03*
X122100000Y-99200000D03*
X116429975Y-90260025D03*
X125900000Y-96750000D03*
X115900000Y-94400000D03*
X130950000Y-89300000D03*
X125200000Y-82100000D03*
X109950000Y-86950000D03*
X108850000Y-98150000D03*
X126150000Y-92600000D03*
X117700000Y-103800000D03*
X128400000Y-86400000D03*
X114950000Y-102000000D03*
X149550000Y-90000000D03*
X120700000Y-88750000D03*
X115100000Y-93700000D03*
X135700000Y-91300000D03*
X140750000Y-93080000D03*
X125950000Y-103050000D03*
X146900000Y-92000000D03*
X141850000Y-91985000D03*
X122600000Y-92600000D03*
X114200000Y-95100000D03*
X115900000Y-93700000D03*
X128150000Y-98200000D03*
X125000000Y-92600000D03*
X139600000Y-93710000D03*
X106700000Y-96250000D03*
X108300000Y-101350000D03*
X114200000Y-95800000D03*
X120150000Y-86350000D03*
X140500000Y-90000000D03*
X127250000Y-86400000D03*
X114200000Y-97200000D03*
X115900000Y-95100000D03*
X143450000Y-92000000D03*
X113300000Y-93700000D03*
X136433100Y-90600000D03*
X130000000Y-88800000D03*
X116800000Y-95800000D03*
X128900000Y-88750000D03*
X149300000Y-99200000D03*
X135700000Y-92000000D03*
X128000000Y-82300000D03*
X125300000Y-88750000D03*
%TO.N,+3.3V*%
X139600000Y-92720000D03*
X119700000Y-99200000D03*
X111650000Y-86000000D03*
X115300000Y-91250000D03*
X111900000Y-98300000D03*
X138980000Y-94800000D03*
%TO.N,NRST*%
X117900000Y-105500000D03*
%TO.N,DIO0*%
X110900000Y-93100000D03*
%TO.N,DIO1*%
X125200000Y-84047250D03*
X110128254Y-93563047D03*
%TO.N,DIO3*%
X109599999Y-95278550D03*
%TO.N,DIO2*%
X109800000Y-94401051D03*
%TO.N,DIO4*%
X109600000Y-96178552D03*
%TO.N,DIO5*%
X109800000Y-97500000D03*
%TD*%
%TA.AperFunction,Conductor*%
%TO.N,GND*%
G36*
X145818238Y-77350580D02*
G01*
X145824718Y-77350812D01*
X146037319Y-77358447D01*
X146043517Y-77358826D01*
X146509801Y-77399290D01*
X146516823Y-77400103D01*
X147033571Y-77475040D01*
X147040823Y-77476314D01*
X147553229Y-77582253D01*
X147560811Y-77584072D01*
X148046303Y-77716962D01*
X148054229Y-77719422D01*
X148502909Y-77875466D01*
X148511208Y-77878693D01*
X148919256Y-78054574D01*
X148927901Y-78058704D01*
X149294574Y-78251612D01*
X149303424Y-78256744D01*
X149599808Y-78445404D01*
X149629843Y-78464522D01*
X149638740Y-78470749D01*
X149862169Y-78642182D01*
X149926987Y-78691915D01*
X149935719Y-78699278D01*
X150188385Y-78933134D01*
X150196742Y-78941652D01*
X150416548Y-79188375D01*
X150424268Y-79197958D01*
X150613728Y-79458636D01*
X150620571Y-79469128D01*
X150781656Y-79745687D01*
X150787425Y-79756858D01*
X150921354Y-80052004D01*
X150925920Y-80063575D01*
X151032795Y-80380110D01*
X151035390Y-80387794D01*
X151037987Y-80396535D01*
X151079178Y-80556468D01*
X151080527Y-80562278D01*
X151116741Y-80737357D01*
X151117789Y-80743108D01*
X151146510Y-80924753D01*
X151147271Y-80930406D01*
X151166169Y-81100277D01*
X151168398Y-81120310D01*
X151168888Y-81125846D01*
X151181957Y-81323674D01*
X151182196Y-81329066D01*
X151186976Y-81542090D01*
X151187007Y-81544717D01*
X151211977Y-101545103D01*
X151211779Y-101552256D01*
X151184100Y-102041896D01*
X151183413Y-102049688D01*
X151121593Y-102564299D01*
X151120542Y-102571337D01*
X151024380Y-103109082D01*
X151022863Y-103116313D01*
X150896227Y-103641649D01*
X150894174Y-103649131D01*
X150740614Y-104147086D01*
X150737941Y-104154834D01*
X150560663Y-104618441D01*
X150557285Y-104626427D01*
X150359027Y-105052881D01*
X150354859Y-105061043D01*
X150314094Y-105134075D01*
X150137855Y-105449810D01*
X150132830Y-105458043D01*
X149898741Y-105809936D01*
X149892796Y-105818127D01*
X149642712Y-106134667D01*
X149635834Y-106142651D01*
X149370138Y-106425772D01*
X149362354Y-106433369D01*
X149080786Y-106685041D01*
X149072178Y-106692066D01*
X148889800Y-106827758D01*
X148773755Y-106914096D01*
X148764431Y-106920396D01*
X148447569Y-107114174D01*
X148437704Y-107119607D01*
X148100217Y-107285983D01*
X148090015Y-107290455D01*
X147722943Y-107432051D01*
X147715215Y-107434743D01*
X147532385Y-107491730D01*
X147527226Y-107493216D01*
X147329811Y-107545490D01*
X147324681Y-107546732D01*
X147120920Y-107591502D01*
X147115848Y-107592506D01*
X146903672Y-107629929D01*
X146898673Y-107630706D01*
X146678966Y-107660275D01*
X146674067Y-107660836D01*
X146445565Y-107682380D01*
X146440772Y-107682738D01*
X146203614Y-107695854D01*
X146198949Y-107696024D01*
X145946918Y-107700459D01*
X145944642Y-107700478D01*
X111605514Y-107674502D01*
X111603472Y-107674484D01*
X111321022Y-107669617D01*
X111316798Y-107669472D01*
X111050334Y-107655788D01*
X111045982Y-107655487D01*
X110789833Y-107633277D01*
X110785363Y-107632808D01*
X110539661Y-107602498D01*
X110535079Y-107601846D01*
X110298554Y-107563658D01*
X110293875Y-107562810D01*
X110067410Y-107517275D01*
X110062647Y-107516219D01*
X109844251Y-107463291D01*
X109839425Y-107462018D01*
X109636928Y-107404223D01*
X109629625Y-107401893D01*
X109229317Y-107260358D01*
X109219514Y-107256414D01*
X109027090Y-107169305D01*
X108855119Y-107091454D01*
X108845452Y-107086557D01*
X108508177Y-106896746D01*
X108498822Y-106890920D01*
X108369939Y-106802458D01*
X108209120Y-106692075D01*
X108186165Y-106676319D01*
X108177317Y-106669645D01*
X107887253Y-106429789D01*
X107879075Y-106422390D01*
X107868642Y-106412071D01*
X107610097Y-106156352D01*
X107602730Y-106148397D01*
X107353965Y-105854984D01*
X107347465Y-105846616D01*
X107238110Y-105692673D01*
X107118777Y-105524683D01*
X107113180Y-105516068D01*
X107087869Y-105473334D01*
X107087868Y-105473333D01*
X107054046Y-105416228D01*
X117049500Y-105416228D01*
X117049500Y-105583771D01*
X117082182Y-105748074D01*
X117082184Y-105748082D01*
X117146295Y-105902860D01*
X117239373Y-106042162D01*
X117357837Y-106160626D01*
X117450494Y-106222537D01*
X117497137Y-106253703D01*
X117497138Y-106253703D01*
X117497139Y-106253704D01*
X117532201Y-106268227D01*
X117651918Y-106317816D01*
X117816228Y-106350499D01*
X117816232Y-106350500D01*
X117816233Y-106350500D01*
X117983768Y-106350500D01*
X117983769Y-106350499D01*
X118148082Y-106317816D01*
X118302863Y-106253703D01*
X118442162Y-106160626D01*
X118560626Y-106042162D01*
X118653703Y-105902863D01*
X118717816Y-105748082D01*
X118750500Y-105583767D01*
X118750500Y-105493753D01*
X119610000Y-105493753D01*
X119610000Y-105706246D01*
X119643242Y-105916127D01*
X119643242Y-105916130D01*
X119708904Y-106118217D01*
X119805375Y-106307550D01*
X119844728Y-106361716D01*
X120477037Y-105729408D01*
X120494075Y-105792993D01*
X120559901Y-105907007D01*
X120652993Y-106000099D01*
X120767007Y-106065925D01*
X120830590Y-106082962D01*
X120198282Y-106715269D01*
X120198282Y-106715270D01*
X120252449Y-106754624D01*
X120441782Y-106851095D01*
X120643870Y-106916757D01*
X120853754Y-106950000D01*
X121066246Y-106950000D01*
X121276127Y-106916757D01*
X121276130Y-106916757D01*
X121478217Y-106851095D01*
X121667554Y-106754622D01*
X121721716Y-106715270D01*
X121721717Y-106715270D01*
X121089408Y-106082962D01*
X121152993Y-106065925D01*
X121267007Y-106000099D01*
X121360099Y-105907007D01*
X121425925Y-105792993D01*
X121442962Y-105729408D01*
X122075270Y-106361717D01*
X122075270Y-106361716D01*
X122114622Y-106307555D01*
X122119232Y-106298507D01*
X122167205Y-106247709D01*
X122235025Y-106230912D01*
X122301161Y-106253447D01*
X122340204Y-106298504D01*
X122344949Y-106307817D01*
X122469890Y-106479786D01*
X122620213Y-106630109D01*
X122792179Y-106755048D01*
X122792181Y-106755049D01*
X122792184Y-106755051D01*
X122981588Y-106851557D01*
X123183757Y-106917246D01*
X123393713Y-106950500D01*
X123393714Y-106950500D01*
X123606286Y-106950500D01*
X123606287Y-106950500D01*
X123816243Y-106917246D01*
X124018412Y-106851557D01*
X124207816Y-106755051D01*
X124294478Y-106692088D01*
X124379786Y-106630109D01*
X124379788Y-106630106D01*
X124379792Y-106630104D01*
X124530104Y-106479792D01*
X124530106Y-106479788D01*
X124530109Y-106479786D01*
X124655048Y-106307820D01*
X124655050Y-106307817D01*
X124655051Y-106307816D01*
X124659514Y-106299054D01*
X124707488Y-106248259D01*
X124775308Y-106231463D01*
X124841444Y-106253999D01*
X124880486Y-106299056D01*
X124884951Y-106307820D01*
X125009890Y-106479786D01*
X125160213Y-106630109D01*
X125332179Y-106755048D01*
X125332181Y-106755049D01*
X125332184Y-106755051D01*
X125521588Y-106851557D01*
X125723757Y-106917246D01*
X125933713Y-106950500D01*
X125933714Y-106950500D01*
X126146286Y-106950500D01*
X126146287Y-106950500D01*
X126356243Y-106917246D01*
X126558412Y-106851557D01*
X126747816Y-106755051D01*
X126834478Y-106692088D01*
X126919786Y-106630109D01*
X126919788Y-106630106D01*
X126919792Y-106630104D01*
X127070104Y-106479792D01*
X127070106Y-106479788D01*
X127070109Y-106479786D01*
X127195048Y-106307820D01*
X127195050Y-106307817D01*
X127195051Y-106307816D01*
X127199514Y-106299054D01*
X127247488Y-106248259D01*
X127315308Y-106231463D01*
X127381444Y-106253999D01*
X127420486Y-106299056D01*
X127424951Y-106307820D01*
X127549890Y-106479786D01*
X127700213Y-106630109D01*
X127872179Y-106755048D01*
X127872181Y-106755049D01*
X127872184Y-106755051D01*
X128061588Y-106851557D01*
X128263757Y-106917246D01*
X128473713Y-106950500D01*
X128473714Y-106950500D01*
X128686286Y-106950500D01*
X128686287Y-106950500D01*
X128896243Y-106917246D01*
X129098412Y-106851557D01*
X129287816Y-106755051D01*
X129374478Y-106692088D01*
X129459786Y-106630109D01*
X129459788Y-106630106D01*
X129459792Y-106630104D01*
X129610104Y-106479792D01*
X129610106Y-106479788D01*
X129610109Y-106479786D01*
X129735048Y-106307820D01*
X129735050Y-106307817D01*
X129735051Y-106307816D01*
X129739514Y-106299054D01*
X129787488Y-106248259D01*
X129855308Y-106231463D01*
X129921444Y-106253999D01*
X129960486Y-106299056D01*
X129964951Y-106307820D01*
X130089890Y-106479786D01*
X130240213Y-106630109D01*
X130412179Y-106755048D01*
X130412181Y-106755049D01*
X130412184Y-106755051D01*
X130601588Y-106851557D01*
X130803757Y-106917246D01*
X131013713Y-106950500D01*
X131013714Y-106950500D01*
X131226286Y-106950500D01*
X131226287Y-106950500D01*
X131436243Y-106917246D01*
X131638412Y-106851557D01*
X131827816Y-106755051D01*
X131914478Y-106692088D01*
X131999786Y-106630109D01*
X131999788Y-106630106D01*
X131999792Y-106630104D01*
X132150104Y-106479792D01*
X132150106Y-106479788D01*
X132150109Y-106479786D01*
X132275048Y-106307820D01*
X132275050Y-106307817D01*
X132275051Y-106307816D01*
X132279514Y-106299054D01*
X132327488Y-106248259D01*
X132395308Y-106231463D01*
X132461444Y-106253999D01*
X132500486Y-106299056D01*
X132504951Y-106307820D01*
X132629890Y-106479786D01*
X132780213Y-106630109D01*
X132952179Y-106755048D01*
X132952181Y-106755049D01*
X132952184Y-106755051D01*
X133141588Y-106851557D01*
X133343757Y-106917246D01*
X133553713Y-106950500D01*
X133553714Y-106950500D01*
X133766286Y-106950500D01*
X133766287Y-106950500D01*
X133976243Y-106917246D01*
X134178412Y-106851557D01*
X134367816Y-106755051D01*
X134454478Y-106692088D01*
X134539786Y-106630109D01*
X134539788Y-106630106D01*
X134539792Y-106630104D01*
X134690104Y-106479792D01*
X134690106Y-106479788D01*
X134690109Y-106479786D01*
X134815048Y-106307820D01*
X134815050Y-106307817D01*
X134815051Y-106307816D01*
X134819514Y-106299054D01*
X134867488Y-106248259D01*
X134935308Y-106231463D01*
X135001444Y-106253999D01*
X135040486Y-106299056D01*
X135044951Y-106307820D01*
X135169890Y-106479786D01*
X135320213Y-106630109D01*
X135492179Y-106755048D01*
X135492181Y-106755049D01*
X135492184Y-106755051D01*
X135681588Y-106851557D01*
X135883757Y-106917246D01*
X136093713Y-106950500D01*
X136093714Y-106950500D01*
X136306286Y-106950500D01*
X136306287Y-106950500D01*
X136516243Y-106917246D01*
X136718412Y-106851557D01*
X136907816Y-106755051D01*
X136994478Y-106692088D01*
X137079784Y-106630110D01*
X137079784Y-106630109D01*
X137079792Y-106630104D01*
X137193717Y-106516178D01*
X137255036Y-106482696D01*
X137324728Y-106487680D01*
X137380662Y-106529551D01*
X137397577Y-106560528D01*
X137446646Y-106692088D01*
X137446649Y-106692093D01*
X137532809Y-106807187D01*
X137532812Y-106807190D01*
X137647906Y-106893350D01*
X137647913Y-106893354D01*
X137782620Y-106943596D01*
X137782627Y-106943598D01*
X137842155Y-106949999D01*
X137842172Y-106950000D01*
X138490000Y-106950000D01*
X138490000Y-106033012D01*
X138547007Y-106065925D01*
X138674174Y-106100000D01*
X138805826Y-106100000D01*
X138932993Y-106065925D01*
X138990000Y-106033012D01*
X138990000Y-106950000D01*
X139637828Y-106950000D01*
X139637844Y-106949999D01*
X139697372Y-106943598D01*
X139697379Y-106943596D01*
X139832086Y-106893354D01*
X139832093Y-106893350D01*
X139947187Y-106807190D01*
X139947190Y-106807187D01*
X140033350Y-106692093D01*
X140033354Y-106692086D01*
X140083596Y-106557379D01*
X140083598Y-106557372D01*
X140089999Y-106497844D01*
X140090000Y-106497827D01*
X140090000Y-105850000D01*
X139173012Y-105850000D01*
X139205925Y-105792993D01*
X139240000Y-105665826D01*
X139240000Y-105534174D01*
X139205925Y-105407007D01*
X139173012Y-105350000D01*
X140090000Y-105350000D01*
X140090000Y-104702172D01*
X140089999Y-104702155D01*
X140083598Y-104642627D01*
X140083596Y-104642620D01*
X140033354Y-104507913D01*
X140033350Y-104507906D01*
X139947190Y-104392812D01*
X139947187Y-104392809D01*
X139832093Y-104306649D01*
X139832086Y-104306645D01*
X139697379Y-104256403D01*
X139697372Y-104256401D01*
X139637844Y-104250000D01*
X138990000Y-104250000D01*
X138990000Y-105166988D01*
X138932993Y-105134075D01*
X138805826Y-105100000D01*
X138674174Y-105100000D01*
X138547007Y-105134075D01*
X138490000Y-105166988D01*
X138490000Y-104250000D01*
X137842155Y-104250000D01*
X137782627Y-104256401D01*
X137782620Y-104256403D01*
X137647913Y-104306645D01*
X137647906Y-104306649D01*
X137532812Y-104392809D01*
X137532809Y-104392812D01*
X137446649Y-104507906D01*
X137446646Y-104507912D01*
X137397577Y-104639471D01*
X137355705Y-104695404D01*
X137290241Y-104719821D01*
X137221968Y-104704969D01*
X137193714Y-104683818D01*
X137079786Y-104569890D01*
X136907820Y-104444951D01*
X136718414Y-104348444D01*
X136718413Y-104348443D01*
X136718412Y-104348443D01*
X136516243Y-104282754D01*
X136516241Y-104282753D01*
X136516240Y-104282753D01*
X136354957Y-104257208D01*
X136306287Y-104249500D01*
X136093713Y-104249500D01*
X136045042Y-104257208D01*
X135883760Y-104282753D01*
X135681585Y-104348444D01*
X135492179Y-104444951D01*
X135320213Y-104569890D01*
X135169890Y-104720213D01*
X135044949Y-104892182D01*
X135040484Y-104900946D01*
X134992509Y-104951742D01*
X134924688Y-104968536D01*
X134858553Y-104945998D01*
X134819516Y-104900946D01*
X134815050Y-104892182D01*
X134690109Y-104720213D01*
X134539786Y-104569890D01*
X134367820Y-104444951D01*
X134178414Y-104348444D01*
X134178413Y-104348443D01*
X134178412Y-104348443D01*
X133976243Y-104282754D01*
X133976241Y-104282753D01*
X133976240Y-104282753D01*
X133814957Y-104257208D01*
X133766287Y-104249500D01*
X133553713Y-104249500D01*
X133505042Y-104257208D01*
X133343760Y-104282753D01*
X133141585Y-104348444D01*
X132952179Y-104444951D01*
X132780213Y-104569890D01*
X132629890Y-104720213D01*
X132504949Y-104892182D01*
X132500484Y-104900946D01*
X132452509Y-104951742D01*
X132384688Y-104968536D01*
X132318553Y-104945998D01*
X132279516Y-104900946D01*
X132275050Y-104892182D01*
X132150109Y-104720213D01*
X131999786Y-104569890D01*
X131827820Y-104444951D01*
X131638414Y-104348444D01*
X131638413Y-104348443D01*
X131638412Y-104348443D01*
X131436243Y-104282754D01*
X131436241Y-104282753D01*
X131436240Y-104282753D01*
X131274957Y-104257208D01*
X131226287Y-104249500D01*
X131013713Y-104249500D01*
X130965042Y-104257208D01*
X130803760Y-104282753D01*
X130601585Y-104348444D01*
X130412179Y-104444951D01*
X130240213Y-104569890D01*
X130089890Y-104720213D01*
X129964949Y-104892182D01*
X129960484Y-104900946D01*
X129912509Y-104951742D01*
X129844688Y-104968536D01*
X129778553Y-104945998D01*
X129739516Y-104900946D01*
X129735050Y-104892182D01*
X129610109Y-104720213D01*
X129459786Y-104569890D01*
X129287820Y-104444951D01*
X129098414Y-104348444D01*
X129098413Y-104348443D01*
X129098412Y-104348443D01*
X128896243Y-104282754D01*
X128896241Y-104282753D01*
X128896240Y-104282753D01*
X128734957Y-104257208D01*
X128686287Y-104249500D01*
X128473713Y-104249500D01*
X128425042Y-104257208D01*
X128263760Y-104282753D01*
X128061585Y-104348444D01*
X127872179Y-104444951D01*
X127700213Y-104569890D01*
X127549890Y-104720213D01*
X127424949Y-104892182D01*
X127420484Y-104900946D01*
X127372509Y-104951742D01*
X127304688Y-104968536D01*
X127238553Y-104945998D01*
X127199516Y-104900946D01*
X127195050Y-104892182D01*
X127070109Y-104720213D01*
X126919786Y-104569890D01*
X126747820Y-104444951D01*
X126558414Y-104348444D01*
X126558413Y-104348443D01*
X126558412Y-104348443D01*
X126356243Y-104282754D01*
X126356241Y-104282753D01*
X126356240Y-104282753D01*
X126194957Y-104257208D01*
X126146287Y-104249500D01*
X125933713Y-104249500D01*
X125885042Y-104257208D01*
X125723760Y-104282753D01*
X125521585Y-104348444D01*
X125332179Y-104444951D01*
X125160213Y-104569890D01*
X125009890Y-104720213D01*
X124884949Y-104892182D01*
X124880484Y-104900946D01*
X124832509Y-104951742D01*
X124764688Y-104968536D01*
X124698553Y-104945998D01*
X124659516Y-104900946D01*
X124655050Y-104892182D01*
X124530109Y-104720213D01*
X124379786Y-104569890D01*
X124207820Y-104444951D01*
X124018414Y-104348444D01*
X124018413Y-104348443D01*
X124018412Y-104348443D01*
X123816243Y-104282754D01*
X123816241Y-104282753D01*
X123816240Y-104282753D01*
X123654957Y-104257208D01*
X123606287Y-104249500D01*
X123393713Y-104249500D01*
X123345042Y-104257208D01*
X123183760Y-104282753D01*
X122981585Y-104348444D01*
X122792179Y-104444951D01*
X122620213Y-104569890D01*
X122469890Y-104720213D01*
X122344949Y-104892182D01*
X122340202Y-104901499D01*
X122292227Y-104952293D01*
X122224405Y-104969087D01*
X122158271Y-104946548D01*
X122119234Y-104901495D01*
X122114626Y-104892452D01*
X122075270Y-104838282D01*
X122075269Y-104838282D01*
X121442962Y-105470590D01*
X121425925Y-105407007D01*
X121360099Y-105292993D01*
X121267007Y-105199901D01*
X121152993Y-105134075D01*
X121089409Y-105117037D01*
X121721716Y-104484728D01*
X121667550Y-104445375D01*
X121478217Y-104348904D01*
X121276129Y-104283242D01*
X121066246Y-104250000D01*
X120853754Y-104250000D01*
X120643872Y-104283242D01*
X120643869Y-104283242D01*
X120441782Y-104348904D01*
X120252439Y-104445380D01*
X120198282Y-104484727D01*
X120198282Y-104484728D01*
X120830591Y-105117037D01*
X120767007Y-105134075D01*
X120652993Y-105199901D01*
X120559901Y-105292993D01*
X120494075Y-105407007D01*
X120477037Y-105470591D01*
X119844728Y-104838282D01*
X119844727Y-104838282D01*
X119805380Y-104892439D01*
X119708904Y-105081782D01*
X119643242Y-105283869D01*
X119643242Y-105283872D01*
X119610000Y-105493753D01*
X118750500Y-105493753D01*
X118750500Y-105416233D01*
X118717816Y-105251918D01*
X118653703Y-105097137D01*
X118597308Y-105012736D01*
X118560626Y-104957837D01*
X118442162Y-104839373D01*
X118302860Y-104746295D01*
X118148082Y-104682184D01*
X118148074Y-104682182D01*
X118004402Y-104653604D01*
X117983771Y-104649500D01*
X117983767Y-104649500D01*
X117816233Y-104649500D01*
X117816228Y-104649500D01*
X117651925Y-104682182D01*
X117651917Y-104682184D01*
X117497139Y-104746295D01*
X117357837Y-104839373D01*
X117239373Y-104957837D01*
X117146295Y-105097139D01*
X117082184Y-105251917D01*
X117082182Y-105251925D01*
X117049500Y-105416228D01*
X107054046Y-105416228D01*
X106905083Y-105164721D01*
X106900395Y-105156031D01*
X106714146Y-104775226D01*
X106710311Y-104766559D01*
X106703811Y-104750206D01*
X106547817Y-104357754D01*
X106544783Y-104349224D01*
X106408534Y-103916536D01*
X106406221Y-103908178D01*
X106299249Y-103460982D01*
X106297579Y-103452778D01*
X106223231Y-103011521D01*
X106222140Y-103003410D01*
X106183036Y-102615647D01*
X106182518Y-102608365D01*
X106180978Y-102571337D01*
X106175589Y-102441741D01*
X106175483Y-102436832D01*
X106166453Y-95194778D01*
X108749499Y-95194778D01*
X108749499Y-95362321D01*
X108782181Y-95526624D01*
X108782184Y-95526636D01*
X108846165Y-95681100D01*
X108853634Y-95750569D01*
X108846165Y-95776004D01*
X108782185Y-95930465D01*
X108782182Y-95930477D01*
X108749500Y-96094780D01*
X108749500Y-96262323D01*
X108782182Y-96426626D01*
X108782184Y-96426634D01*
X108846295Y-96581412D01*
X108939373Y-96720714D01*
X109057835Y-96839176D01*
X109065917Y-96844576D01*
X109110722Y-96898188D01*
X109119431Y-96967513D01*
X109100130Y-97016568D01*
X109046297Y-97097136D01*
X109046296Y-97097138D01*
X108982184Y-97251917D01*
X108982182Y-97251925D01*
X108949500Y-97416228D01*
X108949500Y-97583771D01*
X108982182Y-97748074D01*
X108982184Y-97748082D01*
X109046295Y-97902860D01*
X109139373Y-98042162D01*
X109257837Y-98160626D01*
X109341052Y-98216228D01*
X109397137Y-98253703D01*
X109551918Y-98317816D01*
X109711206Y-98349500D01*
X109716228Y-98350499D01*
X109716232Y-98350500D01*
X109716233Y-98350500D01*
X109883768Y-98350500D01*
X109883769Y-98350499D01*
X110048082Y-98317816D01*
X110202863Y-98253703D01*
X110258948Y-98216228D01*
X111049500Y-98216228D01*
X111049500Y-98383771D01*
X111082182Y-98548074D01*
X111082184Y-98548082D01*
X111146295Y-98702860D01*
X111239373Y-98842162D01*
X111357837Y-98960626D01*
X111450494Y-99022537D01*
X111497137Y-99053703D01*
X111651918Y-99117816D01*
X111816228Y-99150499D01*
X111816232Y-99150500D01*
X111816233Y-99150500D01*
X111983768Y-99150500D01*
X111983769Y-99150499D01*
X112148082Y-99117816D01*
X112151916Y-99116228D01*
X118849500Y-99116228D01*
X118849500Y-99283771D01*
X118882182Y-99448074D01*
X118882184Y-99448082D01*
X118946295Y-99602860D01*
X119039373Y-99742162D01*
X119157837Y-99860626D01*
X119250494Y-99922537D01*
X119297137Y-99953703D01*
X119451918Y-100017816D01*
X119616228Y-100050499D01*
X119616232Y-100050500D01*
X119616233Y-100050500D01*
X119783768Y-100050500D01*
X119783769Y-100050499D01*
X119948082Y-100017816D01*
X120102863Y-99953703D01*
X120242162Y-99860626D01*
X120360626Y-99742162D01*
X120453703Y-99602863D01*
X120517816Y-99448082D01*
X120550500Y-99283767D01*
X120550500Y-99116233D01*
X120517816Y-98951918D01*
X120453703Y-98797137D01*
X120390709Y-98702860D01*
X120360626Y-98657837D01*
X120242162Y-98539373D01*
X120102860Y-98446295D01*
X119948082Y-98382184D01*
X119948074Y-98382182D01*
X119783771Y-98349500D01*
X119783767Y-98349500D01*
X119616233Y-98349500D01*
X119616228Y-98349500D01*
X119451925Y-98382182D01*
X119451917Y-98382184D01*
X119297139Y-98446295D01*
X119157837Y-98539373D01*
X119039373Y-98657837D01*
X118946295Y-98797139D01*
X118882184Y-98951917D01*
X118882182Y-98951925D01*
X118849500Y-99116228D01*
X112151916Y-99116228D01*
X112302863Y-99053703D01*
X112442162Y-98960626D01*
X112560626Y-98842162D01*
X112653703Y-98702863D01*
X112717816Y-98548082D01*
X112750500Y-98383767D01*
X112750500Y-98216233D01*
X112717816Y-98051918D01*
X112653703Y-97897137D01*
X112622537Y-97850494D01*
X112560626Y-97757837D01*
X112442162Y-97639373D01*
X112302860Y-97546295D01*
X112148082Y-97482184D01*
X112148074Y-97482182D01*
X111983771Y-97449500D01*
X111983767Y-97449500D01*
X111816233Y-97449500D01*
X111816228Y-97449500D01*
X111651925Y-97482182D01*
X111651917Y-97482184D01*
X111497139Y-97546295D01*
X111357837Y-97639373D01*
X111239373Y-97757837D01*
X111146295Y-97897139D01*
X111082184Y-98051917D01*
X111082182Y-98051925D01*
X111049500Y-98216228D01*
X110258948Y-98216228D01*
X110342162Y-98160626D01*
X110342165Y-98160623D01*
X110380329Y-98122460D01*
X110460623Y-98042165D01*
X110460626Y-98042162D01*
X110553703Y-97902863D01*
X110617816Y-97748082D01*
X110650500Y-97583767D01*
X110650500Y-97416233D01*
X110617816Y-97251918D01*
X110553703Y-97097137D01*
X110522537Y-97050494D01*
X110460626Y-96957837D01*
X110342165Y-96839376D01*
X110342161Y-96839373D01*
X110334081Y-96833974D01*
X110289276Y-96780361D01*
X110280569Y-96711036D01*
X110299870Y-96661981D01*
X110353703Y-96581415D01*
X110417816Y-96426634D01*
X110450500Y-96262319D01*
X110450500Y-96094785D01*
X110417816Y-95930470D01*
X110377760Y-95833767D01*
X110353833Y-95776002D01*
X110346364Y-95706532D01*
X110353833Y-95681096D01*
X110417815Y-95526632D01*
X110450499Y-95362317D01*
X110450499Y-95194783D01*
X110449318Y-95188846D01*
X110423372Y-95058402D01*
X110429599Y-94988810D01*
X110457312Y-94946526D01*
X110460626Y-94943213D01*
X110553703Y-94803914D01*
X110590024Y-94716228D01*
X138129500Y-94716228D01*
X138129500Y-94883771D01*
X138162182Y-95048074D01*
X138162184Y-95048082D01*
X138226295Y-95202860D01*
X138319373Y-95342162D01*
X138437837Y-95460626D01*
X138530494Y-95522537D01*
X138577137Y-95553703D01*
X138731918Y-95617816D01*
X138896228Y-95650499D01*
X138896232Y-95650500D01*
X138896233Y-95650500D01*
X139063768Y-95650500D01*
X139063769Y-95650499D01*
X139228082Y-95617816D01*
X139382863Y-95553703D01*
X139522162Y-95460626D01*
X139640626Y-95342162D01*
X139733703Y-95202863D01*
X139797816Y-95048082D01*
X139830500Y-94883767D01*
X139830500Y-94716233D01*
X139797816Y-94551918D01*
X139733703Y-94397137D01*
X139680345Y-94317281D01*
X139640626Y-94257837D01*
X139522162Y-94139373D01*
X139382860Y-94046295D01*
X139228082Y-93982184D01*
X139228074Y-93982182D01*
X139063771Y-93949500D01*
X139063767Y-93949500D01*
X138896233Y-93949500D01*
X138896228Y-93949500D01*
X138731925Y-93982182D01*
X138731917Y-93982184D01*
X138577139Y-94046295D01*
X138437837Y-94139373D01*
X138319373Y-94257837D01*
X138226295Y-94397139D01*
X138162184Y-94551917D01*
X138162182Y-94551925D01*
X138129500Y-94716228D01*
X110590024Y-94716228D01*
X110617816Y-94649133D01*
X110650500Y-94484818D01*
X110650500Y-94317284D01*
X110650500Y-94317281D01*
X110649903Y-94311219D01*
X110652082Y-94311004D01*
X110657430Y-94251231D01*
X110685139Y-94208949D01*
X110788880Y-94105209D01*
X110855431Y-94005609D01*
X110909043Y-93960804D01*
X110958533Y-93950500D01*
X110983768Y-93950500D01*
X110983769Y-93950499D01*
X111148082Y-93917816D01*
X111302863Y-93853703D01*
X111442162Y-93760626D01*
X111560626Y-93642162D01*
X111653703Y-93502863D01*
X111717816Y-93348082D01*
X111750500Y-93183767D01*
X111750500Y-93016233D01*
X111717816Y-92851918D01*
X111653703Y-92697138D01*
X111653704Y-92697138D01*
X111613005Y-92636228D01*
X138749500Y-92636228D01*
X138749500Y-92803771D01*
X138782182Y-92968074D01*
X138782184Y-92968082D01*
X138846295Y-93122860D01*
X138939373Y-93262162D01*
X139057837Y-93380626D01*
X139150494Y-93442537D01*
X139197137Y-93473703D01*
X139351918Y-93537816D01*
X139516228Y-93570499D01*
X139516232Y-93570500D01*
X139516233Y-93570500D01*
X139683768Y-93570500D01*
X139683769Y-93570499D01*
X139848082Y-93537816D01*
X140002863Y-93473703D01*
X140142162Y-93380626D01*
X140260626Y-93262162D01*
X140353703Y-93122863D01*
X140417816Y-92968082D01*
X140450500Y-92803767D01*
X140450500Y-92636233D01*
X140417816Y-92471918D01*
X140353703Y-92317137D01*
X140308509Y-92249500D01*
X140260626Y-92177837D01*
X140142162Y-92059373D01*
X140002860Y-91966295D01*
X139848082Y-91902184D01*
X139848074Y-91902182D01*
X139683771Y-91869500D01*
X139683767Y-91869500D01*
X139516233Y-91869500D01*
X139516228Y-91869500D01*
X139351925Y-91902182D01*
X139351917Y-91902184D01*
X139197139Y-91966295D01*
X139057837Y-92059373D01*
X138939373Y-92177837D01*
X138846295Y-92317139D01*
X138782184Y-92471917D01*
X138782182Y-92471925D01*
X138749500Y-92636228D01*
X111613005Y-92636228D01*
X111560626Y-92557837D01*
X111442162Y-92439373D01*
X111302860Y-92346295D01*
X111148082Y-92282184D01*
X111148074Y-92282182D01*
X110983771Y-92249500D01*
X110983767Y-92249500D01*
X110816233Y-92249500D01*
X110816228Y-92249500D01*
X110651925Y-92282182D01*
X110651917Y-92282184D01*
X110497139Y-92346295D01*
X110357837Y-92439373D01*
X110239376Y-92557834D01*
X110239373Y-92557838D01*
X110172823Y-92657438D01*
X110119211Y-92702243D01*
X110069721Y-92712547D01*
X110044482Y-92712547D01*
X109880179Y-92745229D01*
X109880171Y-92745231D01*
X109725393Y-92809342D01*
X109586091Y-92902420D01*
X109467627Y-93020884D01*
X109374549Y-93160186D01*
X109310438Y-93314964D01*
X109310436Y-93314972D01*
X109277754Y-93479275D01*
X109277754Y-93646815D01*
X109278351Y-93652877D01*
X109276178Y-93653090D01*
X109270808Y-93712902D01*
X109243114Y-93755148D01*
X109139373Y-93858889D01*
X109046295Y-93998190D01*
X108982184Y-94152968D01*
X108982182Y-94152976D01*
X108949500Y-94317279D01*
X108949500Y-94317284D01*
X108949500Y-94484818D01*
X108949501Y-94484822D01*
X108976627Y-94621198D01*
X108970398Y-94690789D01*
X108942702Y-94733058D01*
X108939374Y-94736386D01*
X108939370Y-94736391D01*
X108846294Y-94875689D01*
X108782183Y-95030467D01*
X108782181Y-95030475D01*
X108749499Y-95194778D01*
X106166453Y-95194778D01*
X106160968Y-90796228D01*
X113149500Y-90796228D01*
X113149500Y-90963771D01*
X113182182Y-91128074D01*
X113182184Y-91128082D01*
X113246295Y-91282860D01*
X113339373Y-91422162D01*
X113457837Y-91540626D01*
X113550494Y-91602537D01*
X113597137Y-91633703D01*
X113751918Y-91697816D01*
X113916228Y-91730499D01*
X113916232Y-91730500D01*
X113916233Y-91730500D01*
X114083768Y-91730500D01*
X114083769Y-91730499D01*
X114248082Y-91697816D01*
X114402863Y-91633703D01*
X114402862Y-91633703D01*
X114408491Y-91631372D01*
X114409293Y-91633308D01*
X114468351Y-91620986D01*
X114533605Y-91645958D01*
X114561556Y-91675700D01*
X114639370Y-91792157D01*
X114639376Y-91792165D01*
X114757837Y-91910626D01*
X114787644Y-91930542D01*
X114897137Y-92003703D01*
X115051918Y-92067816D01*
X115216228Y-92100499D01*
X115216232Y-92100500D01*
X115216233Y-92100500D01*
X115383768Y-92100500D01*
X115383769Y-92100499D01*
X115548082Y-92067816D01*
X115702863Y-92003703D01*
X115781110Y-91951419D01*
X115847786Y-91930542D01*
X115915167Y-91949026D01*
X115918872Y-91951407D01*
X115997137Y-92003703D01*
X116151918Y-92067816D01*
X116316228Y-92100499D01*
X116316232Y-92100500D01*
X116316233Y-92100500D01*
X116483768Y-92100500D01*
X116483769Y-92100499D01*
X116648082Y-92067816D01*
X116802863Y-92003703D01*
X116942162Y-91910626D01*
X117060626Y-91792162D01*
X117153703Y-91652863D01*
X117217816Y-91498082D01*
X117250500Y-91333767D01*
X117250500Y-91166233D01*
X117217816Y-91001918D01*
X117153703Y-90847137D01*
X117115723Y-90790296D01*
X117060626Y-90707837D01*
X116942162Y-90589373D01*
X116802860Y-90496295D01*
X116648082Y-90432184D01*
X116648074Y-90432182D01*
X116483771Y-90399500D01*
X116483767Y-90399500D01*
X116316233Y-90399500D01*
X116316228Y-90399500D01*
X116151925Y-90432182D01*
X116151917Y-90432184D01*
X115997140Y-90496295D01*
X115918890Y-90548580D01*
X115852213Y-90569457D01*
X115784833Y-90550972D01*
X115781110Y-90548580D01*
X115721883Y-90509006D01*
X115702863Y-90496297D01*
X115702860Y-90496295D01*
X115702859Y-90496295D01*
X115548082Y-90432184D01*
X115548074Y-90432182D01*
X115383771Y-90399500D01*
X115383767Y-90399500D01*
X115216233Y-90399500D01*
X115216228Y-90399500D01*
X115051925Y-90432182D01*
X115051917Y-90432184D01*
X114891509Y-90498628D01*
X114890712Y-90496705D01*
X114831573Y-90509006D01*
X114766334Y-90483993D01*
X114738444Y-90454299D01*
X114660626Y-90337838D01*
X114660623Y-90337834D01*
X114542162Y-90219373D01*
X114402860Y-90126295D01*
X114248082Y-90062184D01*
X114248074Y-90062182D01*
X114083771Y-90029500D01*
X114083767Y-90029500D01*
X113916233Y-90029500D01*
X113916228Y-90029500D01*
X113751925Y-90062182D01*
X113751917Y-90062184D01*
X113597139Y-90126295D01*
X113457837Y-90219373D01*
X113339373Y-90337837D01*
X113246295Y-90477139D01*
X113182184Y-90631917D01*
X113182182Y-90631925D01*
X113149500Y-90796228D01*
X106160968Y-90796228D01*
X106154883Y-85916228D01*
X110799500Y-85916228D01*
X110799500Y-86083771D01*
X110832182Y-86248074D01*
X110832184Y-86248082D01*
X110896295Y-86402860D01*
X110989373Y-86542162D01*
X111107837Y-86660626D01*
X111200494Y-86722537D01*
X111247137Y-86753703D01*
X111401918Y-86817816D01*
X111566228Y-86850499D01*
X111566232Y-86850500D01*
X111566233Y-86850500D01*
X111733768Y-86850500D01*
X111733769Y-86850499D01*
X111898082Y-86817816D01*
X112052863Y-86753703D01*
X112192162Y-86660626D01*
X112310626Y-86542162D01*
X112403703Y-86402863D01*
X112467816Y-86248082D01*
X112500500Y-86083767D01*
X112500500Y-85916233D01*
X112467816Y-85751918D01*
X112403703Y-85597137D01*
X112372537Y-85550494D01*
X112310626Y-85457837D01*
X112192162Y-85339373D01*
X112052860Y-85246295D01*
X111898082Y-85182184D01*
X111898074Y-85182182D01*
X111733771Y-85149500D01*
X111733767Y-85149500D01*
X111566233Y-85149500D01*
X111566228Y-85149500D01*
X111401925Y-85182182D01*
X111401917Y-85182184D01*
X111247139Y-85246295D01*
X111107837Y-85339373D01*
X110989373Y-85457837D01*
X110896295Y-85597139D01*
X110832184Y-85751917D01*
X110832182Y-85751925D01*
X110799500Y-85916228D01*
X106154883Y-85916228D01*
X106152448Y-83963478D01*
X124349500Y-83963478D01*
X124349500Y-84131021D01*
X124382182Y-84295324D01*
X124382184Y-84295332D01*
X124446295Y-84450110D01*
X124539373Y-84589412D01*
X124657837Y-84707876D01*
X124750494Y-84769787D01*
X124797137Y-84800953D01*
X124951918Y-84865066D01*
X125116228Y-84897749D01*
X125116232Y-84897750D01*
X125116233Y-84897750D01*
X125283768Y-84897750D01*
X125283769Y-84897749D01*
X125448082Y-84865066D01*
X125602863Y-84800953D01*
X125742162Y-84707876D01*
X125860626Y-84589412D01*
X125953703Y-84450113D01*
X126017816Y-84295332D01*
X126050500Y-84131017D01*
X126050500Y-83963483D01*
X126017816Y-83799168D01*
X125953703Y-83644387D01*
X125922537Y-83597744D01*
X125860626Y-83505087D01*
X125742162Y-83386623D01*
X125602860Y-83293545D01*
X125448082Y-83229434D01*
X125448074Y-83229432D01*
X125283771Y-83196750D01*
X125283767Y-83196750D01*
X125116233Y-83196750D01*
X125116228Y-83196750D01*
X124951925Y-83229432D01*
X124951917Y-83229434D01*
X124797139Y-83293545D01*
X124657837Y-83386623D01*
X124539373Y-83505087D01*
X124446295Y-83644389D01*
X124382184Y-83799167D01*
X124382182Y-83799175D01*
X124349500Y-83963478D01*
X106152448Y-83963478D01*
X106150511Y-82409842D01*
X106150575Y-82405746D01*
X106153766Y-82307221D01*
X106154184Y-82300310D01*
X106154645Y-82295099D01*
X106185612Y-81945108D01*
X106186636Y-81936771D01*
X106205182Y-81818895D01*
X106253231Y-81513491D01*
X106254850Y-81505106D01*
X106354534Y-81069950D01*
X106356809Y-81061428D01*
X106486287Y-80637785D01*
X106489299Y-80629102D01*
X106645504Y-80227540D01*
X106649337Y-80218715D01*
X106681555Y-80151780D01*
X106829727Y-79843942D01*
X106834419Y-79835124D01*
X107037066Y-79488862D01*
X107042681Y-79480131D01*
X107209137Y-79243713D01*
X120149500Y-79243713D01*
X120149500Y-79456286D01*
X120180374Y-79651220D01*
X120182754Y-79666243D01*
X120247595Y-79865803D01*
X120248444Y-79868414D01*
X120344951Y-80057820D01*
X120469890Y-80229786D01*
X120620213Y-80380109D01*
X120792179Y-80505048D01*
X120792181Y-80505049D01*
X120792184Y-80505051D01*
X120981588Y-80601557D01*
X121183757Y-80667246D01*
X121393713Y-80700500D01*
X121393714Y-80700500D01*
X121606286Y-80700500D01*
X121606287Y-80700500D01*
X121816243Y-80667246D01*
X122018412Y-80601557D01*
X122207816Y-80505051D01*
X122294478Y-80442088D01*
X122379786Y-80380109D01*
X122379788Y-80380106D01*
X122379792Y-80380104D01*
X122530104Y-80229792D01*
X122530106Y-80229788D01*
X122530109Y-80229786D01*
X122655048Y-80057820D01*
X122655047Y-80057820D01*
X122655051Y-80057816D01*
X122659514Y-80049054D01*
X122707488Y-79998259D01*
X122775308Y-79981463D01*
X122841444Y-80003999D01*
X122880486Y-80049056D01*
X122884951Y-80057820D01*
X123009890Y-80229786D01*
X123160213Y-80380109D01*
X123332179Y-80505048D01*
X123332181Y-80505049D01*
X123332184Y-80505051D01*
X123521588Y-80601557D01*
X123723757Y-80667246D01*
X123933713Y-80700500D01*
X123933714Y-80700500D01*
X124146286Y-80700500D01*
X124146287Y-80700500D01*
X124356243Y-80667246D01*
X124558412Y-80601557D01*
X124747816Y-80505051D01*
X124834478Y-80442088D01*
X124919786Y-80380109D01*
X124919788Y-80380106D01*
X124919792Y-80380104D01*
X125070104Y-80229792D01*
X125070106Y-80229788D01*
X125070109Y-80229786D01*
X125195048Y-80057820D01*
X125195047Y-80057820D01*
X125195051Y-80057816D01*
X125199514Y-80049054D01*
X125247488Y-79998259D01*
X125315308Y-79981463D01*
X125381444Y-80003999D01*
X125420486Y-80049056D01*
X125424951Y-80057820D01*
X125549890Y-80229786D01*
X125700213Y-80380109D01*
X125872179Y-80505048D01*
X125872181Y-80505049D01*
X125872184Y-80505051D01*
X126061588Y-80601557D01*
X126263757Y-80667246D01*
X126473713Y-80700500D01*
X126473714Y-80700500D01*
X126686286Y-80700500D01*
X126686287Y-80700500D01*
X126896243Y-80667246D01*
X127098412Y-80601557D01*
X127287816Y-80505051D01*
X127374478Y-80442088D01*
X127459786Y-80380109D01*
X127459788Y-80380106D01*
X127459792Y-80380104D01*
X127610104Y-80229792D01*
X127610106Y-80229788D01*
X127610109Y-80229786D01*
X127735048Y-80057820D01*
X127735047Y-80057820D01*
X127735051Y-80057816D01*
X127739514Y-80049054D01*
X127787488Y-79998259D01*
X127855308Y-79981463D01*
X127921444Y-80003999D01*
X127960486Y-80049056D01*
X127964951Y-80057820D01*
X128089890Y-80229786D01*
X128240213Y-80380109D01*
X128412179Y-80505048D01*
X128412181Y-80505049D01*
X128412184Y-80505051D01*
X128601588Y-80601557D01*
X128803757Y-80667246D01*
X129013713Y-80700500D01*
X129013714Y-80700500D01*
X129226286Y-80700500D01*
X129226287Y-80700500D01*
X129436243Y-80667246D01*
X129638412Y-80601557D01*
X129827816Y-80505051D01*
X129914478Y-80442088D01*
X129999786Y-80380109D01*
X129999788Y-80380106D01*
X129999792Y-80380104D01*
X130150104Y-80229792D01*
X130150106Y-80229788D01*
X130150109Y-80229786D01*
X130275048Y-80057820D01*
X130275047Y-80057820D01*
X130275051Y-80057816D01*
X130279514Y-80049054D01*
X130327488Y-79998259D01*
X130395308Y-79981463D01*
X130461444Y-80003999D01*
X130500486Y-80049056D01*
X130504951Y-80057820D01*
X130629890Y-80229786D01*
X130780213Y-80380109D01*
X130952179Y-80505048D01*
X130952181Y-80505049D01*
X130952184Y-80505051D01*
X131141588Y-80601557D01*
X131343757Y-80667246D01*
X131553713Y-80700500D01*
X131553714Y-80700500D01*
X131766286Y-80700500D01*
X131766287Y-80700500D01*
X131976243Y-80667246D01*
X132178412Y-80601557D01*
X132367816Y-80505051D01*
X132454478Y-80442088D01*
X132539786Y-80380109D01*
X132539788Y-80380106D01*
X132539792Y-80380104D01*
X132690104Y-80229792D01*
X132690106Y-80229788D01*
X132690109Y-80229786D01*
X132815048Y-80057820D01*
X132815047Y-80057820D01*
X132815051Y-80057816D01*
X132819514Y-80049054D01*
X132867488Y-79998259D01*
X132935308Y-79981463D01*
X133001444Y-80003999D01*
X133040486Y-80049056D01*
X133044951Y-80057820D01*
X133169890Y-80229786D01*
X133320213Y-80380109D01*
X133492179Y-80505048D01*
X133492181Y-80505049D01*
X133492184Y-80505051D01*
X133681588Y-80601557D01*
X133883757Y-80667246D01*
X134093713Y-80700500D01*
X134093714Y-80700500D01*
X134306286Y-80700500D01*
X134306287Y-80700500D01*
X134516243Y-80667246D01*
X134718412Y-80601557D01*
X134907816Y-80505051D01*
X134994478Y-80442088D01*
X135079786Y-80380109D01*
X135079788Y-80380106D01*
X135079792Y-80380104D01*
X135230104Y-80229792D01*
X135230106Y-80229788D01*
X135230109Y-80229786D01*
X135355048Y-80057820D01*
X135355047Y-80057820D01*
X135355051Y-80057816D01*
X135359514Y-80049054D01*
X135407488Y-79998259D01*
X135475308Y-79981463D01*
X135541444Y-80003999D01*
X135580486Y-80049056D01*
X135584951Y-80057820D01*
X135709890Y-80229786D01*
X135860213Y-80380109D01*
X136032179Y-80505048D01*
X136032181Y-80505049D01*
X136032184Y-80505051D01*
X136221588Y-80601557D01*
X136423757Y-80667246D01*
X136633713Y-80700500D01*
X136633714Y-80700500D01*
X136846286Y-80700500D01*
X136846287Y-80700500D01*
X137056243Y-80667246D01*
X137258412Y-80601557D01*
X137447816Y-80505051D01*
X137534478Y-80442088D01*
X137619784Y-80380110D01*
X137619784Y-80380109D01*
X137619792Y-80380104D01*
X137733717Y-80266178D01*
X137795036Y-80232696D01*
X137864728Y-80237680D01*
X137920662Y-80279551D01*
X137937577Y-80310528D01*
X137986646Y-80442088D01*
X137986649Y-80442093D01*
X138072809Y-80557187D01*
X138072812Y-80557190D01*
X138187906Y-80643350D01*
X138187913Y-80643354D01*
X138322620Y-80693596D01*
X138322627Y-80693598D01*
X138382155Y-80699999D01*
X138382172Y-80700000D01*
X139030000Y-80700000D01*
X139030000Y-79783012D01*
X139087007Y-79815925D01*
X139214174Y-79850000D01*
X139345826Y-79850000D01*
X139472993Y-79815925D01*
X139530000Y-79783012D01*
X139530000Y-80700000D01*
X140177828Y-80700000D01*
X140177844Y-80699999D01*
X140237372Y-80693598D01*
X140237379Y-80693596D01*
X140372086Y-80643354D01*
X140372093Y-80643350D01*
X140487187Y-80557190D01*
X140487190Y-80557187D01*
X140573350Y-80442093D01*
X140573354Y-80442086D01*
X140623596Y-80307379D01*
X140623598Y-80307372D01*
X140629999Y-80247844D01*
X140630000Y-80247827D01*
X140630000Y-79600000D01*
X139713012Y-79600000D01*
X139745925Y-79542993D01*
X139780000Y-79415826D01*
X139780000Y-79284174D01*
X139745925Y-79157007D01*
X139713012Y-79100000D01*
X140630000Y-79100000D01*
X140630000Y-78452172D01*
X140629999Y-78452155D01*
X140623598Y-78392627D01*
X140623596Y-78392620D01*
X140573354Y-78257913D01*
X140573350Y-78257906D01*
X140487190Y-78142812D01*
X140487187Y-78142809D01*
X140372093Y-78056649D01*
X140372086Y-78056645D01*
X140237379Y-78006403D01*
X140237372Y-78006401D01*
X140177844Y-78000000D01*
X139530000Y-78000000D01*
X139530000Y-78916988D01*
X139472993Y-78884075D01*
X139345826Y-78850000D01*
X139214174Y-78850000D01*
X139087007Y-78884075D01*
X139030000Y-78916988D01*
X139030000Y-78000000D01*
X138382155Y-78000000D01*
X138322627Y-78006401D01*
X138322620Y-78006403D01*
X138187913Y-78056645D01*
X138187906Y-78056649D01*
X138072812Y-78142809D01*
X138072809Y-78142812D01*
X137986649Y-78257906D01*
X137986646Y-78257912D01*
X137937577Y-78389471D01*
X137895705Y-78445404D01*
X137830241Y-78469821D01*
X137761968Y-78454969D01*
X137733714Y-78433818D01*
X137619786Y-78319890D01*
X137447820Y-78194951D01*
X137258414Y-78098444D01*
X137258413Y-78098443D01*
X137258412Y-78098443D01*
X137056243Y-78032754D01*
X137056241Y-78032753D01*
X137056240Y-78032753D01*
X136894957Y-78007208D01*
X136846287Y-77999500D01*
X136633713Y-77999500D01*
X136585042Y-78007208D01*
X136423760Y-78032753D01*
X136221585Y-78098444D01*
X136032179Y-78194951D01*
X135860213Y-78319890D01*
X135709890Y-78470213D01*
X135584949Y-78642182D01*
X135580484Y-78650946D01*
X135532509Y-78701742D01*
X135464688Y-78718536D01*
X135398553Y-78695998D01*
X135359516Y-78650946D01*
X135355050Y-78642182D01*
X135230109Y-78470213D01*
X135079786Y-78319890D01*
X134907820Y-78194951D01*
X134718414Y-78098444D01*
X134718413Y-78098443D01*
X134718412Y-78098443D01*
X134516243Y-78032754D01*
X134516241Y-78032753D01*
X134516240Y-78032753D01*
X134354957Y-78007208D01*
X134306287Y-77999500D01*
X134093713Y-77999500D01*
X134045042Y-78007208D01*
X133883760Y-78032753D01*
X133681585Y-78098444D01*
X133492179Y-78194951D01*
X133320213Y-78319890D01*
X133169890Y-78470213D01*
X133044949Y-78642182D01*
X133040484Y-78650946D01*
X132992509Y-78701742D01*
X132924688Y-78718536D01*
X132858553Y-78695998D01*
X132819516Y-78650946D01*
X132815050Y-78642182D01*
X132690109Y-78470213D01*
X132539786Y-78319890D01*
X132367820Y-78194951D01*
X132178414Y-78098444D01*
X132178413Y-78098443D01*
X132178412Y-78098443D01*
X131976243Y-78032754D01*
X131976241Y-78032753D01*
X131976240Y-78032753D01*
X131814957Y-78007208D01*
X131766287Y-77999500D01*
X131553713Y-77999500D01*
X131505042Y-78007208D01*
X131343760Y-78032753D01*
X131141585Y-78098444D01*
X130952179Y-78194951D01*
X130780213Y-78319890D01*
X130629890Y-78470213D01*
X130504949Y-78642182D01*
X130500484Y-78650946D01*
X130452509Y-78701742D01*
X130384688Y-78718536D01*
X130318553Y-78695998D01*
X130279516Y-78650946D01*
X130275050Y-78642182D01*
X130150109Y-78470213D01*
X129999786Y-78319890D01*
X129827820Y-78194951D01*
X129638414Y-78098444D01*
X129638413Y-78098443D01*
X129638412Y-78098443D01*
X129436243Y-78032754D01*
X129436241Y-78032753D01*
X129436240Y-78032753D01*
X129274957Y-78007208D01*
X129226287Y-77999500D01*
X129013713Y-77999500D01*
X128965042Y-78007208D01*
X128803760Y-78032753D01*
X128601585Y-78098444D01*
X128412179Y-78194951D01*
X128240213Y-78319890D01*
X128089890Y-78470213D01*
X127964949Y-78642182D01*
X127960484Y-78650946D01*
X127912509Y-78701742D01*
X127844688Y-78718536D01*
X127778553Y-78695998D01*
X127739516Y-78650946D01*
X127735050Y-78642182D01*
X127610109Y-78470213D01*
X127459786Y-78319890D01*
X127287820Y-78194951D01*
X127098414Y-78098444D01*
X127098413Y-78098443D01*
X127098412Y-78098443D01*
X126896243Y-78032754D01*
X126896241Y-78032753D01*
X126896240Y-78032753D01*
X126734957Y-78007208D01*
X126686287Y-77999500D01*
X126473713Y-77999500D01*
X126425042Y-78007208D01*
X126263760Y-78032753D01*
X126061585Y-78098444D01*
X125872179Y-78194951D01*
X125700213Y-78319890D01*
X125549890Y-78470213D01*
X125424949Y-78642182D01*
X125420484Y-78650946D01*
X125372509Y-78701742D01*
X125304688Y-78718536D01*
X125238553Y-78695998D01*
X125199516Y-78650946D01*
X125195050Y-78642182D01*
X125070109Y-78470213D01*
X124919786Y-78319890D01*
X124747820Y-78194951D01*
X124558414Y-78098444D01*
X124558413Y-78098443D01*
X124558412Y-78098443D01*
X124356243Y-78032754D01*
X124356241Y-78032753D01*
X124356240Y-78032753D01*
X124194957Y-78007208D01*
X124146287Y-77999500D01*
X123933713Y-77999500D01*
X123885042Y-78007208D01*
X123723760Y-78032753D01*
X123521585Y-78098444D01*
X123332179Y-78194951D01*
X123160213Y-78319890D01*
X123009890Y-78470213D01*
X122884949Y-78642182D01*
X122880484Y-78650946D01*
X122832509Y-78701742D01*
X122764688Y-78718536D01*
X122698553Y-78695998D01*
X122659516Y-78650946D01*
X122655050Y-78642182D01*
X122530109Y-78470213D01*
X122379786Y-78319890D01*
X122207820Y-78194951D01*
X122018414Y-78098444D01*
X122018413Y-78098443D01*
X122018412Y-78098443D01*
X121816243Y-78032754D01*
X121816241Y-78032753D01*
X121816240Y-78032753D01*
X121654957Y-78007208D01*
X121606287Y-77999500D01*
X121393713Y-77999500D01*
X121345042Y-78007208D01*
X121183760Y-78032753D01*
X120981585Y-78098444D01*
X120792179Y-78194951D01*
X120620213Y-78319890D01*
X120469890Y-78470213D01*
X120344951Y-78642179D01*
X120248444Y-78831585D01*
X120182753Y-79033760D01*
X120149500Y-79243713D01*
X107209137Y-79243713D01*
X107266326Y-79162487D01*
X107272848Y-79154028D01*
X107516935Y-78864264D01*
X107524374Y-78856189D01*
X107789107Y-78593169D01*
X107797317Y-78585714D01*
X108083620Y-78348294D01*
X108092501Y-78341581D01*
X108401907Y-78128917D01*
X108411298Y-78123063D01*
X108745899Y-77934742D01*
X108755595Y-77929832D01*
X109124072Y-77763220D01*
X109131368Y-77760200D01*
X109316920Y-77690275D01*
X109321751Y-77688569D01*
X109522976Y-77622255D01*
X109527844Y-77620763D01*
X109736207Y-77561499D01*
X109741001Y-77560238D01*
X109959242Y-77507571D01*
X109963947Y-77506534D01*
X110190472Y-77461223D01*
X110195113Y-77460387D01*
X110431809Y-77422412D01*
X110436354Y-77421769D01*
X110682559Y-77391635D01*
X110686998Y-77391174D01*
X110943775Y-77369141D01*
X110948088Y-77368847D01*
X111215439Y-77355338D01*
X111219631Y-77355198D01*
X111489454Y-77350742D01*
X111503122Y-77350517D01*
X111505169Y-77350500D01*
X145813789Y-77350500D01*
X145818238Y-77350580D01*
G37*
%TD.AperFunction*%
%TD*%
M02*
