%TF.GenerationSoftware,KiCad,Pcbnew,9.0.6*%
%TF.CreationDate,2026-08-19T11:20:24+05:30*%
%TF.ProjectId,RF_Transiever,52465f54-7261-46e7-9369-657665722e6b,rev?*%
%TF.SameCoordinates,Original*%
%TF.FileFunction,Profile,NP*%
%FSLAX46Y46*%
G04 Gerber Fmt 4.6, Leading zero omitted, Abs format (unit mm)*
G04 Created by KiCad (PCBNEW 9.0.6) date 2026-08-19 11:20:24*
%MOMM*%
%LPD*%
G01*
G04 APERTURE LIST*
%TA.AperFunction,Profile*%
%ADD10C,0.050000*%
%TD*%
%ADD11C,0.050000*%
G04 APERTURE END LIST*
D10*
X111600000Y-108175000D02*
X145950000Y-108200983D01*
D11*
X111600000Y-108175000D02*
X111586443Y-108174981D01*
X111572906Y-108174942D01*
X111559390Y-108174883D01*
X111545894Y-108174805D01*
X111532419Y-108174706D01*
X111518965Y-108174588D01*
X111505531Y-108174449D01*
X111492118Y-108174291D01*
X111478725Y-108174114D01*
X111465353Y-108173916D01*
X111452001Y-108173699D01*
X111438669Y-108173462D01*
X111425358Y-108173206D01*
X111412067Y-108172930D01*
X111398797Y-108172634D01*
X111385547Y-108172319D01*
X111372316Y-108171984D01*
X111359107Y-108171630D01*
X111345917Y-108171257D01*
X111332747Y-108170864D01*
X111319598Y-108170451D01*
X111306469Y-108170019D01*
X111293359Y-108169568D01*
X111280270Y-108169098D01*
X111267201Y-108168608D01*
X111254152Y-108168099D01*
X111241122Y-108167571D01*
X111228113Y-108167024D01*
X111215123Y-108166457D01*
X111202153Y-108165872D01*
X111189203Y-108165267D01*
X111176273Y-108164643D01*
X111163363Y-108164000D01*
X111150472Y-108163338D01*
X111137601Y-108162657D01*
X111124750Y-108161957D01*
X111111918Y-108161239D01*
X111099107Y-108160501D01*
X111086314Y-108159744D01*
X111073541Y-108158969D01*
X111060787Y-108158174D01*
X111048054Y-108157361D01*
X111035339Y-108156529D01*
X111022644Y-108155679D01*
X111009968Y-108154809D01*
X110997313Y-108153921D01*
X110984675Y-108153014D01*
X110972058Y-108152089D01*
X110959459Y-108151145D01*
X110946881Y-108150182D01*
X110934321Y-108149201D01*
X110921780Y-108148201D01*
X110909258Y-108147183D01*
X110896757Y-108146146D01*
X110884273Y-108145091D01*
X110871809Y-108144017D01*
X110859364Y-108142925D01*
X110846938Y-108141815D01*
X110834531Y-108140686D01*
X110822143Y-108139538D01*
X110809773Y-108138373D01*
X110797423Y-108137189D01*
X110785092Y-108135987D01*
X110772779Y-108134767D01*
X110760485Y-108133528D01*
X110748211Y-108132271D01*
X110735954Y-108130997D01*
X110723717Y-108129704D01*
X110711498Y-108128392D01*
X110699298Y-108127063D01*
X110687116Y-108125716D01*
X110674954Y-108124350D01*
X110662809Y-108122967D01*
X110650684Y-108121566D01*
X110638577Y-108120146D01*
X110626489Y-108118709D01*
X110614418Y-108117254D01*
X110602367Y-108115781D01*
X110590333Y-108114290D01*
X110578319Y-108112781D01*
X110566321Y-108111254D01*
X110554344Y-108109710D01*
X110542383Y-108108147D01*
X110530442Y-108106567D01*
X110518518Y-108104969D01*
X110506614Y-108103354D01*
X110494726Y-108101721D01*
X110482858Y-108100070D01*
X110471007Y-108098401D01*
X110459175Y-108096715D01*
X110447360Y-108095011D01*
X110435564Y-108093290D01*
X110423785Y-108091551D01*
X110412025Y-108089794D01*
X110400282Y-108088020D01*
X110388559Y-108086229D01*
X110376851Y-108084420D01*
X110365163Y-108082593D01*
X110353492Y-108080750D01*
X110341839Y-108078888D01*
X110330203Y-108077010D01*
X110318587Y-108075114D01*
X110306986Y-108073200D01*
X110295405Y-108071270D01*
X110283840Y-108069321D01*
X110272294Y-108067356D01*
X110260765Y-108065373D01*
X110249254Y-108063374D01*
X110237760Y-108061357D01*
X110226284Y-108059322D01*
X110214825Y-108057271D01*
X110203384Y-108055202D01*
X110191960Y-108053116D01*
X110180554Y-108051014D01*
X110169165Y-108048894D01*
X110157794Y-108046757D01*
X110146439Y-108044602D01*
X110135103Y-108042431D01*
X110123783Y-108040243D01*
X110112482Y-108038038D01*
X110101196Y-108035815D01*
X110089929Y-108033576D01*
X110078678Y-108031320D01*
X110067446Y-108029047D01*
X110056228Y-108026757D01*
X110045030Y-108024450D01*
X110033848Y-108022126D01*
X110022684Y-108019786D01*
X110011535Y-108017428D01*
X110000405Y-108015054D01*
X109989290Y-108012663D01*
X109978195Y-108010255D01*
X109967114Y-108007830D01*
X109956052Y-108005389D01*
X109945005Y-108002931D01*
X109933977Y-108000456D01*
X109922963Y-107997964D01*
X109911969Y-107995456D01*
X109900989Y-107992931D01*
X109890028Y-107990390D01*
X109879082Y-107987831D01*
X109868154Y-107985257D01*
X109857241Y-107982665D01*
X109846347Y-107980057D01*
X109835467Y-107977432D01*
X109824606Y-107974792D01*
X109813760Y-107972134D01*
X109802932Y-107969460D01*
X109792119Y-107966769D01*
X109781324Y-107964062D01*
X109770543Y-107961338D01*
X109759782Y-107958598D01*
X109749034Y-107955841D01*
X109738305Y-107953069D01*
X109727590Y-107950279D01*
X109716894Y-107947474D01*
X109706212Y-107944651D01*
X109695548Y-107941813D01*
X109684898Y-107938958D01*
X109674267Y-107936087D01*
X109663650Y-107933200D01*
X109653052Y-107930296D01*
X109642467Y-107927376D01*
X109631900Y-107924440D01*
X109621348Y-107921487D01*
X109610814Y-107918519D01*
X109600293Y-107915533D01*
X109589791Y-107912532D01*
X109579303Y-107909514D01*
X109568833Y-107906481D01*
X109558377Y-107903431D01*
X109547939Y-107900366D01*
X109537514Y-107897283D01*
X109527108Y-107894185D01*
X109516715Y-107891070D01*
X109506341Y-107887940D01*
X109495980Y-107884793D01*
X109485637Y-107881631D01*
X109475307Y-107878452D01*
X109464996Y-107875258D01*
X109454698Y-107872047D01*
X109444419Y-107868820D01*
X109434152Y-107865577D01*
X109423904Y-107862319D01*
X109413668Y-107859043D01*
X109403451Y-107855753D01*
X109393247Y-107852446D01*
X109383061Y-107849123D01*
X109362733Y-107842430D01*
X109342467Y-107835673D01*
X109322263Y-107828853D01*
X109302121Y-107821968D01*
X109282040Y-107815021D01*
X109262020Y-107808010D01*
X109242061Y-107800936D01*
X109222163Y-107793799D01*
X109202326Y-107786599D01*
X109182549Y-107779335D01*
X109162833Y-107772009D01*
X109143177Y-107764620D01*
X109123581Y-107757168D01*
X109104045Y-107749653D01*
X109084568Y-107742076D01*
X109065151Y-107734436D01*
X109045793Y-107726734D01*
X109026494Y-107718969D01*
X109007255Y-107711142D01*
X108988074Y-107703253D01*
X108968951Y-107695301D01*
X108949888Y-107687287D01*
X108930882Y-107679211D01*
X108911935Y-107671073D01*
X108893045Y-107662873D01*
X108874213Y-107654610D01*
X108855439Y-107646286D01*
X108836723Y-107637900D01*
X108818064Y-107629453D01*
X108799461Y-107620943D01*
X108780916Y-107612372D01*
X108762428Y-107603738D01*
X108743997Y-107595044D01*
X108725622Y-107586287D01*
X108707303Y-107577469D01*
X108689041Y-107568589D01*
X108670835Y-107559648D01*
X108652684Y-107550646D01*
X108634590Y-107541581D01*
X108616551Y-107532456D01*
X108598568Y-107523269D01*
X108580640Y-107514020D01*
X108562767Y-107504710D01*
X108544949Y-107495339D01*
X108527187Y-107485907D01*
X108509479Y-107476413D01*
X108491826Y-107466857D01*
X108474227Y-107457241D01*
X108456683Y-107447563D01*
X108439193Y-107437824D01*
X108421757Y-107428023D01*
X108404375Y-107418162D01*
X108387047Y-107408239D01*
X108369773Y-107398255D01*
X108352552Y-107388209D01*
X108335385Y-107378102D01*
X108318271Y-107367934D01*
X108301211Y-107357705D01*
X108284204Y-107347415D01*
X108267249Y-107337063D01*
X108250348Y-107326650D01*
X108233499Y-107316175D01*
X108216704Y-107305640D01*
X108199960Y-107295043D01*
X108183269Y-107284384D01*
X108166631Y-107273665D01*
X108150045Y-107262884D01*
X108133510Y-107252041D01*
X108117028Y-107241137D01*
X108100598Y-107230172D01*
X108084220Y-107219145D01*
X108067893Y-107208057D01*
X108051618Y-107196908D01*
X108035395Y-107185696D01*
X108019222Y-107174424D01*
X108003102Y-107163089D01*
X107987032Y-107151694D01*
X107971014Y-107140236D01*
X107955047Y-107128717D01*
X107939130Y-107117136D01*
X107923265Y-107105493D01*
X107907450Y-107093789D01*
X107891686Y-107082022D01*
X107875973Y-107070194D01*
X107860311Y-107058304D01*
X107844698Y-107046352D01*
X107829137Y-107034338D01*
X107813625Y-107022262D01*
X107798164Y-107010124D01*
X107782753Y-106997924D01*
X107767392Y-106985661D01*
X107752081Y-106973337D01*
X107736821Y-106960950D01*
X107721610Y-106948500D01*
X107706449Y-106935989D01*
X107691338Y-106923414D01*
X107676276Y-106910778D01*
X107661265Y-106898079D01*
X107646302Y-106885317D01*
X107631390Y-106872492D01*
X107616527Y-106859605D01*
X107601714Y-106846655D01*
X107586949Y-106833642D01*
X107572235Y-106820566D01*
X107557570Y-106807427D01*
X107542954Y-106794225D01*
X107528387Y-106780960D01*
X107513869Y-106767632D01*
X107499401Y-106754241D01*
X107484982Y-106740786D01*
X107470612Y-106727268D01*
X107456291Y-106713686D01*
X107442019Y-106700041D01*
X107427796Y-106686332D01*
X107413623Y-106672560D01*
X107399498Y-106658724D01*
X107385422Y-106644824D01*
X107371395Y-106630860D01*
X107357417Y-106616832D01*
X107343488Y-106602740D01*
X107329608Y-106588584D01*
X107315777Y-106574364D01*
X107301995Y-106560079D01*
X107288261Y-106545730D01*
X107274577Y-106531317D01*
X107260941Y-106516839D01*
X107247354Y-106502297D01*
X107233816Y-106487690D01*
X107220327Y-106473018D01*
X107206887Y-106458282D01*
X107193496Y-106443480D01*
X107180154Y-106428614D01*
X107166860Y-106413682D01*
X107153616Y-106398686D01*
X107140420Y-106383624D01*
X107127273Y-106368497D01*
X107114176Y-106353304D01*
X107101127Y-106338046D01*
X107088127Y-106322723D01*
X107075177Y-106307333D01*
X107062275Y-106291879D01*
X107049423Y-106276358D01*
X107036620Y-106260772D01*
X107023866Y-106245119D01*
X107011161Y-106229401D01*
X106998505Y-106213616D01*
X106985899Y-106197766D01*
X106973342Y-106181849D01*
X106960834Y-106165866D01*
X106948376Y-106149816D01*
X106935967Y-106133700D01*
X106923608Y-106117518D01*
X106911299Y-106101269D01*
X106899039Y-106084953D01*
X106886829Y-106068570D01*
X106874668Y-106052121D01*
X106862557Y-106035604D01*
X106850497Y-106019021D01*
X106838486Y-106002371D01*
X106826525Y-105985653D01*
X106814615Y-105968869D01*
X106802754Y-105952017D01*
X106790944Y-105935098D01*
X106779184Y-105918111D01*
X106767474Y-105901057D01*
X106755815Y-105883936D01*
X106744207Y-105866747D01*
X106732649Y-105849490D01*
X106721142Y-105832166D01*
X106709686Y-105814774D01*
X106698281Y-105797314D01*
X106686927Y-105779787D01*
X106675624Y-105762192D01*
X106664372Y-105744528D01*
X106653172Y-105726797D01*
X106642023Y-105708998D01*
X106630926Y-105691131D01*
X106619880Y-105673196D01*
X106608887Y-105655192D01*
X106597945Y-105637121D01*
X106587055Y-105618981D01*
X106576217Y-105600774D01*
X106565432Y-105582498D01*
X106554699Y-105564154D01*
X106544018Y-105545741D01*
X106533391Y-105527261D01*
X106522816Y-105508712D01*
X106512294Y-105490095D01*
X106501825Y-105471410D01*
X106491409Y-105452656D01*
X106481047Y-105433834D01*
X106470738Y-105414944D01*
X106460483Y-105395986D01*
X106450282Y-105376960D01*
X106440134Y-105357865D01*
X106430041Y-105338702D01*
X106420002Y-105319471D01*
X106410018Y-105300172D01*
X106400088Y-105280805D01*
X106390213Y-105261370D01*
X106380393Y-105241867D01*
X106370628Y-105222296D01*
X106360918Y-105202657D01*
X106351264Y-105182951D01*
X106341666Y-105163177D01*
X106332123Y-105143335D01*
X106322637Y-105123426D01*
X106313206Y-105103449D01*
X106303832Y-105083405D01*
X106294515Y-105063293D01*
X106285255Y-105043115D01*
X106276051Y-105022870D01*
X106266905Y-105002557D01*
X106257816Y-104982178D01*
X106248785Y-104961733D01*
X106239811Y-104941221D01*
X106230896Y-104920643D01*
X106222039Y-104899998D01*
X106213240Y-104879288D01*
X106204500Y-104858512D01*
X106195819Y-104837671D01*
X106187197Y-104816764D01*
X106178635Y-104795792D01*
X106170132Y-104774755D01*
X106161689Y-104753654D01*
X106153306Y-104732488D01*
X106144984Y-104711258D01*
X106136722Y-104689965D01*
X106128521Y-104668608D01*
X106120381Y-104647187D01*
X106112303Y-104625704D01*
X106104286Y-104604158D01*
X106096331Y-104582550D01*
X106088438Y-104560880D01*
X106080607Y-104539149D01*
X106072839Y-104517356D01*
X106065134Y-104495503D01*
X106057493Y-104473589D01*
X106049914Y-104451616D01*
X106042400Y-104429583D01*
X106034950Y-104407492D01*
X106027564Y-104385342D01*
X106020243Y-104363134D01*
X106012986Y-104340869D01*
X106005795Y-104318547D01*
X105998670Y-104296169D01*
X105991610Y-104273735D01*
X105984617Y-104251246D01*
X105977690Y-104228704D01*
X105970830Y-104206107D01*
X105964037Y-104183458D01*
X105957311Y-104160756D01*
X105950654Y-104138004D01*
X105944064Y-104115200D01*
X105937543Y-104092347D01*
X105931091Y-104069445D01*
X105924708Y-104046495D01*
X105918394Y-104023498D01*
X105912150Y-104000455D01*
X105905977Y-103977367D01*
X105899874Y-103954235D01*
X105893842Y-103931060D01*
X105887881Y-103907843D01*
X105881992Y-103884586D01*
X105876175Y-103861289D01*
X105870431Y-103837954D01*
X105864759Y-103814582D01*
X105859160Y-103791175D01*
X105853635Y-103767735D01*
X105848184Y-103744261D01*
X105842808Y-103720757D01*
X105837506Y-103697224D01*
X105832279Y-103673663D01*
X105827129Y-103650076D01*
X105822054Y-103626466D01*
X105817055Y-103602833D01*
X105812134Y-103579181D01*
X105807290Y-103555511D01*
X105802524Y-103531825D01*
X105797836Y-103508126D01*
X105793226Y-103484415D01*
X105788696Y-103460697D01*
X105784246Y-103436972D01*
X105779875Y-103413245D01*
X105775585Y-103389518D01*
X105771377Y-103365793D01*
X105767249Y-103342074D01*
X105763204Y-103318365D01*
X105759241Y-103294669D01*
X105755362Y-103270989D01*
X105751566Y-103247330D01*
X105747853Y-103223695D01*
X105744226Y-103200090D01*
X105740684Y-103176517D01*
X105737227Y-103152983D01*
X105733856Y-103129492D01*
X105730573Y-103106050D01*
X105727376Y-103082663D01*
X105724268Y-103059336D01*
X105721248Y-103036076D01*
X105718317Y-103012889D01*
X105715475Y-102989784D01*
X105712724Y-102966768D01*
X105710064Y-102943850D01*
X105707495Y-102921037D01*
X105705019Y-102898341D01*
X105702635Y-102875772D01*
X105700344Y-102853340D01*
X105698148Y-102831059D01*
X105696047Y-102808941D01*
X105694040Y-102787001D01*
X105692130Y-102765256D01*
X105690317Y-102743722D01*
X105688602Y-102722419D01*
X105686984Y-102701369D01*
X105685466Y-102680596D01*
X105684048Y-102660128D01*
X105682730Y-102639994D01*
X105681513Y-102620232D01*
X105680398Y-102600881D01*
X105679386Y-102581991D01*
X105678478Y-102563619D01*
X105677675Y-102545834D01*
X105676976Y-102528724D01*
X105676383Y-102512398D01*
X105675897Y-102497005D01*
X105675517Y-102482752D01*
X105675243Y-102469951D01*
X105675075Y-102459148D01*
X105675005Y-102451547D01*
X105675000Y-102450000D01*
X111500000Y-76850000D02*
X111486394Y-76850010D01*
X111472808Y-76850040D01*
X111459244Y-76850090D01*
X111445701Y-76850160D01*
X111432178Y-76850249D01*
X111418677Y-76850359D01*
X111405197Y-76850488D01*
X111391738Y-76850637D01*
X111378299Y-76850806D01*
X111364882Y-76850995D01*
X111351485Y-76851203D01*
X111338109Y-76851431D01*
X111324754Y-76851679D01*
X111311420Y-76851946D01*
X111298107Y-76852233D01*
X111284814Y-76852539D01*
X111271541Y-76852865D01*
X111258290Y-76853210D01*
X111245059Y-76853575D01*
X111231849Y-76853959D01*
X111218659Y-76854363D01*
X111205490Y-76854786D01*
X111192340Y-76855228D01*
X111179212Y-76855690D01*
X111166104Y-76856170D01*
X111153017Y-76856671D01*
X111139949Y-76857190D01*
X111126902Y-76857728D01*
X111113876Y-76858286D01*
X111100870Y-76858863D01*
X111087883Y-76859459D01*
X111074917Y-76860074D01*
X111061971Y-76860708D01*
X111049046Y-76861361D01*
X111036140Y-76862033D01*
X111023255Y-76862724D01*
X111010390Y-76863434D01*
X110997545Y-76864163D01*
X110984719Y-76864911D01*
X110971914Y-76865677D01*
X110959128Y-76866463D01*
X110946363Y-76867267D01*
X110933617Y-76868090D01*
X110920891Y-76868932D01*
X110908185Y-76869792D01*
X110895499Y-76870672D01*
X110882832Y-76871569D01*
X110870186Y-76872486D01*
X110857559Y-76873421D01*
X110844952Y-76874375D01*
X110832363Y-76875347D01*
X110819796Y-76876338D01*
X110807247Y-76877347D01*
X110794718Y-76878375D01*
X110782208Y-76879421D01*
X110769718Y-76880485D01*
X110757247Y-76881568D01*
X110744797Y-76882670D01*
X110732365Y-76883789D01*
X110719953Y-76884927D01*
X110707559Y-76886084D01*
X110695186Y-76887258D01*
X110682831Y-76888451D01*
X110670496Y-76889662D01*
X110658180Y-76890891D01*
X110645883Y-76892139D01*
X110633605Y-76893404D01*
X110621347Y-76894688D01*
X110609107Y-76895990D01*
X110596887Y-76897310D01*
X110584685Y-76898648D01*
X110572504Y-76900003D01*
X110560340Y-76901377D01*
X110548196Y-76902769D01*
X110536070Y-76904179D01*
X110523964Y-76905607D01*
X110511876Y-76907052D01*
X110499807Y-76908516D01*
X110487757Y-76909997D01*
X110475726Y-76911496D01*
X110463713Y-76913013D01*
X110451720Y-76914548D01*
X110439744Y-76916100D01*
X110427788Y-76917671D01*
X110415850Y-76919259D01*
X110403932Y-76920864D01*
X110392030Y-76922487D01*
X110380149Y-76924128D01*
X110368285Y-76925787D01*
X110356440Y-76927463D01*
X110344613Y-76929157D01*
X110332806Y-76930868D01*
X110321015Y-76932597D01*
X110309245Y-76934343D01*
X110297491Y-76936107D01*
X110285757Y-76937888D01*
X110274040Y-76939686D01*
X110262343Y-76941502D01*
X110250662Y-76943336D01*
X110239001Y-76945186D01*
X110227357Y-76947055D01*
X110215732Y-76948940D01*
X110204124Y-76950843D01*
X110192536Y-76952763D01*
X110180964Y-76954700D01*
X110169412Y-76956655D01*
X110157876Y-76958627D01*
X110146360Y-76960615D01*
X110134860Y-76962622D01*
X110123380Y-76964645D01*
X110111916Y-76966685D01*
X110100472Y-76968743D01*
X110089043Y-76970818D01*
X110077635Y-76972909D01*
X110066242Y-76975018D01*
X110054869Y-76977144D01*
X110043511Y-76979287D01*
X110032174Y-76981446D01*
X110020852Y-76983623D01*
X110009549Y-76985817D01*
X109998263Y-76988027D01*
X109986996Y-76990255D01*
X109975744Y-76992499D01*
X109964512Y-76994761D01*
X109953296Y-76997039D01*
X109942099Y-76999334D01*
X109930917Y-77001646D01*
X109919755Y-77003974D01*
X109908609Y-77006320D01*
X109897481Y-77008682D01*
X109886370Y-77011061D01*
X109875277Y-77013456D01*
X109864200Y-77015869D01*
X109853142Y-77018298D01*
X109842099Y-77020744D01*
X109831075Y-77023206D01*
X109820067Y-77025685D01*
X109809078Y-77028180D01*
X109798104Y-77030693D01*
X109787149Y-77033221D01*
X109776209Y-77035767D01*
X109765289Y-77038328D01*
X109754383Y-77040907D01*
X109743496Y-77043502D01*
X109732624Y-77046113D01*
X109721772Y-77048741D01*
X109710934Y-77051386D01*
X109700115Y-77054046D01*
X109689311Y-77056724D01*
X109678526Y-77059417D01*
X109667755Y-77062127D01*
X109657004Y-77064853D01*
X109646267Y-77067596D01*
X109635549Y-77070355D01*
X109624845Y-77073131D01*
X109614161Y-77075922D01*
X109603491Y-77078731D01*
X109592840Y-77081555D01*
X109582203Y-77084395D01*
X109571585Y-77087252D01*
X109560981Y-77090125D01*
X109550396Y-77093014D01*
X109539826Y-77095920D01*
X109529274Y-77098841D01*
X109518736Y-77101779D01*
X109508217Y-77104733D01*
X109497712Y-77107704D01*
X109487226Y-77110689D01*
X109476754Y-77113692D01*
X109466301Y-77116710D01*
X109455861Y-77119745D01*
X109445441Y-77122795D01*
X109435034Y-77125862D01*
X109424646Y-77128945D01*
X109414271Y-77132044D01*
X109403916Y-77135158D01*
X109393573Y-77138289D01*
X109383250Y-77141436D01*
X109372940Y-77144599D01*
X109362649Y-77147777D01*
X109352371Y-77150972D01*
X109342112Y-77154182D01*
X109331866Y-77157409D01*
X109321639Y-77160651D01*
X109311426Y-77163910D01*
X109301231Y-77167183D01*
X109291049Y-77170474D01*
X109280886Y-77173779D01*
X109270735Y-77177101D01*
X109260604Y-77180439D01*
X109250485Y-77183792D01*
X109240386Y-77187161D01*
X109220230Y-77193947D01*
X109200138Y-77200796D01*
X109180109Y-77207707D01*
X109160142Y-77214682D01*
X109140237Y-77221720D01*
X109120395Y-77228820D01*
X109100615Y-77235983D01*
X109080896Y-77243209D01*
X109061239Y-77250497D01*
X109041644Y-77257847D01*
X109022109Y-77265260D01*
X109002636Y-77272735D01*
X108983224Y-77280272D01*
X108963873Y-77287871D01*
X108944582Y-77295532D01*
X108925352Y-77303255D01*
X108906181Y-77311041D01*
X108887071Y-77318887D01*
X108868021Y-77326796D01*
X108849030Y-77334767D01*
X108830099Y-77342799D01*
X108811227Y-77350892D01*
X108792415Y-77359047D01*
X108773661Y-77367264D01*
X108754967Y-77375542D01*
X108736331Y-77383881D01*
X108717753Y-77392282D01*
X108699234Y-77400744D01*
X108680774Y-77409267D01*
X108662371Y-77417852D01*
X108644026Y-77426497D01*
X108625739Y-77435204D01*
X108607509Y-77443971D01*
X108589337Y-77452800D01*
X108571222Y-77461690D01*
X108553165Y-77470640D01*
X108535164Y-77479652D01*
X108517220Y-77488724D01*
X108499333Y-77497857D01*
X108481502Y-77507051D01*
X108463728Y-77516306D01*
X108446010Y-77525621D01*
X108428348Y-77534998D01*
X108410742Y-77544435D01*
X108393192Y-77553932D01*
X108375698Y-77563491D01*
X108358259Y-77573110D01*
X108340876Y-77582789D01*
X108323547Y-77592530D01*
X108306274Y-77602331D01*
X108289056Y-77612192D01*
X108271893Y-77622114D01*
X108254785Y-77632097D01*
X108237731Y-77642141D01*
X108220732Y-77652245D01*
X108203787Y-77662409D01*
X108186896Y-77672634D01*
X108170060Y-77682920D01*
X108153277Y-77693267D01*
X108136549Y-77703674D01*
X108119874Y-77714141D01*
X108103253Y-77724669D01*
X108086685Y-77735258D01*
X108070171Y-77745908D01*
X108053710Y-77756618D01*
X108037303Y-77767389D01*
X108020948Y-77778220D01*
X108004647Y-77789112D01*
X107988398Y-77800065D01*
X107972202Y-77811079D01*
X107956059Y-77822153D01*
X107939969Y-77833289D01*
X107923930Y-77844484D01*
X107907945Y-77855741D01*
X107892012Y-77867059D01*
X107876130Y-77878437D01*
X107860301Y-77889877D01*
X107844524Y-77901377D01*
X107828799Y-77912939D01*
X107813126Y-77924561D01*
X107797505Y-77936244D01*
X107781935Y-77947989D01*
X107766417Y-77959795D01*
X107750950Y-77971661D01*
X107735535Y-77983589D01*
X107720171Y-77995578D01*
X107704859Y-78007629D01*
X107689598Y-78019741D01*
X107674388Y-78031914D01*
X107659229Y-78044148D01*
X107644121Y-78056444D01*
X107629064Y-78068802D01*
X107614057Y-78081221D01*
X107599102Y-78093702D01*
X107584197Y-78106244D01*
X107569344Y-78118848D01*
X107554540Y-78131514D01*
X107539788Y-78144242D01*
X107525086Y-78157031D01*
X107510434Y-78169882D01*
X107495833Y-78182796D01*
X107481282Y-78195771D01*
X107466782Y-78208809D01*
X107452332Y-78221909D01*
X107437932Y-78235071D01*
X107423582Y-78248295D01*
X107409283Y-78261582D01*
X107395033Y-78274931D01*
X107380834Y-78288342D01*
X107366685Y-78301816D01*
X107352586Y-78315353D01*
X107338537Y-78328952D01*
X107324538Y-78342614D01*
X107310589Y-78356339D01*
X107296690Y-78370127D01*
X107282841Y-78383977D01*
X107269042Y-78397891D01*
X107255293Y-78411868D01*
X107241593Y-78425908D01*
X107227944Y-78440011D01*
X107214344Y-78454178D01*
X107200794Y-78468407D01*
X107187294Y-78482701D01*
X107173844Y-78497058D01*
X107160444Y-78511478D01*
X107147093Y-78525962D01*
X107133793Y-78540510D01*
X107120542Y-78555121D01*
X107107341Y-78569797D01*
X107094190Y-78584536D01*
X107081089Y-78599340D01*
X107068038Y-78614207D01*
X107055037Y-78629139D01*
X107042086Y-78644135D01*
X107029184Y-78659195D01*
X107016333Y-78674320D01*
X107003532Y-78689509D01*
X106990780Y-78704763D01*
X106978079Y-78720081D01*
X106965428Y-78735464D01*
X106952826Y-78750912D01*
X106940276Y-78766424D01*
X106927775Y-78782002D01*
X106915324Y-78797644D01*
X106902924Y-78813352D01*
X106890574Y-78829125D01*
X106878274Y-78844962D01*
X106866025Y-78860865D01*
X106853826Y-78876834D01*
X106841678Y-78892868D01*
X106829580Y-78908967D01*
X106817533Y-78925132D01*
X106805537Y-78941362D01*
X106793591Y-78957658D01*
X106781697Y-78974020D01*
X106769853Y-78990447D01*
X106758060Y-79006941D01*
X106746318Y-79023500D01*
X106734627Y-79040125D01*
X106722987Y-79056816D01*
X106711399Y-79073573D01*
X106699862Y-79090397D01*
X106688376Y-79107286D01*
X106676942Y-79124242D01*
X106665559Y-79141264D01*
X106654228Y-79158352D01*
X106642949Y-79175507D01*
X106631722Y-79192728D01*
X106620546Y-79210016D01*
X106609423Y-79227370D01*
X106598352Y-79244790D01*
X106587333Y-79262277D01*
X106576367Y-79279831D01*
X106565453Y-79297451D01*
X106554591Y-79315138D01*
X106543783Y-79332891D01*
X106533027Y-79350712D01*
X106522324Y-79368599D01*
X106511674Y-79386552D01*
X106501078Y-79404573D01*
X106490534Y-79422660D01*
X106480044Y-79440814D01*
X106469608Y-79459034D01*
X106459226Y-79477322D01*
X106448897Y-79495676D01*
X106438623Y-79514097D01*
X106428402Y-79532584D01*
X106418236Y-79551138D01*
X106408124Y-79569759D01*
X106398067Y-79588447D01*
X106388065Y-79607201D01*
X106378117Y-79626022D01*
X106368225Y-79644909D01*
X106358388Y-79663863D01*
X106348606Y-79682883D01*
X106338880Y-79701970D01*
X106329209Y-79721123D01*
X106319595Y-79740342D01*
X106310036Y-79759628D01*
X106300534Y-79778979D01*
X106291088Y-79798397D01*
X106281699Y-79817880D01*
X106272366Y-79837430D01*
X106263091Y-79857045D01*
X106253873Y-79876726D01*
X106244712Y-79896472D01*
X106235608Y-79916284D01*
X106226563Y-79936161D01*
X106217575Y-79956103D01*
X106208646Y-79976110D01*
X106199775Y-79996182D01*
X106190963Y-80016319D01*
X106182209Y-80036520D01*
X106173515Y-80056785D01*
X106164879Y-80077115D01*
X106156303Y-80097508D01*
X106147787Y-80117965D01*
X106139331Y-80138486D01*
X106130935Y-80159070D01*
X106122600Y-80179716D01*
X106114325Y-80200426D01*
X106106111Y-80221198D01*
X106097958Y-80242032D01*
X106089866Y-80262928D01*
X106081836Y-80283885D01*
X106073868Y-80304904D01*
X106065962Y-80325983D01*
X106058119Y-80347124D01*
X106050338Y-80368324D01*
X106042620Y-80389584D01*
X106034965Y-80410904D01*
X106027374Y-80432282D01*
X106019846Y-80453719D01*
X106012383Y-80475214D01*
X106004984Y-80496767D01*
X105997649Y-80518377D01*
X105990380Y-80540044D01*
X105983175Y-80561766D01*
X105976036Y-80583545D01*
X105968963Y-80605378D01*
X105961956Y-80627265D01*
X105955015Y-80649207D01*
X105948141Y-80671201D01*
X105941334Y-80693248D01*
X105934594Y-80715347D01*
X105927922Y-80737497D01*
X105921318Y-80759697D01*
X105914782Y-80781946D01*
X105908315Y-80804244D01*
X105901917Y-80826590D01*
X105895588Y-80848983D01*
X105889329Y-80871422D01*
X105883139Y-80893906D01*
X105877021Y-80916434D01*
X105870973Y-80939006D01*
X105864996Y-80961619D01*
X105859090Y-80984273D01*
X105853256Y-81006967D01*
X105847495Y-81029699D01*
X105841806Y-81052469D01*
X105836190Y-81075274D01*
X105830647Y-81098114D01*
X105825178Y-81120987D01*
X105819784Y-81143892D01*
X105814463Y-81166827D01*
X105809218Y-81189790D01*
X105804048Y-81212781D01*
X105798954Y-81235796D01*
X105793936Y-81258835D01*
X105788994Y-81281895D01*
X105784130Y-81304974D01*
X105779343Y-81328071D01*
X105774634Y-81351183D01*
X105770003Y-81374307D01*
X105765451Y-81397442D01*
X105760979Y-81420586D01*
X105756586Y-81443734D01*
X105752273Y-81466885D01*
X105748041Y-81490037D01*
X105743890Y-81513184D01*
X105739820Y-81536326D01*
X105735833Y-81559458D01*
X105731928Y-81582577D01*
X105728107Y-81605679D01*
X105724369Y-81628761D01*
X105720715Y-81651818D01*
X105717146Y-81674846D01*
X105713662Y-81697841D01*
X105710263Y-81720797D01*
X105706951Y-81743711D01*
X105703726Y-81766575D01*
X105700588Y-81789386D01*
X105697538Y-81812136D01*
X105694576Y-81834819D01*
X105691704Y-81857429D01*
X105688921Y-81879958D01*
X105686229Y-81902398D01*
X105683627Y-81924741D01*
X105681117Y-81946978D01*
X105678699Y-81969099D01*
X105676373Y-81991094D01*
X105674141Y-82012951D01*
X105672003Y-82034658D01*
X105669960Y-82056202D01*
X105668012Y-82077568D01*
X105666160Y-82098741D01*
X105664405Y-82119701D01*
X105662747Y-82140430D01*
X105661188Y-82160905D01*
X105659727Y-82181103D01*
X105658366Y-82200995D01*
X105657105Y-82220550D01*
X105655945Y-82239732D01*
X105654887Y-82258497D01*
X105653931Y-82276797D01*
X105653079Y-82294572D01*
X105652330Y-82311749D01*
X105651686Y-82328236D01*
X105651146Y-82343916D01*
X105650712Y-82358629D01*
X105650383Y-82372147D01*
X105650158Y-82384110D01*
X105650035Y-82393857D01*
X105650000Y-82400000D01*
D10*
X105650000Y-82400000D02*
X105675000Y-102450000D01*
D11*
X151687500Y-81537500D02*
X151687477Y-81526899D01*
X151687434Y-81516314D01*
X151687370Y-81505745D01*
X151687288Y-81495192D01*
X151687185Y-81484654D01*
X151687062Y-81474133D01*
X151686919Y-81463627D01*
X151686757Y-81453137D01*
X151686575Y-81442663D01*
X151686374Y-81432205D01*
X151686152Y-81421762D01*
X151685911Y-81411335D01*
X151685650Y-81400924D01*
X151685370Y-81390528D01*
X151685070Y-81380148D01*
X151684751Y-81369784D01*
X151684412Y-81359434D01*
X151684054Y-81349101D01*
X151683676Y-81338783D01*
X151683278Y-81328480D01*
X151682862Y-81318193D01*
X151682426Y-81307921D01*
X151681970Y-81297665D01*
X151681495Y-81287424D01*
X151681001Y-81277197D01*
X151680488Y-81266987D01*
X151679955Y-81256791D01*
X151679404Y-81246611D01*
X151678833Y-81236446D01*
X151678243Y-81226296D01*
X151677633Y-81216161D01*
X151677005Y-81206041D01*
X151676357Y-81195936D01*
X151675691Y-81185847D01*
X151675005Y-81175772D01*
X151674301Y-81165712D01*
X151673577Y-81155667D01*
X151672835Y-81145637D01*
X151672073Y-81135622D01*
X151671293Y-81125622D01*
X151670493Y-81115636D01*
X151669675Y-81105666D01*
X151668838Y-81095709D01*
X151667982Y-81085769D01*
X151667108Y-81075842D01*
X151666215Y-81065930D01*
X151665302Y-81056032D01*
X151664372Y-81046150D01*
X151663422Y-81036281D01*
X151662454Y-81026428D01*
X151661467Y-81016589D01*
X151660461Y-81006765D01*
X151659437Y-80996954D01*
X151658395Y-80987159D01*
X151657333Y-80977377D01*
X151656254Y-80967610D01*
X151655155Y-80957857D01*
X151654038Y-80948119D01*
X151652903Y-80938395D01*
X151651749Y-80928685D01*
X151650577Y-80918989D01*
X151649387Y-80909308D01*
X151648178Y-80899641D01*
X151646950Y-80889988D01*
X151645704Y-80880349D01*
X151644440Y-80870724D01*
X151643158Y-80861113D01*
X151641858Y-80851517D01*
X151640539Y-80841933D01*
X151639201Y-80832365D01*
X151637846Y-80822809D01*
X151636472Y-80813269D01*
X151635081Y-80803741D01*
X151633671Y-80794228D01*
X151632242Y-80784728D01*
X151630796Y-80775243D01*
X151629332Y-80765770D01*
X151627850Y-80756313D01*
X151626349Y-80746868D01*
X151624830Y-80737437D01*
X151623294Y-80728020D01*
X151621739Y-80718617D01*
X151620166Y-80709226D01*
X151618576Y-80699850D01*
X151616967Y-80690487D01*
X151615341Y-80681138D01*
X151613696Y-80671802D01*
X151612034Y-80662480D01*
X151610353Y-80653170D01*
X151608655Y-80643876D01*
X151606939Y-80634593D01*
X151605205Y-80625325D01*
X151603453Y-80616068D01*
X151601684Y-80606827D01*
X151599896Y-80597597D01*
X151598091Y-80588383D01*
X151596268Y-80579179D01*
X151594428Y-80569991D01*
X151592569Y-80560814D01*
X151590693Y-80551652D01*
X151588799Y-80542501D01*
X151586887Y-80533365D01*
X151584958Y-80524240D01*
X151583011Y-80515131D01*
X151581046Y-80506032D01*
X151579064Y-80496948D01*
X151577064Y-80487875D01*
X151575047Y-80478818D01*
X151573012Y-80469771D01*
X151570959Y-80460739D01*
X151568889Y-80451717D01*
X151566801Y-80442711D01*
X151564696Y-80433715D01*
X151562573Y-80424734D01*
X151560433Y-80415764D01*
X151558275Y-80406809D01*
X151556099Y-80397864D01*
X151553907Y-80388934D01*
X151551696Y-80380014D01*
X151549469Y-80371110D01*
X151547223Y-80362215D01*
X151544961Y-80353336D01*
X151542680Y-80344467D01*
X151540383Y-80335612D01*
X151535736Y-80317938D01*
X151531019Y-80300314D01*
X151526233Y-80282740D01*
X151521377Y-80265214D01*
X151516452Y-80247738D01*
X151511458Y-80230311D01*
X151506395Y-80212932D01*
X151501263Y-80195602D01*
X151496061Y-80178321D01*
X151490791Y-80161087D01*
X151485452Y-80143902D01*
X151480044Y-80126764D01*
X151474567Y-80109674D01*
X151469022Y-80092631D01*
X151463408Y-80075636D01*
X151457725Y-80058687D01*
X151451974Y-80041785D01*
X151446154Y-80024930D01*
X151440266Y-80008122D01*
X151434310Y-79991359D01*
X151428285Y-79974643D01*
X151422191Y-79957973D01*
X151416029Y-79941348D01*
X151409799Y-79924769D01*
X151403501Y-79908236D01*
X151397134Y-79891747D01*
X151390700Y-79875304D01*
X151384196Y-79858905D01*
X151377625Y-79842552D01*
X151370986Y-79826242D01*
X151364278Y-79809978D01*
X151357502Y-79793757D01*
X151350658Y-79777580D01*
X151343746Y-79761448D01*
X151336765Y-79745359D01*
X151329717Y-79729313D01*
X151322600Y-79713311D01*
X151315415Y-79697352D01*
X151308162Y-79681437D01*
X151300840Y-79665564D01*
X151293450Y-79649734D01*
X151285992Y-79633946D01*
X151278466Y-79618201D01*
X151270872Y-79602499D01*
X151263209Y-79586838D01*
X151255477Y-79571220D01*
X151247678Y-79555644D01*
X151239809Y-79540109D01*
X151231873Y-79524616D01*
X151223868Y-79509164D01*
X151215794Y-79493754D01*
X151207652Y-79478385D01*
X151199441Y-79463057D01*
X151191161Y-79447770D01*
X151182813Y-79432524D01*
X151174395Y-79417318D01*
X151165909Y-79402153D01*
X151157354Y-79387029D01*
X151148730Y-79371945D01*
X151140037Y-79356901D01*
X151131275Y-79341897D01*
X151122444Y-79326933D01*
X151113543Y-79312008D01*
X151104573Y-79297124D01*
X151095534Y-79282279D01*
X151086425Y-79267474D01*
X151077246Y-79252708D01*
X151067998Y-79237981D01*
X151058680Y-79223293D01*
X151049293Y-79208645D01*
X151039835Y-79194036D01*
X151030307Y-79179465D01*
X151020710Y-79164933D01*
X151011042Y-79150440D01*
X151001303Y-79135985D01*
X150991495Y-79121569D01*
X150981616Y-79107191D01*
X150971666Y-79092852D01*
X150961645Y-79078551D01*
X150951554Y-79064288D01*
X150941392Y-79050063D01*
X150931158Y-79035875D01*
X150920854Y-79021726D01*
X150910478Y-79007615D01*
X150900031Y-78993541D01*
X150889512Y-78979505D01*
X150878922Y-78965507D01*
X150868260Y-78951546D01*
X150857525Y-78937623D01*
X150846719Y-78923737D01*
X150835841Y-78909888D01*
X150824890Y-78896077D01*
X150813867Y-78882303D01*
X150802771Y-78868566D01*
X150791603Y-78854866D01*
X150780362Y-78841203D01*
X150769047Y-78827577D01*
X150757660Y-78813988D01*
X150746199Y-78800436D01*
X150734665Y-78786921D01*
X150723057Y-78773443D01*
X150711375Y-78760001D01*
X150699620Y-78746596D01*
X150687790Y-78733228D01*
X150675886Y-78719897D01*
X150663908Y-78706602D01*
X150651855Y-78693344D01*
X150639728Y-78680122D01*
X150627525Y-78666937D01*
X150615248Y-78653789D01*
X150602895Y-78640677D01*
X150590467Y-78627601D01*
X150577964Y-78614562D01*
X150565384Y-78601560D01*
X150552729Y-78588593D01*
X150539998Y-78575664D01*
X150527191Y-78562771D01*
X150514307Y-78549914D01*
X150501346Y-78537093D01*
X150488309Y-78524310D01*
X150475195Y-78511562D01*
X150462004Y-78498851D01*
X150448735Y-78486176D01*
X150435389Y-78473538D01*
X150421965Y-78460936D01*
X150408463Y-78448371D01*
X150394884Y-78435842D01*
X150381226Y-78423350D01*
X150367490Y-78410895D01*
X150353675Y-78398475D01*
X150339781Y-78386093D01*
X150325808Y-78373747D01*
X150311756Y-78361438D01*
X150297625Y-78349165D01*
X150283414Y-78336929D01*
X150269123Y-78324730D01*
X150254753Y-78312567D01*
X150240302Y-78300441D01*
X150225771Y-78288353D01*
X150211159Y-78276301D01*
X150196467Y-78264286D01*
X150181694Y-78252308D01*
X150166839Y-78240367D01*
X150151904Y-78228463D01*
X150136886Y-78216597D01*
X150121787Y-78204767D01*
X150106606Y-78192975D01*
X150091343Y-78181220D01*
X150075998Y-78169503D01*
X150060570Y-78157823D01*
X150045060Y-78146181D01*
X150029466Y-78134576D01*
X150013790Y-78123009D01*
X149998030Y-78111480D01*
X149982186Y-78099989D01*
X149966259Y-78088536D01*
X149950248Y-78077120D01*
X149934153Y-78065743D01*
X149917974Y-78054404D01*
X149901710Y-78043104D01*
X149885362Y-78031842D01*
X149868929Y-78020618D01*
X149852410Y-78009433D01*
X149835806Y-77998287D01*
X149819117Y-77987179D01*
X149802343Y-77976111D01*
X149785482Y-77965081D01*
X149768535Y-77954091D01*
X149751503Y-77943140D01*
X149734383Y-77932228D01*
X149717178Y-77921356D01*
X149699885Y-77910524D01*
X149682506Y-77899731D01*
X149665039Y-77888978D01*
X149647485Y-77878265D01*
X149629844Y-77867592D01*
X149612115Y-77856960D01*
X149594298Y-77846368D01*
X149576393Y-77835817D01*
X149558400Y-77825306D01*
X149540319Y-77814836D01*
X149522149Y-77804407D01*
X149503890Y-77794020D01*
X149485543Y-77783673D01*
X149467106Y-77773369D01*
X149448581Y-77763105D01*
X149429966Y-77752884D01*
X149411262Y-77742705D01*
X149392468Y-77732567D01*
X149373584Y-77722472D01*
X149354610Y-77712420D01*
X149335547Y-77702410D01*
X149316393Y-77692442D01*
X149297149Y-77682518D01*
X149277814Y-77672637D01*
X149258389Y-77662800D01*
X149238874Y-77653006D01*
X149219267Y-77643256D01*
X149199569Y-77633549D01*
X149179781Y-77623887D01*
X149159901Y-77614269D01*
X149139930Y-77604696D01*
X149119868Y-77595167D01*
X149099715Y-77585683D01*
X149079469Y-77576245D01*
X149059133Y-77566852D01*
X149038704Y-77557504D01*
X149018184Y-77548202D01*
X148997572Y-77538946D01*
X148976869Y-77529737D01*
X148956073Y-77520573D01*
X148935186Y-77511457D01*
X148914206Y-77502387D01*
X148893134Y-77493365D01*
X148871971Y-77484390D01*
X148850715Y-77475463D01*
X148829367Y-77466583D01*
X148807927Y-77457752D01*
X148786396Y-77448969D01*
X148764772Y-77440234D01*
X148743056Y-77431549D01*
X148721248Y-77422912D01*
X148699348Y-77414325D01*
X148677356Y-77405788D01*
X148655272Y-77397300D01*
X148633096Y-77388863D01*
X148610829Y-77380476D01*
X148588470Y-77372140D01*
X148566019Y-77363854D01*
X148543478Y-77355620D01*
X148520844Y-77347438D01*
X148498120Y-77339307D01*
X148475304Y-77331229D01*
X148452398Y-77323203D01*
X148429401Y-77315229D01*
X148406314Y-77307309D01*
X148383136Y-77299442D01*
X148359868Y-77291629D01*
X148336510Y-77283869D01*
X148313063Y-77276164D01*
X148289526Y-77268513D01*
X148265900Y-77260917D01*
X148242185Y-77253377D01*
X148218382Y-77245891D01*
X148194491Y-77238462D01*
X148170511Y-77231089D01*
X148146445Y-77223772D01*
X148122291Y-77216512D01*
X148098051Y-77209309D01*
X148073724Y-77202164D01*
X148049312Y-77195077D01*
X148024814Y-77188048D01*
X148000232Y-77181077D01*
X147975565Y-77174165D01*
X147950815Y-77167313D01*
X147925981Y-77160520D01*
X147901065Y-77153787D01*
X147876067Y-77147115D01*
X147850988Y-77140503D01*
X147825829Y-77133952D01*
X147800589Y-77127463D01*
X147775271Y-77121036D01*
X147749874Y-77114671D01*
X147724400Y-77108369D01*
X147698849Y-77102130D01*
X147673223Y-77095954D01*
X147647522Y-77089842D01*
X147621747Y-77083795D01*
X147595900Y-77077812D01*
X147569981Y-77071894D01*
X147543992Y-77066042D01*
X147517934Y-77060255D01*
X147491807Y-77054535D01*
X147465614Y-77048882D01*
X147439356Y-77043296D01*
X147413033Y-77037778D01*
X147386649Y-77032328D01*
X147360203Y-77026947D01*
X147333698Y-77021635D01*
X147307136Y-77016392D01*
X147280517Y-77011219D01*
X147253845Y-77006116D01*
X147227121Y-77001085D01*
X147200346Y-76996125D01*
X147173524Y-76991237D01*
X147146656Y-76986421D01*
X147119744Y-76981678D01*
X147092792Y-76977008D01*
X147065801Y-76972413D01*
X147038774Y-76967891D01*
X147011714Y-76963445D01*
X146984624Y-76959074D01*
X146957507Y-76954779D01*
X146930366Y-76950560D01*
X146903205Y-76946419D01*
X146876026Y-76942355D01*
X146848835Y-76938369D01*
X146821634Y-76934462D01*
X146794428Y-76930634D01*
X146767222Y-76926887D01*
X146740019Y-76923219D01*
X146712825Y-76919632D01*
X146685645Y-76916128D01*
X146658484Y-76912705D01*
X146631348Y-76909365D01*
X146604243Y-76906108D01*
X146577176Y-76902936D01*
X146550154Y-76899848D01*
X146523183Y-76896846D01*
X146496272Y-76893929D01*
X146469429Y-76891099D01*
X146442663Y-76888357D01*
X146415983Y-76885702D01*
X146389401Y-76883136D01*
X146362926Y-76880660D01*
X146336571Y-76878273D01*
X146310349Y-76875978D01*
X146284273Y-76873774D01*
X146258359Y-76871662D01*
X146232624Y-76869643D01*
X146207085Y-76867718D01*
X146181763Y-76865888D01*
X146156680Y-76864153D01*
X146131861Y-76862514D01*
X146107332Y-76860972D01*
X146083125Y-76859527D01*
X146059274Y-76858182D01*
X146035821Y-76856936D01*
X146012810Y-76855790D01*
X145990297Y-76854746D01*
X145968343Y-76853803D01*
X145947028Y-76852964D01*
X145926445Y-76852228D01*
X145906714Y-76851597D01*
X145887992Y-76851071D01*
X145870493Y-76850651D01*
X145854533Y-76850337D01*
X145840626Y-76850128D01*
X145829784Y-76850021D01*
X145825000Y-76850000D01*
D10*
X111500000Y-76850000D02*
X145825000Y-76850000D01*
D11*
X145950000Y-108200983D02*
X145962237Y-108200982D01*
X145974457Y-108200962D01*
X145986660Y-108200921D01*
X145998845Y-108200860D01*
X146011014Y-108200780D01*
X146023164Y-108200679D01*
X146035298Y-108200559D01*
X146047415Y-108200419D01*
X146059514Y-108200259D01*
X146071596Y-108200080D01*
X146083662Y-108199880D01*
X146095710Y-108199661D01*
X146107741Y-108199423D01*
X146119755Y-108199164D01*
X146131752Y-108198886D01*
X146143732Y-108198589D01*
X146155695Y-108198272D01*
X146167642Y-108197935D01*
X146179571Y-108197579D01*
X146191484Y-108197203D01*
X146203380Y-108196808D01*
X146215259Y-108196393D01*
X146227121Y-108195959D01*
X146238967Y-108195506D01*
X146250796Y-108195033D01*
X146262608Y-108194541D01*
X146274404Y-108194029D01*
X146286182Y-108193499D01*
X146297945Y-108192949D01*
X146309691Y-108192379D01*
X146321420Y-108191791D01*
X146333133Y-108191183D01*
X146344830Y-108190557D01*
X146356509Y-108189911D01*
X146368173Y-108189246D01*
X146379820Y-108188562D01*
X146391451Y-108187859D01*
X146403065Y-108187137D01*
X146414664Y-108186395D01*
X146426245Y-108185635D01*
X146437811Y-108184856D01*
X146449360Y-108184058D01*
X146460894Y-108183241D01*
X146472410Y-108182405D01*
X146483912Y-108181550D01*
X146495396Y-108180677D01*
X146506865Y-108179784D01*
X146518318Y-108178873D01*
X146529755Y-108177943D01*
X146541175Y-108176995D01*
X146552580Y-108176027D01*
X146563968Y-108175041D01*
X146575341Y-108174036D01*
X146586698Y-108173013D01*
X146598039Y-108171971D01*
X146609364Y-108170910D01*
X146620674Y-108169831D01*
X146631967Y-108168733D01*
X146643245Y-108167616D01*
X146654507Y-108166481D01*
X146665754Y-108165328D01*
X146676984Y-108164156D01*
X146688200Y-108162966D01*
X146699399Y-108161757D01*
X146710583Y-108160529D01*
X146721751Y-108159284D01*
X146732904Y-108158020D01*
X146744041Y-108156737D01*
X146755163Y-108155437D01*
X146766269Y-108154118D01*
X146777361Y-108152780D01*
X146788435Y-108151425D01*
X146799496Y-108150051D01*
X146810540Y-108148659D01*
X146821570Y-108147249D01*
X146832584Y-108145820D01*
X146843583Y-108144373D01*
X146854566Y-108142909D01*
X146865535Y-108141426D01*
X146876488Y-108139925D01*
X146887426Y-108138406D01*
X146898349Y-108136868D01*
X146909257Y-108135313D01*
X146920149Y-108133740D01*
X146931027Y-108132149D01*
X146941889Y-108130539D01*
X146952737Y-108128912D01*
X146963569Y-108127267D01*
X146974388Y-108125604D01*
X146985189Y-108123923D01*
X146995978Y-108122223D01*
X147006750Y-108120507D01*
X147017509Y-108118772D01*
X147028251Y-108117019D01*
X147038980Y-108115249D01*
X147049693Y-108113461D01*
X147060393Y-108111655D01*
X147071076Y-108109831D01*
X147081746Y-108107989D01*
X147092400Y-108106130D01*
X147103041Y-108104253D01*
X147113666Y-108102358D01*
X147124278Y-108100445D01*
X147134873Y-108098516D01*
X147145456Y-108096568D01*
X147156022Y-108094602D01*
X147166576Y-108092619D01*
X147177113Y-108090618D01*
X147187638Y-108088600D01*
X147198146Y-108086564D01*
X147208642Y-108084511D01*
X147219121Y-108082440D01*
X147229589Y-108080351D01*
X147240040Y-108078245D01*
X147250478Y-108076122D01*
X147260901Y-108073981D01*
X147271311Y-108071822D01*
X147281705Y-108069646D01*
X147292086Y-108067453D01*
X147302452Y-108065242D01*
X147312805Y-108063014D01*
X147323142Y-108060768D01*
X147333467Y-108058505D01*
X147343776Y-108056225D01*
X147354073Y-108053927D01*
X147364354Y-108051612D01*
X147374623Y-108049279D01*
X147384876Y-108046930D01*
X147395117Y-108044563D01*
X147405342Y-108042178D01*
X147415556Y-108039777D01*
X147425753Y-108037358D01*
X147435938Y-108034922D01*
X147446108Y-108032469D01*
X147456266Y-108029998D01*
X147466408Y-108027510D01*
X147476538Y-108025005D01*
X147486652Y-108022483D01*
X147496755Y-108019943D01*
X147506842Y-108017387D01*
X147516918Y-108014813D01*
X147526978Y-108012223D01*
X147537026Y-108009614D01*
X147547058Y-108006990D01*
X147557080Y-108004347D01*
X147567085Y-108001688D01*
X147577079Y-107999012D01*
X147587057Y-107996319D01*
X147597024Y-107993608D01*
X147606976Y-107990881D01*
X147616916Y-107988136D01*
X147626840Y-107985375D01*
X147646651Y-107979801D01*
X147666409Y-107974158D01*
X147686114Y-107968448D01*
X147705765Y-107962671D01*
X147725364Y-107956825D01*
X147744910Y-107950912D01*
X147764404Y-107944931D01*
X147783845Y-107938883D01*
X147803234Y-107932767D01*
X147822572Y-107926584D01*
X147841857Y-107920333D01*
X147861091Y-107914015D01*
X147880274Y-107907630D01*
X147899405Y-107901178D01*
X147918486Y-107894659D01*
X147937515Y-107888072D01*
X147956494Y-107881419D01*
X147975422Y-107874699D01*
X147994299Y-107867912D01*
X148013127Y-107861058D01*
X148031904Y-107854137D01*
X148050632Y-107847150D01*
X148069310Y-107840095D01*
X148087938Y-107832974D01*
X148106517Y-107825787D01*
X148125047Y-107818533D01*
X148143527Y-107811212D01*
X148161959Y-107803825D01*
X148180342Y-107796371D01*
X148198676Y-107788850D01*
X148216962Y-107781264D01*
X148235199Y-107773610D01*
X148253388Y-107765891D01*
X148271530Y-107758104D01*
X148289623Y-107750252D01*
X148307669Y-107742333D01*
X148325667Y-107734348D01*
X148343618Y-107726296D01*
X148361521Y-107718178D01*
X148379378Y-107709994D01*
X148397187Y-107701743D01*
X148414950Y-107693426D01*
X148432666Y-107685042D01*
X148450335Y-107676592D01*
X148467958Y-107668076D01*
X148485534Y-107659494D01*
X148503065Y-107650845D01*
X148520549Y-107642129D01*
X148537988Y-107633348D01*
X148555381Y-107624500D01*
X148572728Y-107615585D01*
X148590030Y-107606604D01*
X148607286Y-107597556D01*
X148624497Y-107588442D01*
X148641663Y-107579262D01*
X148658784Y-107570015D01*
X148675861Y-107560701D01*
X148692892Y-107551321D01*
X148709879Y-107541874D01*
X148726821Y-107532361D01*
X148743719Y-107522780D01*
X148760573Y-107513133D01*
X148777382Y-107503420D01*
X148794148Y-107493639D01*
X148810869Y-107483792D01*
X148827547Y-107473877D01*
X148844181Y-107463896D01*
X148860771Y-107453848D01*
X148877318Y-107443732D01*
X148893821Y-107433550D01*
X148910282Y-107423300D01*
X148926698Y-107412983D01*
X148943072Y-107402599D01*
X148959403Y-107392148D01*
X148975691Y-107381629D01*
X148991936Y-107371042D01*
X149008139Y-107360389D01*
X149024298Y-107349667D01*
X149040416Y-107338878D01*
X149056490Y-107328021D01*
X149072523Y-107317097D01*
X149088513Y-107306104D01*
X149104461Y-107295044D01*
X149120367Y-107283915D01*
X149136231Y-107272719D01*
X149152053Y-107261454D01*
X149167833Y-107250121D01*
X149183571Y-107238719D01*
X149199267Y-107227250D01*
X149214922Y-107215711D01*
X149230535Y-107204104D01*
X149246107Y-107192429D01*
X149261637Y-107180684D01*
X149277126Y-107168871D01*
X149292574Y-107156989D01*
X149307980Y-107145037D01*
X149323345Y-107133017D01*
X149338670Y-107120927D01*
X149353953Y-107108768D01*
X149369195Y-107096540D01*
X149384396Y-107084241D01*
X149399556Y-107071874D01*
X149414675Y-107059436D01*
X149429753Y-107046929D01*
X149444791Y-107034351D01*
X149459788Y-107021704D01*
X149474744Y-107008986D01*
X149489660Y-106996198D01*
X149504535Y-106983339D01*
X149519370Y-106970410D01*
X149534164Y-106957410D01*
X149548917Y-106944340D01*
X149563630Y-106931198D01*
X149578303Y-106917986D01*
X149592935Y-106904702D01*
X149607527Y-106891348D01*
X149622079Y-106877921D01*
X149636590Y-106864424D01*
X149651061Y-106850854D01*
X149665492Y-106837213D01*
X149679882Y-106823500D01*
X149694233Y-106809715D01*
X149708543Y-106795858D01*
X149722813Y-106781928D01*
X149737042Y-106767927D01*
X149751232Y-106753852D01*
X149765381Y-106739705D01*
X149779490Y-106725485D01*
X149793559Y-106711192D01*
X149807588Y-106696826D01*
X149821577Y-106682387D01*
X149835525Y-106667875D01*
X149849434Y-106653289D01*
X149863302Y-106638629D01*
X149877130Y-106623896D01*
X149890918Y-106609089D01*
X149904665Y-106594207D01*
X149918373Y-106579252D01*
X149932040Y-106564222D01*
X149945667Y-106549118D01*
X149959253Y-106533939D01*
X149972800Y-106518685D01*
X149986306Y-106503356D01*
X149999771Y-106487953D01*
X150013197Y-106472474D01*
X150026582Y-106456920D01*
X150039926Y-106441290D01*
X150053230Y-106425585D01*
X150066494Y-106409804D01*
X150079717Y-106393947D01*
X150092899Y-106378014D01*
X150106041Y-106362004D01*
X150119142Y-106345919D01*
X150132203Y-106329757D01*
X150145222Y-106313518D01*
X150158201Y-106297202D01*
X150171139Y-106280809D01*
X150184037Y-106264340D01*
X150196893Y-106247793D01*
X150209708Y-106231168D01*
X150222482Y-106214467D01*
X150235215Y-106197687D01*
X150247907Y-106180830D01*
X150260558Y-106163894D01*
X150273167Y-106146881D01*
X150285735Y-106129789D01*
X150298261Y-106112619D01*
X150310746Y-106095370D01*
X150323189Y-106078042D01*
X150335591Y-106060636D01*
X150347950Y-106043150D01*
X150360268Y-106025586D01*
X150372544Y-106007942D01*
X150384778Y-105990219D01*
X150396970Y-105972416D01*
X150409120Y-105954534D01*
X150421227Y-105936571D01*
X150433292Y-105918529D01*
X150445314Y-105900406D01*
X150457294Y-105882204D01*
X150469231Y-105863921D01*
X150481125Y-105845557D01*
X150492977Y-105827113D01*
X150504785Y-105808588D01*
X150516550Y-105789982D01*
X150528272Y-105771295D01*
X150539951Y-105752526D01*
X150551586Y-105733677D01*
X150563178Y-105714746D01*
X150574726Y-105695733D01*
X150586230Y-105676639D01*
X150597690Y-105657463D01*
X150609107Y-105638206D01*
X150620478Y-105618866D01*
X150631806Y-105599444D01*
X150643089Y-105579940D01*
X150654328Y-105560353D01*
X150665522Y-105540684D01*
X150676670Y-105520932D01*
X150687774Y-105501098D01*
X150698833Y-105481181D01*
X150709847Y-105461181D01*
X150720814Y-105441098D01*
X150731737Y-105420933D01*
X150742613Y-105400684D01*
X150753444Y-105380352D01*
X150764229Y-105359936D01*
X150774967Y-105339437D01*
X150785659Y-105318855D01*
X150796304Y-105298189D01*
X150806903Y-105277440D01*
X150817455Y-105256607D01*
X150827959Y-105235690D01*
X150838417Y-105214689D01*
X150848827Y-105193605D01*
X150859189Y-105172437D01*
X150869504Y-105151185D01*
X150879770Y-105129849D01*
X150889989Y-105108429D01*
X150900159Y-105086924D01*
X150910280Y-105065336D01*
X150920353Y-105043664D01*
X150930377Y-105021908D01*
X150940352Y-105000067D01*
X150950277Y-104978143D01*
X150960153Y-104956134D01*
X150969980Y-104934041D01*
X150979756Y-104911865D01*
X150989482Y-104889604D01*
X150999158Y-104867259D01*
X151008783Y-104844830D01*
X151018358Y-104822317D01*
X151027881Y-104799720D01*
X151037353Y-104777039D01*
X151046774Y-104754274D01*
X151056143Y-104731426D01*
X151065460Y-104708494D01*
X151074726Y-104685478D01*
X151083938Y-104662379D01*
X151093098Y-104639196D01*
X151102206Y-104615930D01*
X151111260Y-104592581D01*
X151120261Y-104569149D01*
X151129208Y-104545634D01*
X151138101Y-104522036D01*
X151146941Y-104498355D01*
X151155726Y-104474592D01*
X151164456Y-104450746D01*
X151173132Y-104426818D01*
X151181752Y-104402809D01*
X151190317Y-104378718D01*
X151198826Y-104354545D01*
X151207280Y-104330291D01*
X151215677Y-104305955D01*
X151224018Y-104281540D01*
X151232302Y-104257043D01*
X151240529Y-104232466D01*
X151248699Y-104207810D01*
X151256811Y-104183074D01*
X151264865Y-104158258D01*
X151272861Y-104133364D01*
X151280799Y-104108391D01*
X151288678Y-104083340D01*
X151296497Y-104058211D01*
X151304258Y-104033005D01*
X151311958Y-104007721D01*
X151319599Y-103982362D01*
X151327179Y-103956926D01*
X151334699Y-103931414D01*
X151342158Y-103905828D01*
X151349555Y-103880167D01*
X151356891Y-103854433D01*
X151364165Y-103828625D01*
X151371376Y-103802744D01*
X151378525Y-103776791D01*
X151385611Y-103750767D01*
X151392634Y-103724672D01*
X151399593Y-103698507D01*
X151406489Y-103672273D01*
X151413320Y-103645970D01*
X151420086Y-103619600D01*
X151426787Y-103593162D01*
X151433423Y-103566659D01*
X151439993Y-103540090D01*
X151446497Y-103513458D01*
X151452934Y-103486762D01*
X151459304Y-103460004D01*
X151465608Y-103433185D01*
X151471843Y-103406306D01*
X151478011Y-103379369D01*
X151484110Y-103352373D01*
X151490140Y-103325322D01*
X151496101Y-103298215D01*
X151501993Y-103271054D01*
X151507814Y-103243841D01*
X151513565Y-103216578D01*
X151519246Y-103189264D01*
X151524854Y-103161904D01*
X151530392Y-103134497D01*
X151535857Y-103107045D01*
X151541249Y-103079551D01*
X151546569Y-103052016D01*
X151551815Y-103024443D01*
X151556988Y-102996832D01*
X151562086Y-102969187D01*
X151567109Y-102941510D01*
X151572057Y-102913802D01*
X151576929Y-102886067D01*
X151581725Y-102858306D01*
X151586445Y-102830523D01*
X151591088Y-102802720D01*
X151595652Y-102774899D01*
X151600139Y-102747065D01*
X151604548Y-102719220D01*
X151608877Y-102691367D01*
X151613126Y-102663510D01*
X151617296Y-102635653D01*
X151621385Y-102607798D01*
X151625393Y-102579951D01*
X151629319Y-102552116D01*
X151633163Y-102524296D01*
X151636924Y-102496497D01*
X151640602Y-102468723D01*
X151644197Y-102440980D01*
X151647706Y-102413273D01*
X151651131Y-102385607D01*
X151654471Y-102357989D01*
X151657724Y-102330426D01*
X151660891Y-102302923D01*
X151663970Y-102275489D01*
X151666961Y-102248132D01*
X151669864Y-102220858D01*
X151672678Y-102193678D01*
X151675402Y-102166600D01*
X151678036Y-102139635D01*
X151680578Y-102112794D01*
X151683029Y-102086087D01*
X151685388Y-102059529D01*
X151687653Y-102033131D01*
X151689825Y-102006910D01*
X151691902Y-101980881D01*
X151693885Y-101955062D01*
X151695771Y-101929472D01*
X151697561Y-101904132D01*
X151699253Y-101879066D01*
X151700848Y-101854300D01*
X151702343Y-101829864D01*
X151703739Y-101805789D01*
X151705034Y-101782115D01*
X151706229Y-101758885D01*
X151707321Y-101736148D01*
X151708311Y-101713964D01*
X151709197Y-101692404D01*
X151709978Y-101671553D01*
X151710655Y-101651519D01*
X151711226Y-101632441D01*
X151711690Y-101614505D01*
X151712048Y-101597974D01*
X151712300Y-101583260D01*
X151712447Y-101571100D01*
X151712500Y-101562500D01*
D10*
X151687500Y-81537500D02*
X151712500Y-101562500D01*
M02*
