%TF.GenerationSoftware,KiCad,Pcbnew,9.0.6*%
%TF.CreationDate,2026-08-21T01:00:28+05:30*%
%TF.ProjectId,RF_Transiever,52465f54-7261-46e7-9369-657665722e6b,rev?*%
%TF.SameCoordinates,Original*%
%TF.FileFunction,Profile,NP*%
%FSLAX46Y46*%
G04 Gerber Fmt 4.6, Leading zero omitted, Abs format (unit mm)*
G04 Created by KiCad (PCBNEW 9.0.6) date 2026-08-21 01:00:28*
%MOMM*%
%LPD*%
G01*
G04 APERTURE LIST*
%TA.AperFunction,Profile*%
%ADD10C,0.050000*%
%TD*%
%ADD11C,0.050000*%
G04 APERTURE END LIST*
D10*
X111600000Y-108175000D02*
X145237500Y-108362828D01*
D11*
X145237500Y-108362828D02*
X145249551Y-108362886D01*
X145261585Y-108362924D01*
X145273601Y-108362942D01*
X145285601Y-108362939D01*
X145297584Y-108362917D01*
X145309550Y-108362875D01*
X145321499Y-108362813D01*
X145333431Y-108362731D01*
X145345346Y-108362629D01*
X145357244Y-108362507D01*
X145369126Y-108362366D01*
X145380991Y-108362205D01*
X145392839Y-108362023D01*
X145404670Y-108361823D01*
X145416485Y-108361602D01*
X145428283Y-108361362D01*
X145440064Y-108361102D01*
X145451829Y-108360823D01*
X145463578Y-108360524D01*
X145475309Y-108360205D01*
X145487024Y-108359867D01*
X145498723Y-108359509D01*
X145510405Y-108359132D01*
X145522071Y-108358735D01*
X145533721Y-108358319D01*
X145545354Y-108357884D01*
X145556971Y-108357429D01*
X145568571Y-108356955D01*
X145580155Y-108356461D01*
X145591723Y-108355948D01*
X145603275Y-108355416D01*
X145614810Y-108354865D01*
X145626329Y-108354294D01*
X145637832Y-108353704D01*
X145649319Y-108353095D01*
X145660790Y-108352467D01*
X145672245Y-108351820D01*
X145683684Y-108351153D01*
X145695107Y-108350468D01*
X145706513Y-108349763D01*
X145717904Y-108349039D01*
X145729279Y-108348297D01*
X145740638Y-108347535D01*
X145751981Y-108346754D01*
X145763309Y-108345955D01*
X145774620Y-108345136D01*
X145785916Y-108344299D01*
X145797196Y-108343443D01*
X145808460Y-108342568D01*
X145819708Y-108341674D01*
X145830942Y-108340761D01*
X145842158Y-108339830D01*
X145853360Y-108338879D01*
X145864546Y-108337910D01*
X145875717Y-108336923D01*
X145886871Y-108335916D01*
X145898011Y-108334891D01*
X145909134Y-108333847D01*
X145920243Y-108332785D01*
X145931336Y-108331704D01*
X145942414Y-108330605D01*
X145953475Y-108329487D01*
X145964523Y-108328350D01*
X145975554Y-108327195D01*
X145986571Y-108326021D01*
X145997571Y-108324829D01*
X146008557Y-108323619D01*
X146019527Y-108322390D01*
X146030483Y-108321142D01*
X146041423Y-108319877D01*
X146052348Y-108318593D01*
X146063258Y-108317290D01*
X146074153Y-108315969D01*
X146085032Y-108314630D01*
X146095897Y-108313273D01*
X146106747Y-108311897D01*
X146117582Y-108310503D01*
X146128401Y-108309091D01*
X146139207Y-108307661D01*
X146149996Y-108306213D01*
X146160772Y-108304746D01*
X146171531Y-108303261D01*
X146182277Y-108301758D01*
X146193007Y-108300237D01*
X146203724Y-108298698D01*
X146214424Y-108297141D01*
X146225112Y-108295566D01*
X146235783Y-108293972D01*
X146246440Y-108292361D01*
X146257082Y-108290732D01*
X146267711Y-108289084D01*
X146278323Y-108287419D01*
X146288923Y-108285736D01*
X146299506Y-108284035D01*
X146310077Y-108282316D01*
X146320631Y-108280579D01*
X146331172Y-108278824D01*
X146341698Y-108277052D01*
X146352211Y-108275261D01*
X146362707Y-108273453D01*
X146373191Y-108271626D01*
X146383659Y-108269783D01*
X146394115Y-108267921D01*
X146404554Y-108266042D01*
X146414981Y-108264144D01*
X146425392Y-108262230D01*
X146435791Y-108260297D01*
X146446173Y-108258347D01*
X146456543Y-108256379D01*
X146466897Y-108254393D01*
X146477239Y-108252390D01*
X146487566Y-108250369D01*
X146497879Y-108248330D01*
X146508177Y-108246274D01*
X146518463Y-108244200D01*
X146528733Y-108242109D01*
X146538991Y-108240000D01*
X146549233Y-108237874D01*
X146559464Y-108235730D01*
X146569678Y-108233569D01*
X146579880Y-108231390D01*
X146590067Y-108229194D01*
X146600242Y-108226980D01*
X146610401Y-108224749D01*
X146620548Y-108222500D01*
X146630680Y-108220234D01*
X146640800Y-108217950D01*
X146650904Y-108215649D01*
X146660996Y-108213331D01*
X146671073Y-108210995D01*
X146681139Y-108208642D01*
X146691188Y-108206272D01*
X146701227Y-108203884D01*
X146711249Y-108201479D01*
X146721260Y-108199056D01*
X146731256Y-108196617D01*
X146741240Y-108194160D01*
X146751209Y-108191686D01*
X146761166Y-108189194D01*
X146771108Y-108186686D01*
X146781039Y-108184159D01*
X146790954Y-108181617D01*
X146800858Y-108179056D01*
X146810746Y-108176479D01*
X146820624Y-108173884D01*
X146830486Y-108171272D01*
X146840337Y-108168642D01*
X146850172Y-108165996D01*
X146859997Y-108163333D01*
X146869806Y-108160652D01*
X146889388Y-108155240D01*
X146908917Y-108149759D01*
X146928394Y-108144210D01*
X146947818Y-108138592D01*
X146967191Y-108132906D01*
X146986513Y-108127153D01*
X147005783Y-108121331D01*
X147025002Y-108115441D01*
X147044170Y-108109483D01*
X147063286Y-108103457D01*
X147082352Y-108097364D01*
X147101368Y-108091203D01*
X147120333Y-108084974D01*
X147139248Y-108078678D01*
X147158113Y-108072314D01*
X147176928Y-108065882D01*
X147195694Y-108059383D01*
X147214410Y-108052817D01*
X147233076Y-108046184D01*
X147251694Y-108039483D01*
X147270262Y-108032714D01*
X147288782Y-108025879D01*
X147307253Y-108018976D01*
X147325675Y-108012006D01*
X147344049Y-108004969D01*
X147362375Y-107997865D01*
X147380653Y-107990694D01*
X147398883Y-107983456D01*
X147417065Y-107976151D01*
X147435199Y-107968779D01*
X147453287Y-107961339D01*
X147471327Y-107953833D01*
X147489319Y-107946260D01*
X147507265Y-107938620D01*
X147525165Y-107930913D01*
X147543017Y-107923140D01*
X147560823Y-107915299D01*
X147578583Y-107907391D01*
X147596296Y-107899417D01*
X147613964Y-107891375D01*
X147631585Y-107883267D01*
X147649161Y-107875092D01*
X147666691Y-107866850D01*
X147684175Y-107858541D01*
X147701615Y-107850165D01*
X147719009Y-107841723D01*
X147736358Y-107833213D01*
X147753662Y-107824636D01*
X147770921Y-107815993D01*
X147788135Y-107807282D01*
X147805305Y-107798505D01*
X147822431Y-107789660D01*
X147839512Y-107780749D01*
X147856549Y-107771770D01*
X147873542Y-107762724D01*
X147890491Y-107753611D01*
X147907396Y-107744431D01*
X147924258Y-107735184D01*
X147941076Y-107725869D01*
X147957851Y-107716487D01*
X147974582Y-107707038D01*
X147991270Y-107697522D01*
X148007915Y-107687938D01*
X148024517Y-107678287D01*
X148041077Y-107668568D01*
X148057593Y-107658781D01*
X148074067Y-107648927D01*
X148090498Y-107639006D01*
X148106887Y-107629016D01*
X148123233Y-107618959D01*
X148139538Y-107608834D01*
X148155800Y-107598641D01*
X148172020Y-107588381D01*
X148188198Y-107578052D01*
X148204334Y-107567655D01*
X148220429Y-107557190D01*
X148236482Y-107546657D01*
X148252493Y-107536055D01*
X148268463Y-107525385D01*
X148284392Y-107514647D01*
X148300279Y-107503840D01*
X148316125Y-107492965D01*
X148331930Y-107482020D01*
X148347694Y-107471008D01*
X148363417Y-107459926D01*
X148379099Y-107448775D01*
X148394740Y-107437555D01*
X148410341Y-107426266D01*
X148425901Y-107414908D01*
X148441420Y-107403481D01*
X148456899Y-107391984D01*
X148472337Y-107380418D01*
X148487735Y-107368782D01*
X148503093Y-107357077D01*
X148518410Y-107345302D01*
X148533688Y-107333456D01*
X148548925Y-107321541D01*
X148564122Y-107309556D01*
X148579279Y-107297501D01*
X148594396Y-107285375D01*
X148609473Y-107273179D01*
X148624511Y-107260912D01*
X148639508Y-107248575D01*
X148654466Y-107236167D01*
X148669384Y-107223688D01*
X148684263Y-107211138D01*
X148699102Y-107198517D01*
X148713901Y-107185824D01*
X148728661Y-107173061D01*
X148743381Y-107160226D01*
X148758062Y-107147319D01*
X148772703Y-107134340D01*
X148787305Y-107121290D01*
X148801868Y-107108168D01*
X148816391Y-107094974D01*
X148830875Y-107081707D01*
X148845320Y-107068368D01*
X148859725Y-107054957D01*
X148874092Y-107041473D01*
X148888419Y-107027916D01*
X148902707Y-107014286D01*
X148916955Y-107000583D01*
X148931165Y-106986807D01*
X148945335Y-106972958D01*
X148959466Y-106959035D01*
X148973558Y-106945039D01*
X148987611Y-106930969D01*
X149001625Y-106916825D01*
X149015600Y-106902607D01*
X149029535Y-106888315D01*
X149043432Y-106873949D01*
X149057289Y-106859508D01*
X149071107Y-106844993D01*
X149084886Y-106830403D01*
X149098626Y-106815738D01*
X149112327Y-106800997D01*
X149125988Y-106786182D01*
X149139610Y-106771291D01*
X149153194Y-106756325D01*
X149166738Y-106741284D01*
X149180242Y-106726166D01*
X149193708Y-106710972D01*
X149207134Y-106695703D01*
X149220521Y-106680357D01*
X149233868Y-106664935D01*
X149247176Y-106649436D01*
X149260445Y-106633860D01*
X149273674Y-106618208D01*
X149286864Y-106602478D01*
X149300014Y-106586671D01*
X149313125Y-106570787D01*
X149326196Y-106554826D01*
X149339227Y-106538787D01*
X149352219Y-106522669D01*
X149365171Y-106506474D01*
X149378083Y-106490201D01*
X149390955Y-106473850D01*
X149403788Y-106457420D01*
X149416580Y-106440911D01*
X149429332Y-106424324D01*
X149442045Y-106407658D01*
X149454717Y-106390913D01*
X149467349Y-106374088D01*
X149479941Y-106357184D01*
X149492492Y-106340201D01*
X149505003Y-106323138D01*
X149517474Y-106305995D01*
X149529904Y-106288772D01*
X149542293Y-106271469D01*
X149554642Y-106254085D01*
X149566949Y-106236621D01*
X149579216Y-106219077D01*
X149591442Y-106201451D01*
X149603627Y-106183745D01*
X149615771Y-106165958D01*
X149627873Y-106148089D01*
X149639934Y-106130139D01*
X149651954Y-106112108D01*
X149663932Y-106093994D01*
X149675869Y-106075799D01*
X149687764Y-106057522D01*
X149699617Y-106039163D01*
X149711428Y-106020722D01*
X149723197Y-106002198D01*
X149734924Y-105983591D01*
X149746608Y-105964902D01*
X149758250Y-105946131D01*
X149769850Y-105927276D01*
X149781407Y-105908338D01*
X149792921Y-105889317D01*
X149804393Y-105870212D01*
X149815821Y-105851024D01*
X149827206Y-105831752D01*
X149838548Y-105812397D01*
X149849847Y-105792958D01*
X149861102Y-105773435D01*
X149872313Y-105753827D01*
X149883481Y-105734136D01*
X149894604Y-105714360D01*
X149905684Y-105694499D01*
X149916719Y-105674554D01*
X149927710Y-105654525D01*
X149938656Y-105634410D01*
X149949558Y-105614211D01*
X149960414Y-105593927D01*
X149971226Y-105573557D01*
X149981993Y-105553103D01*
X149992714Y-105532563D01*
X150003390Y-105511938D01*
X150014020Y-105491227D01*
X150024604Y-105470431D01*
X150035142Y-105449549D01*
X150045634Y-105428582D01*
X150056080Y-105407529D01*
X150066479Y-105386390D01*
X150076832Y-105365165D01*
X150087137Y-105343854D01*
X150097396Y-105322457D01*
X150107607Y-105300974D01*
X150117771Y-105279406D01*
X150127887Y-105257751D01*
X150137955Y-105236009D01*
X150147975Y-105214182D01*
X150157947Y-105192269D01*
X150167871Y-105170269D01*
X150177746Y-105148183D01*
X150187572Y-105126011D01*
X150197349Y-105103752D01*
X150207077Y-105081407D01*
X150216755Y-105058976D01*
X150226384Y-105036459D01*
X150235962Y-105013856D01*
X150245491Y-104991166D01*
X150254969Y-104968390D01*
X150264396Y-104945529D01*
X150273773Y-104922581D01*
X150283099Y-104899547D01*
X150292373Y-104876427D01*
X150301596Y-104853221D01*
X150310767Y-104829930D01*
X150319886Y-104806553D01*
X150328953Y-104783090D01*
X150337967Y-104759542D01*
X150346929Y-104735909D01*
X150355837Y-104712190D01*
X150364693Y-104688386D01*
X150373495Y-104664498D01*
X150382243Y-104640524D01*
X150390937Y-104616466D01*
X150399577Y-104592324D01*
X150408162Y-104568097D01*
X150416693Y-104543786D01*
X150425168Y-104519391D01*
X150433588Y-104494913D01*
X150441952Y-104470351D01*
X150450261Y-104445707D01*
X150458513Y-104420979D01*
X150466709Y-104396169D01*
X150474848Y-104371276D01*
X150482929Y-104346302D01*
X150490954Y-104321246D01*
X150498921Y-104296109D01*
X150506830Y-104270890D01*
X150514680Y-104245592D01*
X150522472Y-104220213D01*
X150530205Y-104194754D01*
X150537879Y-104169216D01*
X150545494Y-104143599D01*
X150553048Y-104117904D01*
X150560543Y-104092131D01*
X150567977Y-104066280D01*
X150575350Y-104040353D01*
X150582662Y-104014349D01*
X150589912Y-103988270D01*
X150597101Y-103962116D01*
X150604228Y-103935887D01*
X150611292Y-103909584D01*
X150618293Y-103883208D01*
X150625231Y-103856760D01*
X150632106Y-103830240D01*
X150638917Y-103803650D01*
X150645663Y-103776989D01*
X150652345Y-103750259D01*
X150658962Y-103723460D01*
X150665513Y-103696595D01*
X150671999Y-103669662D01*
X150678419Y-103642665D01*
X150684772Y-103615602D01*
X150691058Y-103588477D01*
X150697278Y-103561289D01*
X150703429Y-103534040D01*
X150709512Y-103506731D01*
X150715528Y-103479363D01*
X150721474Y-103451938D01*
X150727351Y-103424457D01*
X150733158Y-103396922D01*
X150738895Y-103369333D01*
X150744562Y-103341693D01*
X150750158Y-103314003D01*
X150755682Y-103286264D01*
X150761135Y-103258479D01*
X150766516Y-103230649D01*
X150771824Y-103202776D01*
X150777059Y-103174863D01*
X150782220Y-103146910D01*
X150787307Y-103118921D01*
X150792320Y-103090897D01*
X150797258Y-103062841D01*
X150802121Y-103034755D01*
X150806908Y-103006642D01*
X150811618Y-102978504D01*
X150816252Y-102950345D01*
X150820808Y-102922167D01*
X150825287Y-102893973D01*
X150829687Y-102865766D01*
X150834008Y-102837550D01*
X150838251Y-102809327D01*
X150842413Y-102781103D01*
X150846495Y-102752881D01*
X150850497Y-102724664D01*
X150854416Y-102696457D01*
X150858254Y-102668264D01*
X150862010Y-102640091D01*
X150865682Y-102611942D01*
X150869271Y-102583821D01*
X150872776Y-102555736D01*
X150876196Y-102527692D01*
X150879531Y-102499694D01*
X150882780Y-102471749D01*
X150885942Y-102443865D01*
X150889017Y-102416049D01*
X150892005Y-102388308D01*
X150894904Y-102360651D01*
X150897715Y-102333087D01*
X150900436Y-102305626D01*
X150903066Y-102278277D01*
X150905606Y-102251051D01*
X150908054Y-102223961D01*
X150910411Y-102197019D01*
X150912674Y-102170240D01*
X150914843Y-102143637D01*
X150916919Y-102117228D01*
X150918899Y-102091030D01*
X150920784Y-102065063D01*
X150922572Y-102039348D01*
X150924263Y-102013909D01*
X150925856Y-101988773D01*
X150927350Y-101963970D01*
X150928745Y-101939533D01*
X150930040Y-101915501D01*
X150931233Y-101891918D01*
X150932325Y-101868834D01*
X150933314Y-101846310D01*
X150934199Y-101824418D01*
X150934980Y-101803245D01*
X150935656Y-101782900D01*
X150936227Y-101763525D01*
X150936691Y-101745308D01*
X150937049Y-101728518D01*
X150937300Y-101713572D01*
X150937447Y-101701222D01*
X150937500Y-101692500D01*
X111600000Y-108175000D02*
X111586443Y-108174981D01*
X111572906Y-108174942D01*
X111559390Y-108174883D01*
X111545894Y-108174805D01*
X111532419Y-108174706D01*
X111518965Y-108174588D01*
X111505531Y-108174449D01*
X111492118Y-108174291D01*
X111478725Y-108174114D01*
X111465353Y-108173916D01*
X111452001Y-108173699D01*
X111438669Y-108173462D01*
X111425358Y-108173206D01*
X111412067Y-108172930D01*
X111398797Y-108172634D01*
X111385547Y-108172319D01*
X111372316Y-108171984D01*
X111359107Y-108171630D01*
X111345917Y-108171257D01*
X111332747Y-108170864D01*
X111319598Y-108170451D01*
X111306469Y-108170019D01*
X111293359Y-108169568D01*
X111280270Y-108169098D01*
X111267201Y-108168608D01*
X111254152Y-108168099D01*
X111241122Y-108167571D01*
X111228113Y-108167024D01*
X111215123Y-108166457D01*
X111202153Y-108165872D01*
X111189203Y-108165267D01*
X111176273Y-108164643D01*
X111163363Y-108164000D01*
X111150472Y-108163338D01*
X111137601Y-108162657D01*
X111124750Y-108161957D01*
X111111918Y-108161239D01*
X111099107Y-108160501D01*
X111086314Y-108159744D01*
X111073541Y-108158969D01*
X111060787Y-108158174D01*
X111048054Y-108157361D01*
X111035339Y-108156529D01*
X111022644Y-108155679D01*
X111009968Y-108154809D01*
X110997313Y-108153921D01*
X110984675Y-108153014D01*
X110972058Y-108152089D01*
X110959459Y-108151145D01*
X110946881Y-108150182D01*
X110934321Y-108149201D01*
X110921780Y-108148201D01*
X110909258Y-108147183D01*
X110896757Y-108146146D01*
X110884273Y-108145091D01*
X110871809Y-108144017D01*
X110859364Y-108142925D01*
X110846938Y-108141815D01*
X110834531Y-108140686D01*
X110822143Y-108139538D01*
X110809773Y-108138373D01*
X110797423Y-108137189D01*
X110785092Y-108135987D01*
X110772779Y-108134767D01*
X110760485Y-108133528D01*
X110748211Y-108132271D01*
X110735954Y-108130997D01*
X110723717Y-108129704D01*
X110711498Y-108128392D01*
X110699298Y-108127063D01*
X110687116Y-108125716D01*
X110674954Y-108124350D01*
X110662809Y-108122967D01*
X110650684Y-108121566D01*
X110638577Y-108120146D01*
X110626489Y-108118709D01*
X110614418Y-108117254D01*
X110602367Y-108115781D01*
X110590333Y-108114290D01*
X110578319Y-108112781D01*
X110566321Y-108111254D01*
X110554344Y-108109710D01*
X110542383Y-108108147D01*
X110530442Y-108106567D01*
X110518518Y-108104969D01*
X110506614Y-108103354D01*
X110494726Y-108101721D01*
X110482858Y-108100070D01*
X110471007Y-108098401D01*
X110459175Y-108096715D01*
X110447360Y-108095011D01*
X110435564Y-108093290D01*
X110423785Y-108091551D01*
X110412025Y-108089794D01*
X110400282Y-108088020D01*
X110388559Y-108086229D01*
X110376851Y-108084420D01*
X110365163Y-108082593D01*
X110353492Y-108080750D01*
X110341839Y-108078888D01*
X110330203Y-108077010D01*
X110318587Y-108075114D01*
X110306986Y-108073200D01*
X110295405Y-108071270D01*
X110283840Y-108069321D01*
X110272294Y-108067356D01*
X110260765Y-108065373D01*
X110249254Y-108063374D01*
X110237760Y-108061357D01*
X110226284Y-108059322D01*
X110214825Y-108057271D01*
X110203384Y-108055202D01*
X110191960Y-108053116D01*
X110180554Y-108051014D01*
X110169165Y-108048894D01*
X110157794Y-108046757D01*
X110146439Y-108044602D01*
X110135103Y-108042431D01*
X110123783Y-108040243D01*
X110112482Y-108038038D01*
X110101196Y-108035815D01*
X110089929Y-108033576D01*
X110078678Y-108031320D01*
X110067446Y-108029047D01*
X110056228Y-108026757D01*
X110045030Y-108024450D01*
X110033848Y-108022126D01*
X110022684Y-108019786D01*
X110011535Y-108017428D01*
X110000405Y-108015054D01*
X109989290Y-108012663D01*
X109978195Y-108010255D01*
X109967114Y-108007830D01*
X109956052Y-108005389D01*
X109945005Y-108002931D01*
X109933977Y-108000456D01*
X109922963Y-107997964D01*
X109911969Y-107995456D01*
X109900989Y-107992931D01*
X109890028Y-107990390D01*
X109879082Y-107987831D01*
X109868154Y-107985257D01*
X109857241Y-107982665D01*
X109846347Y-107980057D01*
X109835467Y-107977432D01*
X109824606Y-107974792D01*
X109813760Y-107972134D01*
X109802932Y-107969460D01*
X109792119Y-107966769D01*
X109781324Y-107964062D01*
X109770543Y-107961338D01*
X109759782Y-107958598D01*
X109749034Y-107955841D01*
X109738305Y-107953069D01*
X109727590Y-107950279D01*
X109716894Y-107947474D01*
X109706212Y-107944651D01*
X109695548Y-107941813D01*
X109684898Y-107938958D01*
X109674267Y-107936087D01*
X109663650Y-107933200D01*
X109653052Y-107930296D01*
X109642467Y-107927376D01*
X109631900Y-107924440D01*
X109621348Y-107921487D01*
X109610814Y-107918519D01*
X109600293Y-107915533D01*
X109589791Y-107912532D01*
X109579303Y-107909514D01*
X109568833Y-107906481D01*
X109558377Y-107903431D01*
X109547939Y-107900366D01*
X109537514Y-107897283D01*
X109527108Y-107894185D01*
X109516715Y-107891070D01*
X109506341Y-107887940D01*
X109495980Y-107884793D01*
X109485637Y-107881631D01*
X109475307Y-107878452D01*
X109464996Y-107875258D01*
X109454698Y-107872047D01*
X109444419Y-107868820D01*
X109434152Y-107865577D01*
X109423904Y-107862319D01*
X109413668Y-107859043D01*
X109403451Y-107855753D01*
X109393247Y-107852446D01*
X109383061Y-107849123D01*
X109362733Y-107842430D01*
X109342467Y-107835673D01*
X109322263Y-107828853D01*
X109302121Y-107821968D01*
X109282040Y-107815021D01*
X109262020Y-107808010D01*
X109242061Y-107800936D01*
X109222163Y-107793799D01*
X109202326Y-107786599D01*
X109182549Y-107779335D01*
X109162833Y-107772009D01*
X109143177Y-107764620D01*
X109123581Y-107757168D01*
X109104045Y-107749653D01*
X109084568Y-107742076D01*
X109065151Y-107734436D01*
X109045793Y-107726734D01*
X109026494Y-107718969D01*
X109007255Y-107711142D01*
X108988074Y-107703253D01*
X108968951Y-107695301D01*
X108949888Y-107687287D01*
X108930882Y-107679211D01*
X108911935Y-107671073D01*
X108893045Y-107662873D01*
X108874213Y-107654610D01*
X108855439Y-107646286D01*
X108836723Y-107637900D01*
X108818064Y-107629453D01*
X108799461Y-107620943D01*
X108780916Y-107612372D01*
X108762428Y-107603738D01*
X108743997Y-107595044D01*
X108725622Y-107586287D01*
X108707303Y-107577469D01*
X108689041Y-107568589D01*
X108670835Y-107559648D01*
X108652684Y-107550646D01*
X108634590Y-107541581D01*
X108616551Y-107532456D01*
X108598568Y-107523269D01*
X108580640Y-107514020D01*
X108562767Y-107504710D01*
X108544949Y-107495339D01*
X108527187Y-107485907D01*
X108509479Y-107476413D01*
X108491826Y-107466857D01*
X108474227Y-107457241D01*
X108456683Y-107447563D01*
X108439193Y-107437824D01*
X108421757Y-107428023D01*
X108404375Y-107418162D01*
X108387047Y-107408239D01*
X108369773Y-107398255D01*
X108352552Y-107388209D01*
X108335385Y-107378102D01*
X108318271Y-107367934D01*
X108301211Y-107357705D01*
X108284204Y-107347415D01*
X108267249Y-107337063D01*
X108250348Y-107326650D01*
X108233499Y-107316175D01*
X108216704Y-107305640D01*
X108199960Y-107295043D01*
X108183269Y-107284384D01*
X108166631Y-107273665D01*
X108150045Y-107262884D01*
X108133510Y-107252041D01*
X108117028Y-107241137D01*
X108100598Y-107230172D01*
X108084220Y-107219145D01*
X108067893Y-107208057D01*
X108051618Y-107196908D01*
X108035395Y-107185696D01*
X108019222Y-107174424D01*
X108003102Y-107163089D01*
X107987032Y-107151694D01*
X107971014Y-107140236D01*
X107955047Y-107128717D01*
X107939130Y-107117136D01*
X107923265Y-107105493D01*
X107907450Y-107093789D01*
X107891686Y-107082022D01*
X107875973Y-107070194D01*
X107860311Y-107058304D01*
X107844698Y-107046352D01*
X107829137Y-107034338D01*
X107813625Y-107022262D01*
X107798164Y-107010124D01*
X107782753Y-106997924D01*
X107767392Y-106985661D01*
X107752081Y-106973337D01*
X107736821Y-106960950D01*
X107721610Y-106948500D01*
X107706449Y-106935989D01*
X107691338Y-106923414D01*
X107676276Y-106910778D01*
X107661265Y-106898079D01*
X107646302Y-106885317D01*
X107631390Y-106872492D01*
X107616527Y-106859605D01*
X107601714Y-106846655D01*
X107586949Y-106833642D01*
X107572235Y-106820566D01*
X107557570Y-106807427D01*
X107542954Y-106794225D01*
X107528387Y-106780960D01*
X107513869Y-106767632D01*
X107499401Y-106754241D01*
X107484982Y-106740786D01*
X107470612Y-106727268D01*
X107456291Y-106713686D01*
X107442019Y-106700041D01*
X107427796Y-106686332D01*
X107413623Y-106672560D01*
X107399498Y-106658724D01*
X107385422Y-106644824D01*
X107371395Y-106630860D01*
X107357417Y-106616832D01*
X107343488Y-106602740D01*
X107329608Y-106588584D01*
X107315777Y-106574364D01*
X107301995Y-106560079D01*
X107288261Y-106545730D01*
X107274577Y-106531317D01*
X107260941Y-106516839D01*
X107247354Y-106502297D01*
X107233816Y-106487690D01*
X107220327Y-106473018D01*
X107206887Y-106458282D01*
X107193496Y-106443480D01*
X107180154Y-106428614D01*
X107166860Y-106413682D01*
X107153616Y-106398686D01*
X107140420Y-106383624D01*
X107127273Y-106368497D01*
X107114176Y-106353304D01*
X107101127Y-106338046D01*
X107088127Y-106322723D01*
X107075177Y-106307333D01*
X107062275Y-106291879D01*
X107049423Y-106276358D01*
X107036620Y-106260772D01*
X107023866Y-106245119D01*
X107011161Y-106229401D01*
X106998505Y-106213616D01*
X106985899Y-106197766D01*
X106973342Y-106181849D01*
X106960834Y-106165866D01*
X106948376Y-106149816D01*
X106935967Y-106133700D01*
X106923608Y-106117518D01*
X106911299Y-106101269D01*
X106899039Y-106084953D01*
X106886829Y-106068570D01*
X106874668Y-106052121D01*
X106862557Y-106035604D01*
X106850497Y-106019021D01*
X106838486Y-106002371D01*
X106826525Y-105985653D01*
X106814615Y-105968869D01*
X106802754Y-105952017D01*
X106790944Y-105935098D01*
X106779184Y-105918111D01*
X106767474Y-105901057D01*
X106755815Y-105883936D01*
X106744207Y-105866747D01*
X106732649Y-105849490D01*
X106721142Y-105832166D01*
X106709686Y-105814774D01*
X106698281Y-105797314D01*
X106686927Y-105779787D01*
X106675624Y-105762192D01*
X106664372Y-105744528D01*
X106653172Y-105726797D01*
X106642023Y-105708998D01*
X106630926Y-105691131D01*
X106619880Y-105673196D01*
X106608887Y-105655192D01*
X106597945Y-105637121D01*
X106587055Y-105618981D01*
X106576217Y-105600774D01*
X106565432Y-105582498D01*
X106554699Y-105564154D01*
X106544018Y-105545741D01*
X106533391Y-105527261D01*
X106522816Y-105508712D01*
X106512294Y-105490095D01*
X106501825Y-105471410D01*
X106491409Y-105452656D01*
X106481047Y-105433834D01*
X106470738Y-105414944D01*
X106460483Y-105395986D01*
X106450282Y-105376960D01*
X106440134Y-105357865D01*
X106430041Y-105338702D01*
X106420002Y-105319471D01*
X106410018Y-105300172D01*
X106400088Y-105280805D01*
X106390213Y-105261370D01*
X106380393Y-105241867D01*
X106370628Y-105222296D01*
X106360918Y-105202657D01*
X106351264Y-105182951D01*
X106341666Y-105163177D01*
X106332123Y-105143335D01*
X106322637Y-105123426D01*
X106313206Y-105103449D01*
X106303832Y-105083405D01*
X106294515Y-105063293D01*
X106285255Y-105043115D01*
X106276051Y-105022870D01*
X106266905Y-105002557D01*
X106257816Y-104982178D01*
X106248785Y-104961733D01*
X106239811Y-104941221D01*
X106230896Y-104920643D01*
X106222039Y-104899998D01*
X106213240Y-104879288D01*
X106204500Y-104858512D01*
X106195819Y-104837671D01*
X106187197Y-104816764D01*
X106178635Y-104795792D01*
X106170132Y-104774755D01*
X106161689Y-104753654D01*
X106153306Y-104732488D01*
X106144984Y-104711258D01*
X106136722Y-104689965D01*
X106128521Y-104668608D01*
X106120381Y-104647187D01*
X106112303Y-104625704D01*
X106104286Y-104604158D01*
X106096331Y-104582550D01*
X106088438Y-104560880D01*
X106080607Y-104539149D01*
X106072839Y-104517356D01*
X106065134Y-104495503D01*
X106057493Y-104473589D01*
X106049914Y-104451616D01*
X106042400Y-104429583D01*
X106034950Y-104407492D01*
X106027564Y-104385342D01*
X106020243Y-104363134D01*
X106012986Y-104340869D01*
X106005795Y-104318547D01*
X105998670Y-104296169D01*
X105991610Y-104273735D01*
X105984617Y-104251246D01*
X105977690Y-104228704D01*
X105970830Y-104206107D01*
X105964037Y-104183458D01*
X105957311Y-104160756D01*
X105950654Y-104138004D01*
X105944064Y-104115200D01*
X105937543Y-104092347D01*
X105931091Y-104069445D01*
X105924708Y-104046495D01*
X105918394Y-104023498D01*
X105912150Y-104000455D01*
X105905977Y-103977367D01*
X105899874Y-103954235D01*
X105893842Y-103931060D01*
X105887881Y-103907843D01*
X105881992Y-103884586D01*
X105876175Y-103861289D01*
X105870431Y-103837954D01*
X105864759Y-103814582D01*
X105859160Y-103791175D01*
X105853635Y-103767735D01*
X105848184Y-103744261D01*
X105842808Y-103720757D01*
X105837506Y-103697224D01*
X105832279Y-103673663D01*
X105827129Y-103650076D01*
X105822054Y-103626466D01*
X105817055Y-103602833D01*
X105812134Y-103579181D01*
X105807290Y-103555511D01*
X105802524Y-103531825D01*
X105797836Y-103508126D01*
X105793226Y-103484415D01*
X105788696Y-103460697D01*
X105784246Y-103436972D01*
X105779875Y-103413245D01*
X105775585Y-103389518D01*
X105771377Y-103365793D01*
X105767249Y-103342074D01*
X105763204Y-103318365D01*
X105759241Y-103294669D01*
X105755362Y-103270989D01*
X105751566Y-103247330D01*
X105747853Y-103223695D01*
X105744226Y-103200090D01*
X105740684Y-103176517D01*
X105737227Y-103152983D01*
X105733856Y-103129492D01*
X105730573Y-103106050D01*
X105727376Y-103082663D01*
X105724268Y-103059336D01*
X105721248Y-103036076D01*
X105718317Y-103012889D01*
X105715475Y-102989784D01*
X105712724Y-102966768D01*
X105710064Y-102943850D01*
X105707495Y-102921037D01*
X105705019Y-102898341D01*
X105702635Y-102875772D01*
X105700344Y-102853340D01*
X105698148Y-102831059D01*
X105696047Y-102808941D01*
X105694040Y-102787001D01*
X105692130Y-102765256D01*
X105690317Y-102743722D01*
X105688602Y-102722419D01*
X105686984Y-102701369D01*
X105685466Y-102680596D01*
X105684048Y-102660128D01*
X105682730Y-102639994D01*
X105681513Y-102620232D01*
X105680398Y-102600881D01*
X105679386Y-102581991D01*
X105678478Y-102563619D01*
X105677675Y-102545834D01*
X105676976Y-102528724D01*
X105676383Y-102512398D01*
X105675897Y-102497005D01*
X105675517Y-102482752D01*
X105675243Y-102469951D01*
X105675075Y-102459148D01*
X105675005Y-102451547D01*
X105675000Y-102450000D01*
X111500000Y-76850000D02*
X111486394Y-76850010D01*
X111472808Y-76850040D01*
X111459244Y-76850090D01*
X111445701Y-76850160D01*
X111432178Y-76850249D01*
X111418677Y-76850359D01*
X111405197Y-76850488D01*
X111391738Y-76850637D01*
X111378299Y-76850806D01*
X111364882Y-76850995D01*
X111351485Y-76851203D01*
X111338109Y-76851431D01*
X111324754Y-76851679D01*
X111311420Y-76851946D01*
X111298107Y-76852233D01*
X111284814Y-76852539D01*
X111271541Y-76852865D01*
X111258290Y-76853210D01*
X111245059Y-76853575D01*
X111231849Y-76853959D01*
X111218659Y-76854363D01*
X111205490Y-76854786D01*
X111192340Y-76855228D01*
X111179212Y-76855690D01*
X111166104Y-76856170D01*
X111153017Y-76856671D01*
X111139949Y-76857190D01*
X111126902Y-76857728D01*
X111113876Y-76858286D01*
X111100870Y-76858863D01*
X111087883Y-76859459D01*
X111074917Y-76860074D01*
X111061971Y-76860708D01*
X111049046Y-76861361D01*
X111036140Y-76862033D01*
X111023255Y-76862724D01*
X111010390Y-76863434D01*
X110997545Y-76864163D01*
X110984719Y-76864911D01*
X110971914Y-76865677D01*
X110959128Y-76866463D01*
X110946363Y-76867267D01*
X110933617Y-76868090D01*
X110920891Y-76868932D01*
X110908185Y-76869792D01*
X110895499Y-76870672D01*
X110882832Y-76871569D01*
X110870186Y-76872486D01*
X110857559Y-76873421D01*
X110844952Y-76874375D01*
X110832363Y-76875347D01*
X110819796Y-76876338D01*
X110807247Y-76877347D01*
X110794718Y-76878375D01*
X110782208Y-76879421D01*
X110769718Y-76880485D01*
X110757247Y-76881568D01*
X110744797Y-76882670D01*
X110732365Y-76883789D01*
X110719953Y-76884927D01*
X110707559Y-76886084D01*
X110695186Y-76887258D01*
X110682831Y-76888451D01*
X110670496Y-76889662D01*
X110658180Y-76890891D01*
X110645883Y-76892139D01*
X110633605Y-76893404D01*
X110621347Y-76894688D01*
X110609107Y-76895990D01*
X110596887Y-76897310D01*
X110584685Y-76898648D01*
X110572504Y-76900003D01*
X110560340Y-76901377D01*
X110548196Y-76902769D01*
X110536070Y-76904179D01*
X110523964Y-76905607D01*
X110511876Y-76907052D01*
X110499807Y-76908516D01*
X110487757Y-76909997D01*
X110475726Y-76911496D01*
X110463713Y-76913013D01*
X110451720Y-76914548D01*
X110439744Y-76916100D01*
X110427788Y-76917671D01*
X110415850Y-76919259D01*
X110403932Y-76920864D01*
X110392030Y-76922487D01*
X110380149Y-76924128D01*
X110368285Y-76925787D01*
X110356440Y-76927463D01*
X110344613Y-76929157D01*
X110332806Y-76930868D01*
X110321015Y-76932597D01*
X110309245Y-76934343D01*
X110297491Y-76936107D01*
X110285757Y-76937888D01*
X110274040Y-76939686D01*
X110262343Y-76941502D01*
X110250662Y-76943336D01*
X110239001Y-76945186D01*
X110227357Y-76947055D01*
X110215732Y-76948940D01*
X110204124Y-76950843D01*
X110192536Y-76952763D01*
X110180964Y-76954700D01*
X110169412Y-76956655D01*
X110157876Y-76958627D01*
X110146360Y-76960615D01*
X110134860Y-76962622D01*
X110123380Y-76964645D01*
X110111916Y-76966685D01*
X110100472Y-76968743D01*
X110089043Y-76970818D01*
X110077635Y-76972909D01*
X110066242Y-76975018D01*
X110054869Y-76977144D01*
X110043511Y-76979287D01*
X110032174Y-76981446D01*
X110020852Y-76983623D01*
X110009549Y-76985817D01*
X109998263Y-76988027D01*
X109986996Y-76990255D01*
X109975744Y-76992499D01*
X109964512Y-76994761D01*
X109953296Y-76997039D01*
X109942099Y-76999334D01*
X109930917Y-77001646D01*
X109919755Y-77003974D01*
X109908609Y-77006320D01*
X109897481Y-77008682D01*
X109886370Y-77011061D01*
X109875277Y-77013456D01*
X109864200Y-77015869D01*
X109853142Y-77018298D01*
X109842099Y-77020744D01*
X109831075Y-77023206D01*
X109820067Y-77025685D01*
X109809078Y-77028180D01*
X109798104Y-77030693D01*
X109787149Y-77033221D01*
X109776209Y-77035767D01*
X109765289Y-77038328D01*
X109754383Y-77040907D01*
X109743496Y-77043502D01*
X109732624Y-77046113D01*
X109721772Y-77048741D01*
X109710934Y-77051386D01*
X109700115Y-77054046D01*
X109689311Y-77056724D01*
X109678526Y-77059417D01*
X109667755Y-77062127D01*
X109657004Y-77064853D01*
X109646267Y-77067596D01*
X109635549Y-77070355D01*
X109624845Y-77073131D01*
X109614161Y-77075922D01*
X109603491Y-77078731D01*
X109592840Y-77081555D01*
X109582203Y-77084395D01*
X109571585Y-77087252D01*
X109560981Y-77090125D01*
X109550396Y-77093014D01*
X109539826Y-77095920D01*
X109529274Y-77098841D01*
X109518736Y-77101779D01*
X109508217Y-77104733D01*
X109497712Y-77107704D01*
X109487226Y-77110689D01*
X109476754Y-77113692D01*
X109466301Y-77116710D01*
X109455861Y-77119745D01*
X109445441Y-77122795D01*
X109435034Y-77125862D01*
X109424646Y-77128945D01*
X109414271Y-77132044D01*
X109403916Y-77135158D01*
X109393573Y-77138289D01*
X109383250Y-77141436D01*
X109372940Y-77144599D01*
X109362649Y-77147777D01*
X109352371Y-77150972D01*
X109342112Y-77154182D01*
X109331866Y-77157409D01*
X109321639Y-77160651D01*
X109311426Y-77163910D01*
X109301231Y-77167183D01*
X109291049Y-77170474D01*
X109280886Y-77173779D01*
X109270735Y-77177101D01*
X109260604Y-77180439D01*
X109250485Y-77183792D01*
X109240386Y-77187161D01*
X109220230Y-77193947D01*
X109200138Y-77200796D01*
X109180109Y-77207707D01*
X109160142Y-77214682D01*
X109140237Y-77221720D01*
X109120395Y-77228820D01*
X109100615Y-77235983D01*
X109080896Y-77243209D01*
X109061239Y-77250497D01*
X109041644Y-77257847D01*
X109022109Y-77265260D01*
X109002636Y-77272735D01*
X108983224Y-77280272D01*
X108963873Y-77287871D01*
X108944582Y-77295532D01*
X108925352Y-77303255D01*
X108906181Y-77311041D01*
X108887071Y-77318887D01*
X108868021Y-77326796D01*
X108849030Y-77334767D01*
X108830099Y-77342799D01*
X108811227Y-77350892D01*
X108792415Y-77359047D01*
X108773661Y-77367264D01*
X108754967Y-77375542D01*
X108736331Y-77383881D01*
X108717753Y-77392282D01*
X108699234Y-77400744D01*
X108680774Y-77409267D01*
X108662371Y-77417852D01*
X108644026Y-77426497D01*
X108625739Y-77435204D01*
X108607509Y-77443971D01*
X108589337Y-77452800D01*
X108571222Y-77461690D01*
X108553165Y-77470640D01*
X108535164Y-77479652D01*
X108517220Y-77488724D01*
X108499333Y-77497857D01*
X108481502Y-77507051D01*
X108463728Y-77516306D01*
X108446010Y-77525621D01*
X108428348Y-77534998D01*
X108410742Y-77544435D01*
X108393192Y-77553932D01*
X108375698Y-77563491D01*
X108358259Y-77573110D01*
X108340876Y-77582789D01*
X108323547Y-77592530D01*
X108306274Y-77602331D01*
X108289056Y-77612192D01*
X108271893Y-77622114D01*
X108254785Y-77632097D01*
X108237731Y-77642141D01*
X108220732Y-77652245D01*
X108203787Y-77662409D01*
X108186896Y-77672634D01*
X108170060Y-77682920D01*
X108153277Y-77693267D01*
X108136549Y-77703674D01*
X108119874Y-77714141D01*
X108103253Y-77724669D01*
X108086685Y-77735258D01*
X108070171Y-77745908D01*
X108053710Y-77756618D01*
X108037303Y-77767389D01*
X108020948Y-77778220D01*
X108004647Y-77789112D01*
X107988398Y-77800065D01*
X107972202Y-77811079D01*
X107956059Y-77822153D01*
X107939969Y-77833289D01*
X107923930Y-77844484D01*
X107907945Y-77855741D01*
X107892012Y-77867059D01*
X107876130Y-77878437D01*
X107860301Y-77889877D01*
X107844524Y-77901377D01*
X107828799Y-77912939D01*
X107813126Y-77924561D01*
X107797505Y-77936244D01*
X107781935Y-77947989D01*
X107766417Y-77959795D01*
X107750950Y-77971661D01*
X107735535Y-77983589D01*
X107720171Y-77995578D01*
X107704859Y-78007629D01*
X107689598Y-78019741D01*
X107674388Y-78031914D01*
X107659229Y-78044148D01*
X107644121Y-78056444D01*
X107629064Y-78068802D01*
X107614057Y-78081221D01*
X107599102Y-78093702D01*
X107584197Y-78106244D01*
X107569344Y-78118848D01*
X107554540Y-78131514D01*
X107539788Y-78144242D01*
X107525086Y-78157031D01*
X107510434Y-78169882D01*
X107495833Y-78182796D01*
X107481282Y-78195771D01*
X107466782Y-78208809D01*
X107452332Y-78221909D01*
X107437932Y-78235071D01*
X107423582Y-78248295D01*
X107409283Y-78261582D01*
X107395033Y-78274931D01*
X107380834Y-78288342D01*
X107366685Y-78301816D01*
X107352586Y-78315353D01*
X107338537Y-78328952D01*
X107324538Y-78342614D01*
X107310589Y-78356339D01*
X107296690Y-78370127D01*
X107282841Y-78383977D01*
X107269042Y-78397891D01*
X107255293Y-78411868D01*
X107241593Y-78425908D01*
X107227944Y-78440011D01*
X107214344Y-78454178D01*
X107200794Y-78468407D01*
X107187294Y-78482701D01*
X107173844Y-78497058D01*
X107160444Y-78511478D01*
X107147093Y-78525962D01*
X107133793Y-78540510D01*
X107120542Y-78555121D01*
X107107341Y-78569797D01*
X107094190Y-78584536D01*
X107081089Y-78599340D01*
X107068038Y-78614207D01*
X107055037Y-78629139D01*
X107042086Y-78644135D01*
X107029184Y-78659195D01*
X107016333Y-78674320D01*
X107003532Y-78689509D01*
X106990780Y-78704763D01*
X106978079Y-78720081D01*
X106965428Y-78735464D01*
X106952826Y-78750912D01*
X106940276Y-78766424D01*
X106927775Y-78782002D01*
X106915324Y-78797644D01*
X106902924Y-78813352D01*
X106890574Y-78829125D01*
X106878274Y-78844962D01*
X106866025Y-78860865D01*
X106853826Y-78876834D01*
X106841678Y-78892868D01*
X106829580Y-78908967D01*
X106817533Y-78925132D01*
X106805537Y-78941362D01*
X106793591Y-78957658D01*
X106781697Y-78974020D01*
X106769853Y-78990447D01*
X106758060Y-79006941D01*
X106746318Y-79023500D01*
X106734627Y-79040125D01*
X106722987Y-79056816D01*
X106711399Y-79073573D01*
X106699862Y-79090397D01*
X106688376Y-79107286D01*
X106676942Y-79124242D01*
X106665559Y-79141264D01*
X106654228Y-79158352D01*
X106642949Y-79175507D01*
X106631722Y-79192728D01*
X106620546Y-79210016D01*
X106609423Y-79227370D01*
X106598352Y-79244790D01*
X106587333Y-79262277D01*
X106576367Y-79279831D01*
X106565453Y-79297451D01*
X106554591Y-79315138D01*
X106543783Y-79332891D01*
X106533027Y-79350712D01*
X106522324Y-79368599D01*
X106511674Y-79386552D01*
X106501078Y-79404573D01*
X106490534Y-79422660D01*
X106480044Y-79440814D01*
X106469608Y-79459034D01*
X106459226Y-79477322D01*
X106448897Y-79495676D01*
X106438623Y-79514097D01*
X106428402Y-79532584D01*
X106418236Y-79551138D01*
X106408124Y-79569759D01*
X106398067Y-79588447D01*
X106388065Y-79607201D01*
X106378117Y-79626022D01*
X106368225Y-79644909D01*
X106358388Y-79663863D01*
X106348606Y-79682883D01*
X106338880Y-79701970D01*
X106329209Y-79721123D01*
X106319595Y-79740342D01*
X106310036Y-79759628D01*
X106300534Y-79778979D01*
X106291088Y-79798397D01*
X106281699Y-79817880D01*
X106272366Y-79837430D01*
X106263091Y-79857045D01*
X106253873Y-79876726D01*
X106244712Y-79896472D01*
X106235608Y-79916284D01*
X106226563Y-79936161D01*
X106217575Y-79956103D01*
X106208646Y-79976110D01*
X106199775Y-79996182D01*
X106190963Y-80016319D01*
X106182209Y-80036520D01*
X106173515Y-80056785D01*
X106164879Y-80077115D01*
X106156303Y-80097508D01*
X106147787Y-80117965D01*
X106139331Y-80138486D01*
X106130935Y-80159070D01*
X106122600Y-80179716D01*
X106114325Y-80200426D01*
X106106111Y-80221198D01*
X106097958Y-80242032D01*
X106089866Y-80262928D01*
X106081836Y-80283885D01*
X106073868Y-80304904D01*
X106065962Y-80325983D01*
X106058119Y-80347124D01*
X106050338Y-80368324D01*
X106042620Y-80389584D01*
X106034965Y-80410904D01*
X106027374Y-80432282D01*
X106019846Y-80453719D01*
X106012383Y-80475214D01*
X106004984Y-80496767D01*
X105997649Y-80518377D01*
X105990380Y-80540044D01*
X105983175Y-80561766D01*
X105976036Y-80583545D01*
X105968963Y-80605378D01*
X105961956Y-80627265D01*
X105955015Y-80649207D01*
X105948141Y-80671201D01*
X105941334Y-80693248D01*
X105934594Y-80715347D01*
X105927922Y-80737497D01*
X105921318Y-80759697D01*
X105914782Y-80781946D01*
X105908315Y-80804244D01*
X105901917Y-80826590D01*
X105895588Y-80848983D01*
X105889329Y-80871422D01*
X105883139Y-80893906D01*
X105877021Y-80916434D01*
X105870973Y-80939006D01*
X105864996Y-80961619D01*
X105859090Y-80984273D01*
X105853256Y-81006967D01*
X105847495Y-81029699D01*
X105841806Y-81052469D01*
X105836190Y-81075274D01*
X105830647Y-81098114D01*
X105825178Y-81120987D01*
X105819784Y-81143892D01*
X105814463Y-81166827D01*
X105809218Y-81189790D01*
X105804048Y-81212781D01*
X105798954Y-81235796D01*
X105793936Y-81258835D01*
X105788994Y-81281895D01*
X105784130Y-81304974D01*
X105779343Y-81328071D01*
X105774634Y-81351183D01*
X105770003Y-81374307D01*
X105765451Y-81397442D01*
X105760979Y-81420586D01*
X105756586Y-81443734D01*
X105752273Y-81466885D01*
X105748041Y-81490037D01*
X105743890Y-81513184D01*
X105739820Y-81536326D01*
X105735833Y-81559458D01*
X105731928Y-81582577D01*
X105728107Y-81605679D01*
X105724369Y-81628761D01*
X105720715Y-81651818D01*
X105717146Y-81674846D01*
X105713662Y-81697841D01*
X105710263Y-81720797D01*
X105706951Y-81743711D01*
X105703726Y-81766575D01*
X105700588Y-81789386D01*
X105697538Y-81812136D01*
X105694576Y-81834819D01*
X105691704Y-81857429D01*
X105688921Y-81879958D01*
X105686229Y-81902398D01*
X105683627Y-81924741D01*
X105681117Y-81946978D01*
X105678699Y-81969099D01*
X105676373Y-81991094D01*
X105674141Y-82012951D01*
X105672003Y-82034658D01*
X105669960Y-82056202D01*
X105668012Y-82077568D01*
X105666160Y-82098741D01*
X105664405Y-82119701D01*
X105662747Y-82140430D01*
X105661188Y-82160905D01*
X105659727Y-82181103D01*
X105658366Y-82200995D01*
X105657105Y-82220550D01*
X105655945Y-82239732D01*
X105654887Y-82258497D01*
X105653931Y-82276797D01*
X105653079Y-82294572D01*
X105652330Y-82311749D01*
X105651686Y-82328236D01*
X105651146Y-82343916D01*
X105650712Y-82358629D01*
X105650383Y-82372147D01*
X105650158Y-82384110D01*
X105650035Y-82393857D01*
X105650000Y-82400000D01*
X145450000Y-76850000D02*
X145463682Y-76850010D01*
X145477342Y-76850040D01*
X145490979Y-76850090D01*
X145504593Y-76850160D01*
X145518185Y-76850249D01*
X145531754Y-76850359D01*
X145545300Y-76850488D01*
X145558824Y-76850637D01*
X145572325Y-76850806D01*
X145585804Y-76850994D01*
X145599260Y-76851203D01*
X145612694Y-76851430D01*
X145626106Y-76851678D01*
X145639495Y-76851945D01*
X145652862Y-76852231D01*
X145666206Y-76852537D01*
X145679528Y-76852863D01*
X145692828Y-76853208D01*
X145706106Y-76853572D01*
X145719362Y-76853956D01*
X145732595Y-76854359D01*
X145745807Y-76854782D01*
X145758996Y-76855223D01*
X145772163Y-76855684D01*
X145785309Y-76856165D01*
X145798432Y-76856664D01*
X145811534Y-76857183D01*
X145824613Y-76857720D01*
X145837671Y-76858277D01*
X145850706Y-76858853D01*
X145863721Y-76859448D01*
X145876713Y-76860062D01*
X145889683Y-76860695D01*
X145902632Y-76861346D01*
X145915559Y-76862017D01*
X145928465Y-76862707D01*
X145941349Y-76863415D01*
X145954211Y-76864143D01*
X145967052Y-76864889D01*
X145979871Y-76865654D01*
X145992669Y-76866437D01*
X146005445Y-76867240D01*
X146018200Y-76868061D01*
X146030934Y-76868900D01*
X146043646Y-76869759D01*
X146056337Y-76870635D01*
X146069007Y-76871531D01*
X146081655Y-76872445D01*
X146094282Y-76873377D01*
X146106888Y-76874328D01*
X146119473Y-76875298D01*
X146132037Y-76876285D01*
X146144580Y-76877291D01*
X146157101Y-76878316D01*
X146169602Y-76879359D01*
X146182081Y-76880420D01*
X146194540Y-76881499D01*
X146206977Y-76882597D01*
X146219394Y-76883713D01*
X146231790Y-76884847D01*
X146244165Y-76885999D01*
X146256519Y-76887170D01*
X146268853Y-76888358D01*
X146281166Y-76889565D01*
X146293458Y-76890789D01*
X146305729Y-76892032D01*
X146317980Y-76893292D01*
X146330210Y-76894571D01*
X146342420Y-76895868D01*
X146354609Y-76897182D01*
X146366778Y-76898514D01*
X146378925Y-76899864D01*
X146391053Y-76901232D01*
X146403160Y-76902618D01*
X146415247Y-76904022D01*
X146427313Y-76905443D01*
X146439360Y-76906882D01*
X146451385Y-76908339D01*
X146463391Y-76909813D01*
X146475376Y-76911305D01*
X146487342Y-76912815D01*
X146499286Y-76914342D01*
X146511212Y-76915887D01*
X146523116Y-76917450D01*
X146535001Y-76919030D01*
X146546865Y-76920627D01*
X146558710Y-76922242D01*
X146570534Y-76923874D01*
X146582339Y-76925524D01*
X146594123Y-76927191D01*
X146605889Y-76928876D01*
X146617633Y-76930577D01*
X146629359Y-76932297D01*
X146641064Y-76934033D01*
X146652750Y-76935787D01*
X146664415Y-76937558D01*
X146676062Y-76939346D01*
X146687687Y-76941151D01*
X146699295Y-76942974D01*
X146710881Y-76944813D01*
X146722450Y-76946670D01*
X146733997Y-76948544D01*
X146745526Y-76950435D01*
X146757035Y-76952343D01*
X146768525Y-76954268D01*
X146779994Y-76956210D01*
X146791446Y-76958169D01*
X146802876Y-76960145D01*
X146814289Y-76962138D01*
X146825681Y-76964148D01*
X146837055Y-76966175D01*
X146848409Y-76968218D01*
X146859744Y-76970279D01*
X146871059Y-76972356D01*
X146882357Y-76974450D01*
X146893633Y-76976561D01*
X146904892Y-76978688D01*
X146916131Y-76980832D01*
X146927352Y-76982994D01*
X146938552Y-76985171D01*
X146949735Y-76987366D01*
X146960898Y-76989576D01*
X146972043Y-76991804D01*
X146983167Y-76994048D01*
X146994275Y-76996309D01*
X147005362Y-76998586D01*
X147016432Y-77000880D01*
X147027481Y-77003190D01*
X147038513Y-77005518D01*
X147049525Y-77007861D01*
X147060520Y-77010221D01*
X147071494Y-77012597D01*
X147082452Y-77014989D01*
X147093389Y-77017398D01*
X147104310Y-77019824D01*
X147115209Y-77022265D01*
X147126093Y-77024724D01*
X147136956Y-77027198D01*
X147147802Y-77029689D01*
X147158628Y-77032195D01*
X147169438Y-77034719D01*
X147180227Y-77037258D01*
X147191000Y-77039814D01*
X147201753Y-77042385D01*
X147212489Y-77044973D01*
X147223205Y-77047577D01*
X147233905Y-77050198D01*
X147244585Y-77052834D01*
X147255248Y-77055486D01*
X147265891Y-77058155D01*
X147276519Y-77060839D01*
X147287126Y-77063540D01*
X147297717Y-77066257D01*
X147308288Y-77068989D01*
X147318843Y-77071738D01*
X147329378Y-77074502D01*
X147339897Y-77077283D01*
X147350396Y-77080079D01*
X147360879Y-77082892D01*
X147371342Y-77085719D01*
X147381790Y-77088564D01*
X147392218Y-77091423D01*
X147402630Y-77094300D01*
X147413022Y-77097191D01*
X147423398Y-77100099D01*
X147433755Y-77103021D01*
X147444096Y-77105961D01*
X147454417Y-77108915D01*
X147464723Y-77111886D01*
X147475009Y-77114872D01*
X147485280Y-77117874D01*
X147495531Y-77120891D01*
X147505767Y-77123925D01*
X147515983Y-77126973D01*
X147526184Y-77130038D01*
X147536364Y-77133118D01*
X147546531Y-77136214D01*
X147556676Y-77139325D01*
X147566808Y-77142452D01*
X147576919Y-77145594D01*
X147587016Y-77148753D01*
X147597093Y-77151926D01*
X147607155Y-77155115D01*
X147617197Y-77158319D01*
X147627225Y-77161540D01*
X147637233Y-77164775D01*
X147647227Y-77168026D01*
X147657200Y-77171292D01*
X147667160Y-77174574D01*
X147677099Y-77177871D01*
X147687024Y-77181184D01*
X147696930Y-77184512D01*
X147706821Y-77187856D01*
X147716692Y-77191214D01*
X147726550Y-77194588D01*
X147736387Y-77197977D01*
X147746211Y-77201382D01*
X147756015Y-77204802D01*
X147765805Y-77208238D01*
X147775575Y-77211688D01*
X147785331Y-77215154D01*
X147795068Y-77218634D01*
X147814494Y-77225642D01*
X147833853Y-77232711D01*
X147853146Y-77239840D01*
X147872372Y-77247030D01*
X147891532Y-77254280D01*
X147910626Y-77261591D01*
X147929655Y-77268963D01*
X147948618Y-77276394D01*
X147967515Y-77283886D01*
X147986348Y-77291437D01*
X148005115Y-77299049D01*
X148023818Y-77306721D01*
X148042456Y-77314452D01*
X148061029Y-77322243D01*
X148079539Y-77330094D01*
X148097984Y-77338004D01*
X148116365Y-77345974D01*
X148134683Y-77354003D01*
X148152937Y-77362092D01*
X148171128Y-77370240D01*
X148189256Y-77378447D01*
X148207320Y-77386713D01*
X148225322Y-77395039D01*
X148243261Y-77403423D01*
X148261138Y-77411866D01*
X148278953Y-77420369D01*
X148296705Y-77428930D01*
X148314395Y-77437550D01*
X148332024Y-77446228D01*
X148349591Y-77454966D01*
X148367096Y-77463762D01*
X148384541Y-77472616D01*
X148401924Y-77481529D01*
X148419246Y-77490501D01*
X148436507Y-77499530D01*
X148453708Y-77508619D01*
X148470848Y-77517766D01*
X148487928Y-77526971D01*
X148504948Y-77536234D01*
X148521907Y-77545555D01*
X148538807Y-77554935D01*
X148555647Y-77564373D01*
X148572427Y-77573869D01*
X148589148Y-77583423D01*
X148605810Y-77593036D01*
X148622412Y-77602706D01*
X148638956Y-77612434D01*
X148655440Y-77622221D01*
X148671866Y-77632065D01*
X148688233Y-77641967D01*
X148704542Y-77651928D01*
X148720792Y-77661946D01*
X148736985Y-77672022D01*
X148753119Y-77682156D01*
X148769195Y-77692348D01*
X148785213Y-77702598D01*
X148801174Y-77712906D01*
X148817077Y-77723272D01*
X148832922Y-77733695D01*
X148848711Y-77744177D01*
X148864442Y-77754716D01*
X148880116Y-77765313D01*
X148895733Y-77775968D01*
X148911293Y-77786681D01*
X148926796Y-77797452D01*
X148942243Y-77808280D01*
X148957633Y-77819167D01*
X148972967Y-77830111D01*
X148988244Y-77841113D01*
X149003465Y-77852173D01*
X149018630Y-77863292D01*
X149033739Y-77874468D01*
X149048792Y-77885702D01*
X149063789Y-77896993D01*
X149078731Y-77908343D01*
X149093616Y-77919751D01*
X149108447Y-77931217D01*
X149123221Y-77942741D01*
X149137941Y-77954323D01*
X149152605Y-77965963D01*
X149167213Y-77977662D01*
X149181767Y-77989418D01*
X149196265Y-78001232D01*
X149210709Y-78013105D01*
X149225098Y-78025036D01*
X149239431Y-78037025D01*
X149253710Y-78049072D01*
X149267934Y-78061178D01*
X149282104Y-78073342D01*
X149296219Y-78085565D01*
X149310279Y-78097845D01*
X149324285Y-78110185D01*
X149338237Y-78122582D01*
X149352134Y-78135039D01*
X149365977Y-78147553D01*
X149379766Y-78160127D01*
X149393500Y-78172759D01*
X149407181Y-78185449D01*
X149420807Y-78198199D01*
X149434379Y-78211007D01*
X149447897Y-78223874D01*
X149461361Y-78236800D01*
X149474771Y-78249784D01*
X149488128Y-78262828D01*
X149501430Y-78275930D01*
X149514678Y-78289092D01*
X149527873Y-78302312D01*
X149541014Y-78315592D01*
X149554101Y-78328931D01*
X149567134Y-78342329D01*
X149580114Y-78355786D01*
X149593040Y-78369303D01*
X149605912Y-78382879D01*
X149618730Y-78396514D01*
X149631495Y-78410209D01*
X149644206Y-78423963D01*
X149656863Y-78437777D01*
X149669467Y-78451650D01*
X149682017Y-78465583D01*
X149694513Y-78479575D01*
X149706955Y-78493628D01*
X149719344Y-78507740D01*
X149731679Y-78521912D01*
X149743961Y-78536144D01*
X149756188Y-78550435D01*
X149768362Y-78564787D01*
X149780482Y-78579198D01*
X149792549Y-78593670D01*
X149804561Y-78608202D01*
X149816520Y-78622794D01*
X149828425Y-78637446D01*
X149840276Y-78652158D01*
X149852073Y-78666931D01*
X149863816Y-78681764D01*
X149875504Y-78696657D01*
X149887139Y-78711611D01*
X149898720Y-78726625D01*
X149910247Y-78741699D01*
X149921719Y-78756834D01*
X149933137Y-78772030D01*
X149944501Y-78787286D01*
X149955810Y-78802603D01*
X149967065Y-78817980D01*
X149978266Y-78833418D01*
X149989412Y-78848917D01*
X150000503Y-78864476D01*
X150011540Y-78880097D01*
X150022522Y-78895778D01*
X150033449Y-78911519D01*
X150044321Y-78927322D01*
X150055138Y-78943185D01*
X150065900Y-78959110D01*
X150076607Y-78975095D01*
X150087258Y-78991141D01*
X150097854Y-79007248D01*
X150108395Y-79023415D01*
X150118880Y-79039644D01*
X150129310Y-79055934D01*
X150139683Y-79072284D01*
X150150001Y-79088695D01*
X150160263Y-79105167D01*
X150170469Y-79121700D01*
X150180619Y-79138294D01*
X150190712Y-79154949D01*
X150200749Y-79171664D01*
X150210729Y-79188441D01*
X150220653Y-79205277D01*
X150230519Y-79222175D01*
X150240329Y-79239133D01*
X150250082Y-79256152D01*
X150259778Y-79273232D01*
X150269416Y-79290372D01*
X150278996Y-79307572D01*
X150288519Y-79324833D01*
X150297984Y-79342154D01*
X150307392Y-79359536D01*
X150316741Y-79376978D01*
X150326032Y-79394479D01*
X150335264Y-79412041D01*
X150344438Y-79429663D01*
X150353553Y-79447344D01*
X150362609Y-79465085D01*
X150371606Y-79482886D01*
X150380544Y-79500746D01*
X150389422Y-79518666D01*
X150398240Y-79536644D01*
X150406999Y-79554682D01*
X150415698Y-79572779D01*
X150424336Y-79590934D01*
X150432914Y-79609148D01*
X150441432Y-79627420D01*
X150449888Y-79645750D01*
X150458284Y-79664139D01*
X150466618Y-79682585D01*
X150474891Y-79701089D01*
X150483102Y-79719650D01*
X150491251Y-79738268D01*
X150499338Y-79756943D01*
X150507363Y-79775675D01*
X150515325Y-79794462D01*
X150523225Y-79813306D01*
X150531061Y-79832206D01*
X150538834Y-79851161D01*
X150546544Y-79870171D01*
X150554190Y-79889235D01*
X150561771Y-79908354D01*
X150569289Y-79927528D01*
X150576742Y-79946754D01*
X150584130Y-79966034D01*
X150591453Y-79985367D01*
X150598710Y-80004752D01*
X150605903Y-80024188D01*
X150613029Y-80043677D01*
X150620089Y-80063216D01*
X150627082Y-80082805D01*
X150634009Y-80102444D01*
X150640869Y-80122133D01*
X150647661Y-80141870D01*
X150654386Y-80161656D01*
X150661043Y-80181488D01*
X150667631Y-80201368D01*
X150674151Y-80221293D01*
X150680602Y-80241264D01*
X150686984Y-80261280D01*
X150693297Y-80281339D01*
X150699539Y-80301442D01*
X150705711Y-80321586D01*
X150711813Y-80341772D01*
X150717844Y-80361998D01*
X150723804Y-80382264D01*
X150729692Y-80402568D01*
X150735508Y-80422910D01*
X150741252Y-80443288D01*
X150746923Y-80463701D01*
X150752521Y-80484148D01*
X150758046Y-80504628D01*
X150763497Y-80525140D01*
X150768874Y-80545682D01*
X150774176Y-80566252D01*
X150779403Y-80586851D01*
X150784555Y-80607475D01*
X150789631Y-80628123D01*
X150794631Y-80648794D01*
X150799554Y-80669486D01*
X150804401Y-80690198D01*
X150809170Y-80710926D01*
X150813861Y-80731671D01*
X150818473Y-80752428D01*
X150823007Y-80773197D01*
X150827462Y-80793974D01*
X150831837Y-80814758D01*
X150836132Y-80835547D01*
X150840346Y-80856337D01*
X150844480Y-80877125D01*
X150848531Y-80897910D01*
X150852501Y-80918687D01*
X150856388Y-80939455D01*
X150860192Y-80960209D01*
X150863913Y-80980946D01*
X150867549Y-81001662D01*
X150871101Y-81022353D01*
X150874568Y-81043016D01*
X150877949Y-81063646D01*
X150881243Y-81084238D01*
X150884452Y-81104787D01*
X150887572Y-81125288D01*
X150890605Y-81145736D01*
X150893549Y-81166125D01*
X150896405Y-81186447D01*
X150899170Y-81206698D01*
X150901845Y-81226869D01*
X150904430Y-81246952D01*
X150906923Y-81266939D01*
X150909323Y-81286822D01*
X150911631Y-81306590D01*
X150913845Y-81326234D01*
X150915965Y-81345740D01*
X150917991Y-81365098D01*
X150919920Y-81384293D01*
X150921754Y-81403310D01*
X150923490Y-81422132D01*
X150925129Y-81440741D01*
X150926670Y-81459116D01*
X150928111Y-81477234D01*
X150929452Y-81495069D01*
X150930692Y-81512589D01*
X150931831Y-81529761D01*
X150932868Y-81546543D01*
X150933801Y-81562887D01*
X150934631Y-81578733D01*
X150935355Y-81594011D01*
X150935975Y-81608628D01*
X150936488Y-81622463D01*
X150936896Y-81635350D01*
X150937196Y-81647042D01*
X150937392Y-81657128D01*
X150937486Y-81664770D01*
X150937500Y-81667500D01*
D10*
X105650000Y-82400000D02*
X105675000Y-102450000D01*
X111500000Y-76850000D02*
X145450000Y-76850000D01*
X150937500Y-81667500D02*
X150937500Y-101692500D01*
M02*
