M48
; DRILL file {KiCad 9.0.6} date 2026-08-19T11:20:27+0530
; FORMAT={-:-/ absolute / metric / decimal}
; #@! TF.CreationDate,2026-08-19T11:20:27+05:30
; #@! TF.GenerationSoftware,Kicad,Pcbnew,9.0.6
; #@! TF.FileFunction,Plated,1,4,PTH
FMAT,2
METRIC
; #@! TA.AperFunction,Plated,PTH,ViaDrill
T1C0.350
; #@! TA.AperFunction,Plated,PTH,ComponentDrill
T2C1.000
; #@! TA.AperFunction,Plated,PTH,ComponentDrill
T3C2.200
%
G90
G05
T1
X106.7Y-96.25
X107.25Y-92.05
X108.3Y-101.35
X108.55Y-95.6
X108.85Y-98.15
X109.0Y-88.7
X109.6Y-95.279
X109.6Y-96.179
X109.7Y-84.9
X109.8Y-94.401
X109.8Y-97.5
X109.95Y-86.95
X110.128Y-93.563
X110.9Y-93.1
X111.65Y-86.0
X111.8Y-99.7
X111.9Y-98.3
X112.8Y-106.9
X113.3Y-93.7
X113.3Y-94.4
X113.3Y-95.1
X113.3Y-95.8
X113.3Y-96.5
X113.3Y-97.2
X113.35Y-103.0
X114.2Y-93.7
X114.2Y-94.4
X114.2Y-95.1
X114.2Y-95.8
X114.2Y-96.5
X114.2Y-97.2
X114.95Y-102.0
X115.0Y-78.5
X115.1Y-93.7
X115.1Y-94.4
X115.1Y-95.1
X115.1Y-95.8
X115.1Y-96.5
X115.1Y-97.2
X115.3Y-91.25
X115.3Y-105.2
X115.9Y-93.7
X115.9Y-94.4
X115.9Y-95.1
X115.9Y-95.8
X115.9Y-96.5
X115.9Y-97.2
X116.3Y-106.2
X116.43Y-90.26
X116.45Y-88.85
X116.8Y-93.7
X116.8Y-94.4
X116.8Y-95.1
X116.8Y-95.8
X116.8Y-96.5
X116.8Y-97.2
X117.05Y-87.6
X117.2Y-80.2
X117.7Y-103.8
X117.9Y-105.5
X118.0Y-92.6
X118.8Y-89.4
X119.1Y-92.6
X119.25Y-104.55
X119.55Y-88.75
X119.7Y-99.2
X120.15Y-86.35
X120.25Y-92.6
X120.3Y-95.939
X120.305Y-97.075
X120.305Y-98.225
X120.6Y-94.539
X120.7Y-88.75
X121.3Y-86.35
X121.45Y-92.6
X121.5Y-96.7
X121.8Y-94.7
X121.85Y-88.75
X122.1Y-99.2
X122.5Y-86.4
X122.6Y-92.6
X122.9Y-94.7
X123.0Y-88.75
X123.75Y-86.4
X123.85Y-92.6
X123.95Y-94.7
X124.15Y-88.75
X124.9Y-86.4
X125.0Y-92.6
X125.0Y-94.7
X125.2Y-82.1
X125.2Y-84.047
X125.3Y-88.75
X125.3Y-99.2
X125.9Y-96.75
X125.95Y-103.05
X126.05Y-86.4
X126.15Y-92.6
X126.55Y-88.75
X127.1Y-96.0
X127.25Y-86.4
X127.25Y-92.6
X127.65Y-83.95
X127.75Y-88.75
X127.75Y-102.45
X128.0Y-82.3
X128.15Y-96.0
X128.15Y-98.2
X128.4Y-86.4
X128.4Y-92.6
X128.9Y-88.75
X129.3Y-94.58
X129.55Y-86.45
X129.55Y-92.6
X129.8Y-101.95
X130.0Y-88.8
X130.15Y-83.84
X130.45Y-95.85
X130.7Y-82.2
X130.7Y-92.6
X130.75Y-86.65
X130.95Y-89.3
X131.5Y-95.85
X131.6Y-90.0
X131.65Y-98.75
X131.85Y-87.15
X131.85Y-92.6
X132.3Y-90.65
X132.55Y-101.7
X132.75Y-92.1
X132.85Y-87.8
X133.15Y-91.25
X133.15Y-97.0
X133.7Y-86.1
X133.7Y-88.55
X133.75Y-93.95
X134.4Y-89.2
X134.6Y-93.25
X135.0Y-103.1
X135.1Y-101.15
X135.6Y-84.3
X135.7Y-90.6
X135.7Y-91.3
X135.7Y-92.0
X135.9Y-96.1
X136.433Y-90.6
X136.433Y-91.3
X136.433Y-92.0
X136.5Y-98.55
X137.2Y-90.6
X137.2Y-91.3
X137.2Y-92.0
X138.98Y-94.8
X139.0Y-102.2
X139.45Y-90.0
X139.6Y-92.72
X139.6Y-93.71
X140.5Y-90.0
X140.55Y-83.0
X140.75Y-93.08
X141.1Y-96.6
X141.3Y-84.5
X141.4Y-87.4
X141.55Y-90.0
X141.85Y-91.985
X142.4Y-105.7
X142.6Y-90.0
X143.45Y-92.0
X143.6Y-90.0
X143.7Y-101.9
X144.6Y-98.3
X144.65Y-90.0
X144.7Y-86.3
X144.9Y-93.6
X144.9Y-94.8
X145.7Y-90.0
X146.7Y-90.0
X146.8Y-99.5
X146.9Y-92.0
X147.65Y-90.0
X147.9Y-92.05
X148.55Y-90.0
X148.85Y-92.05
X149.3Y-99.2
X149.55Y-90.0
X149.8Y-92.0
X150.0Y-96.8
X150.05Y-85.15
T2
X120.96Y-105.6
X121.5Y-79.35
X123.5Y-105.6
X124.04Y-79.35
X126.04Y-105.6
X126.58Y-79.35
X128.58Y-105.6
X129.12Y-79.35
X131.12Y-105.6
X131.66Y-79.35
X133.66Y-105.6
X134.2Y-79.35
X136.2Y-105.6
X136.74Y-79.35
X138.74Y-105.6
X139.28Y-79.35
T3
X110.05Y-80.85
X110.1Y-104.6
X146.45Y-80.7
X147.45Y-103.85
M30
