%TF.GenerationSoftware,KiCad,Pcbnew,9.0.6*%
%TF.CreationDate,2026-08-19T00:14:21+05:30*%
%TF.ProjectId,RF_Transiever,52465f54-7261-46e7-9369-657665722e6b,rev?*%
%TF.SameCoordinates,Original*%
%TF.FileFunction,Paste,Top*%
%TF.FilePolarity,Positive*%
%FSLAX46Y46*%
G04 Gerber Fmt 4.6, Leading zero omitted, Abs format (unit mm)*
G04 Created by KiCad (PCBNEW 9.0.6) date 2026-08-19 00:14:21*
%MOMM*%
%LPD*%
G01*
G04 APERTURE LIST*
G04 Aperture macros list*
%AMRoundRect*
0 Rectangle with rounded corners*
0 $1 Rounding radius*
0 $2 $3 $4 $5 $6 $7 $8 $9 X,Y pos of 4 corners*
0 Add a 4 corners polygon primitive as box body*
4,1,4,$2,$3,$4,$5,$6,$7,$8,$9,$2,$3,0*
0 Add four circle primitives for the rounded corners*
1,1,$1+$1,$2,$3*
1,1,$1+$1,$4,$5*
1,1,$1+$1,$6,$7*
1,1,$1+$1,$8,$9*
0 Add four rect primitives between the rounded corners*
20,1,$1+$1,$2,$3,$4,$5,0*
20,1,$1+$1,$4,$5,$6,$7,0*
20,1,$1+$1,$6,$7,$8,$9,0*
20,1,$1+$1,$8,$9,$2,$3,0*%
G04 Aperture macros list end*
%ADD10RoundRect,0.140000X-0.170000X0.140000X-0.170000X-0.140000X0.170000X-0.140000X0.170000X0.140000X0*%
%ADD11RoundRect,0.147500X-0.147500X-0.172500X0.147500X-0.172500X0.147500X0.172500X-0.147500X0.172500X0*%
%ADD12RoundRect,0.140000X0.170000X-0.140000X0.170000X0.140000X-0.170000X0.140000X-0.170000X-0.140000X0*%
%ADD13RoundRect,0.200000X-0.200000X-0.275000X0.200000X-0.275000X0.200000X0.275000X-0.200000X0.275000X0*%
%ADD14RoundRect,0.135000X-0.135000X-0.185000X0.135000X-0.185000X0.135000X0.185000X-0.135000X0.185000X0*%
%ADD15RoundRect,0.140000X-0.140000X-0.170000X0.140000X-0.170000X0.140000X0.170000X-0.140000X0.170000X0*%
%ADD16R,3.810000X0.762000*%
%ADD17R,3.810000X0.812800*%
%ADD18RoundRect,0.200000X0.200000X0.275000X-0.200000X0.275000X-0.200000X-0.275000X0.200000X-0.275000X0*%
%ADD19RoundRect,0.147500X0.172500X-0.147500X0.172500X0.147500X-0.172500X0.147500X-0.172500X-0.147500X0*%
%ADD20RoundRect,0.140000X0.140000X0.170000X-0.140000X0.170000X-0.140000X-0.170000X0.140000X-0.170000X0*%
%ADD21R,0.609600X0.812800*%
%ADD22R,0.508000X1.028700*%
%ADD23RoundRect,0.249999X-0.395001X0.395001X-0.395001X-0.395001X0.395001X-0.395001X0.395001X0.395001X0*%
%ADD24RoundRect,0.075000X-0.075000X0.312500X-0.075000X-0.312500X0.075000X-0.312500X0.075000X0.312500X0*%
%ADD25RoundRect,0.075000X-0.312500X0.075000X-0.312500X-0.075000X0.312500X-0.075000X0.312500X0.075000X0*%
%ADD26RoundRect,0.147500X-0.172500X0.147500X-0.172500X-0.147500X0.172500X-0.147500X0.172500X0.147500X0*%
%ADD27R,0.863600X0.254000*%
%ADD28R,0.254000X0.863600*%
%ADD29R,2.387600X2.387600*%
G04 APERTURE END LIST*
D10*
%TO.C,C21*%
X132600000Y-93620000D03*
X132600000Y-94580000D03*
%TD*%
D11*
%TO.C,L4*%
X130465000Y-93650000D03*
X131435000Y-93650000D03*
%TD*%
D12*
%TO.C,C9*%
X118735000Y-87680000D03*
X118735000Y-86720000D03*
%TD*%
D10*
%TO.C,C13*%
X122650000Y-95770000D03*
X122650000Y-96730000D03*
%TD*%
D11*
%TO.C,L5*%
X127165000Y-93650000D03*
X128135000Y-93650000D03*
%TD*%
D13*
%TO.C,R1*%
X110875000Y-90950000D03*
X112525000Y-90950000D03*
%TD*%
D14*
%TO.C,R4*%
X121975000Y-87650000D03*
X122995000Y-87650000D03*
%TD*%
D10*
%TO.C,C22*%
X141850000Y-91025000D03*
X141850000Y-91985000D03*
%TD*%
D15*
%TO.C,C5*%
X119345000Y-97075000D03*
X120305000Y-97075000D03*
%TD*%
D16*
%TO.C,J3*%
X148287500Y-91000000D03*
D17*
X148287500Y-88230000D03*
X148287500Y-93770000D03*
%TD*%
D12*
%TO.C,C1*%
X114000000Y-90880000D03*
X114000000Y-89920000D03*
%TD*%
D15*
%TO.C,C11*%
X124130000Y-87650000D03*
X125090000Y-87650000D03*
%TD*%
D12*
%TO.C,C2*%
X116400000Y-91250000D03*
X116400000Y-90290000D03*
%TD*%
D10*
%TO.C,C14*%
X121475000Y-95770000D03*
X121475000Y-96730000D03*
%TD*%
D13*
%TO.C,R2*%
X140075000Y-99575000D03*
X141725000Y-99575000D03*
%TD*%
D10*
%TO.C,C23*%
X145050000Y-91020000D03*
X145050000Y-91980000D03*
%TD*%
D18*
%TO.C,R3*%
X137425000Y-87605000D03*
X135775000Y-87605000D03*
%TD*%
D15*
%TO.C,C19*%
X127170000Y-94950000D03*
X128130000Y-94950000D03*
%TD*%
%TO.C,C20*%
X130470000Y-94800000D03*
X131430000Y-94800000D03*
%TD*%
D19*
%TO.C,L7*%
X117600000Y-89960000D03*
X117600000Y-88990000D03*
%TD*%
D20*
%TO.C,C16*%
X138980000Y-94800000D03*
X138020000Y-94800000D03*
%TD*%
D21*
%TO.C,XTAL1*%
X112650000Y-88050002D03*
X110849998Y-88050002D03*
X110849998Y-89250000D03*
X112650000Y-89250000D03*
%TD*%
D15*
%TO.C,C12*%
X119345000Y-95900000D03*
X120305000Y-95900000D03*
%TD*%
%TO.C,C25*%
X139770000Y-91055000D03*
X140730000Y-91055000D03*
%TD*%
%TO.C,C24*%
X142220000Y-93900000D03*
X143180000Y-93900000D03*
%TD*%
D22*
%TO.C,U3*%
X140249999Y-97939850D03*
X141200000Y-97939850D03*
X142150001Y-97939850D03*
X142150001Y-95260150D03*
X140249999Y-95260150D03*
%TD*%
D11*
%TO.C,L6*%
X142965000Y-91055000D03*
X143935000Y-91055000D03*
%TD*%
D23*
%TO.C,U1*%
X116700000Y-93900000D03*
X115100000Y-93900000D03*
X113500000Y-93900000D03*
X116700000Y-95500000D03*
X115100000Y-95500000D03*
X113500000Y-95500000D03*
X116700000Y-97100000D03*
X115100000Y-97100000D03*
X113500000Y-97100000D03*
D24*
X117050000Y-92512500D03*
X116400000Y-92512500D03*
X115750000Y-92512500D03*
X115100000Y-92512500D03*
X114450000Y-92512500D03*
X113800000Y-92512500D03*
X113150000Y-92512500D03*
D25*
X112112500Y-93550000D03*
X112112500Y-94200000D03*
X112112500Y-94850000D03*
X112112500Y-95500000D03*
X112112500Y-96150000D03*
X112112500Y-96800000D03*
X112112500Y-97450000D03*
D24*
X113150000Y-98487500D03*
X113800000Y-98487500D03*
X114450000Y-98487500D03*
X115100000Y-98487500D03*
X115750000Y-98487500D03*
X116400000Y-98487500D03*
X117050000Y-98487500D03*
D25*
X118087500Y-97450000D03*
X118087500Y-96800000D03*
X118087500Y-96150000D03*
X118087500Y-95500000D03*
X118087500Y-94850000D03*
X118087500Y-94200000D03*
X118087500Y-93550000D03*
%TD*%
D10*
%TO.C,C18*%
X129300000Y-93620000D03*
X129300000Y-94580000D03*
%TD*%
D15*
%TO.C,C3*%
X119345000Y-98225000D03*
X120305000Y-98225000D03*
%TD*%
D10*
%TO.C,C6*%
X110750000Y-97470000D03*
X110750000Y-98430000D03*
%TD*%
D15*
%TO.C,C26*%
X121720000Y-93650000D03*
X122680000Y-93650000D03*
%TD*%
D10*
%TO.C,C7*%
X139600000Y-92720000D03*
X139600000Y-93680000D03*
%TD*%
D26*
%TO.C,L3*%
X119450000Y-93615000D03*
X119450000Y-94585000D03*
%TD*%
D11*
%TO.C,L1*%
X123815000Y-93650000D03*
X124785000Y-93650000D03*
%TD*%
D12*
%TO.C,C4*%
X115300000Y-91250000D03*
X115300000Y-90290000D03*
%TD*%
D10*
%TO.C,C8*%
X140750000Y-92120000D03*
X140750000Y-93080000D03*
%TD*%
D11*
%TO.C,L2*%
X117565000Y-91025000D03*
X118535000Y-91025000D03*
%TD*%
D15*
%TO.C,C10*%
X119880000Y-87650000D03*
X120840000Y-87650000D03*
%TD*%
D10*
%TO.C,C15*%
X120600000Y-93620000D03*
X120600000Y-94580000D03*
%TD*%
%TO.C,C17*%
X126000000Y-93620000D03*
X126000000Y-94580000D03*
%TD*%
D27*
%TO.C,U2*%
X138300000Y-92305000D03*
X138300000Y-91655002D03*
X138300000Y-91005000D03*
X138300000Y-90355002D03*
D28*
X137408099Y-89463101D03*
X136758101Y-89463101D03*
X136108099Y-89463101D03*
X135458101Y-89463101D03*
D27*
X134566200Y-90355002D03*
X134566200Y-91005000D03*
X134566200Y-91655002D03*
X134566200Y-92305000D03*
D28*
X135458101Y-93196901D03*
X136108099Y-93196901D03*
X136758101Y-93196901D03*
X137408099Y-93196901D03*
D29*
X136433100Y-91330001D03*
%TD*%
M02*
