%TF.GenerationSoftware,KiCad,Pcbnew,9.0.6*%
%TF.CreationDate,2026-08-21T01:00:28+05:30*%
%TF.ProjectId,RF_Transiever,52465f54-7261-46e7-9369-657665722e6b,rev?*%
%TF.SameCoordinates,Original*%
%TF.FileFunction,Copper,L4,Bot*%
%TF.FilePolarity,Positive*%
%FSLAX46Y46*%
G04 Gerber Fmt 4.6, Leading zero omitted, Abs format (unit mm)*
G04 Created by KiCad (PCBNEW 9.0.6) date 2026-08-21 01:00:28*
%MOMM*%
%LPD*%
G01*
G04 APERTURE LIST*
%TA.AperFunction,ComponentPad*%
%ADD10C,4.400000*%
%TD*%
%TA.AperFunction,ComponentPad*%
%ADD11R,1.700000X1.700000*%
%TD*%
%TA.AperFunction,ComponentPad*%
%ADD12C,1.700000*%
%TD*%
%TA.AperFunction,ViaPad*%
%ADD13C,0.700000*%
%TD*%
%TA.AperFunction,ViaPad*%
%ADD14C,0.600000*%
%TD*%
%TA.AperFunction,Conductor*%
%ADD15C,0.300000*%
%TD*%
%TA.AperFunction,Conductor*%
%ADD16C,0.334500*%
%TD*%
G04 APERTURE END LIST*
D10*
%TO.P,H4,1,1*%
%TO.N,GND*%
X146080000Y-103980000D03*
%TD*%
%TO.P,H3,1,1*%
%TO.N,GND*%
X110100000Y-104600000D03*
%TD*%
%TO.P,H2,1,1*%
%TO.N,GND*%
X146450000Y-80700000D03*
%TD*%
%TO.P,H1,1,1*%
%TO.N,GND*%
X110050000Y-80850000D03*
%TD*%
D11*
%TO.P,J1,1,Pin_1*%
%TO.N,GND*%
X139280000Y-79350000D03*
D12*
%TO.P,J1,2,Pin_2*%
%TO.N,DIO5*%
X136740000Y-79350000D03*
%TO.P,J1,3,Pin_3*%
%TO.N,DIO4*%
X134200000Y-79350000D03*
%TO.P,J1,4,Pin_4*%
%TO.N,DIO3*%
X131660000Y-79350000D03*
%TO.P,J1,5,Pin_5*%
%TO.N,DIO2*%
X129120000Y-79350000D03*
%TO.P,J1,6,Pin_6*%
%TO.N,DIO1*%
X126580000Y-79350000D03*
%TO.P,J1,7,Pin_7*%
%TO.N,DIO0*%
X124040000Y-79350000D03*
%TO.P,J1,8,Pin_8*%
%TO.N,+3.3V*%
X121500000Y-79350000D03*
%TD*%
D11*
%TO.P,J2,1,Pin_1*%
%TO.N,GND*%
X138740000Y-105600000D03*
D12*
%TO.P,J2,2,Pin_2*%
%TO.N,VCTL*%
X136200000Y-105600000D03*
%TO.P,J2,3,Pin_3*%
%TO.N,CS*%
X133660000Y-105600000D03*
%TO.P,J2,4,Pin_4*%
%TO.N,MOSI*%
X131120000Y-105600000D03*
%TO.P,J2,5,Pin_5*%
%TO.N,MISO*%
X128580000Y-105600000D03*
%TO.P,J2,6,Pin_6*%
%TO.N,SCK*%
X126040000Y-105600000D03*
%TO.P,J2,7,Pin_7*%
%TO.N,NRST*%
X123500000Y-105600000D03*
%TO.P,J2,8,Pin_8*%
%TO.N,GND*%
X120960000Y-105600000D03*
%TD*%
D13*
%TO.N,GND*%
X124900000Y-86400000D03*
X127750000Y-102450000D03*
X121500000Y-96700000D03*
X141100000Y-96600000D03*
X137200000Y-92000000D03*
X119100000Y-92600000D03*
X134600000Y-93250000D03*
X135700000Y-90600000D03*
X131650000Y-98750000D03*
X130150000Y-83840000D03*
X126550000Y-88750000D03*
X115900000Y-97200000D03*
X115100000Y-96500000D03*
X108800000Y-86550000D03*
X147650000Y-90000000D03*
X142420000Y-88660000D03*
X141210000Y-95410000D03*
X122500000Y-86400000D03*
X139450000Y-90000000D03*
X123000000Y-88750000D03*
X113300000Y-95100000D03*
X132850000Y-87800000D03*
X131850000Y-87150000D03*
X124740000Y-107000000D03*
X139000000Y-102200000D03*
X112800000Y-106900000D03*
X133700000Y-86100000D03*
X135900000Y-96100000D03*
X129550000Y-92600000D03*
X144650000Y-90000000D03*
X137200000Y-90600000D03*
X130120000Y-89990000D03*
X144600000Y-98300000D03*
X111800000Y-99700000D03*
X108690000Y-88730000D03*
X116300000Y-106200000D03*
X120600000Y-94539000D03*
X131600000Y-90000000D03*
X128040000Y-91270000D03*
X133150000Y-91250000D03*
X120305000Y-97075000D03*
X137200000Y-91300000D03*
X121300000Y-86350000D03*
X144700000Y-86300000D03*
X122900000Y-94700000D03*
X129450000Y-90940000D03*
X146700000Y-90000000D03*
X123950000Y-94700000D03*
X116800000Y-95100000D03*
X134400000Y-89200000D03*
X135540000Y-78020000D03*
X113350000Y-103000000D03*
X135600000Y-84300000D03*
X133150000Y-97000000D03*
X141400000Y-87400000D03*
X115100000Y-94400000D03*
X141550000Y-90000000D03*
X147900000Y-92050000D03*
X127750000Y-88750000D03*
X130700000Y-82200000D03*
X115900000Y-96500000D03*
X143600000Y-90000000D03*
X130750000Y-86650000D03*
X132300000Y-90650000D03*
X123090000Y-90940000D03*
X145700000Y-90000000D03*
X132750000Y-92100000D03*
X122760000Y-89940000D03*
X144900000Y-93600000D03*
X146800000Y-99500000D03*
X138810000Y-87990000D03*
X136500000Y-98550000D03*
X133700000Y-88550000D03*
X129550000Y-86450000D03*
X120310000Y-91400000D03*
X113300000Y-97200000D03*
X119550000Y-88750000D03*
X148850000Y-92050000D03*
X144070000Y-92940000D03*
X113300000Y-96500000D03*
X130910000Y-91190000D03*
X128400000Y-92600000D03*
X119250000Y-104550000D03*
X135100000Y-101150000D03*
X141300000Y-84500000D03*
X116800000Y-93700000D03*
X118800000Y-89400000D03*
X120250000Y-92600000D03*
X135000000Y-103100000D03*
X149800000Y-92000000D03*
X131850000Y-92600000D03*
X109700000Y-84900000D03*
X128150000Y-96000000D03*
X131500000Y-95850000D03*
X124150000Y-88750000D03*
X136433100Y-91300000D03*
X114200000Y-96500000D03*
X115300000Y-90290000D03*
X113300000Y-95800000D03*
X142400000Y-105700000D03*
X125000000Y-94700000D03*
X127250000Y-92600000D03*
X120305000Y-98225000D03*
X121450000Y-92600000D03*
X115990000Y-89010000D03*
X125090000Y-91320000D03*
X148550000Y-90000000D03*
X120300000Y-95939000D03*
X113300000Y-94400000D03*
X128710000Y-89860000D03*
X138720000Y-96590000D03*
X129800000Y-101950000D03*
X117200000Y-80200000D03*
X117050000Y-87600000D03*
X118800000Y-81040000D03*
X121800000Y-94700000D03*
X119890000Y-89900000D03*
X132550000Y-101700000D03*
X108550000Y-95600000D03*
X115000000Y-78500000D03*
X130700000Y-92600000D03*
X115100000Y-97200000D03*
X123750000Y-86400000D03*
X129300000Y-94580000D03*
X140550000Y-83000000D03*
X144900000Y-94800000D03*
X142600000Y-90000000D03*
X116800000Y-96500000D03*
X135060000Y-94810000D03*
X121850000Y-88750000D03*
X123850000Y-92600000D03*
X144210000Y-95470000D03*
X133750000Y-93950000D03*
X138360000Y-93370000D03*
X115300000Y-105200000D03*
X115900000Y-95800000D03*
X115100000Y-95100000D03*
X127100000Y-96000000D03*
X115100000Y-95800000D03*
X107250000Y-92050000D03*
X125300000Y-99200000D03*
X126050000Y-86400000D03*
X146450000Y-96470000D03*
X114200000Y-94400000D03*
X143700000Y-101900000D03*
X127650000Y-83950000D03*
X114200000Y-93700000D03*
X130450000Y-95850000D03*
X136433100Y-92000000D03*
X140590000Y-88860000D03*
X138600000Y-88990000D03*
X116800000Y-94400000D03*
X126460000Y-90650000D03*
X125550000Y-89780000D03*
X116800000Y-97200000D03*
X118000000Y-92600000D03*
X122100000Y-99200000D03*
X116429975Y-90260025D03*
X125900000Y-96750000D03*
X121180000Y-90070000D03*
X121100000Y-82280000D03*
X115900000Y-94400000D03*
X130950000Y-89300000D03*
X125200000Y-82100000D03*
X132580000Y-78040000D03*
X109950000Y-86950000D03*
X108850000Y-98150000D03*
X126150000Y-92600000D03*
X117700000Y-103800000D03*
X124300000Y-89650000D03*
X128400000Y-86400000D03*
X114950000Y-102000000D03*
X149550000Y-90000000D03*
X120700000Y-88750000D03*
X115100000Y-93700000D03*
X135700000Y-91300000D03*
X121810000Y-91360000D03*
X140750000Y-93080000D03*
X127000000Y-89530000D03*
X125950000Y-103050000D03*
X146900000Y-92000000D03*
X109430000Y-87840000D03*
X141850000Y-91985000D03*
X122600000Y-92600000D03*
X114200000Y-95100000D03*
X115900000Y-93700000D03*
X128150000Y-98200000D03*
X125000000Y-92600000D03*
X139600000Y-93710000D03*
X106700000Y-96250000D03*
X108300000Y-101350000D03*
X114200000Y-95800000D03*
X118010000Y-107310000D03*
X120150000Y-86350000D03*
X140500000Y-90000000D03*
X127250000Y-86400000D03*
X143960000Y-88320000D03*
X114200000Y-97200000D03*
X115900000Y-95100000D03*
X143450000Y-92000000D03*
X113300000Y-93700000D03*
X141200000Y-94330000D03*
X136433100Y-90600000D03*
X130000000Y-88800000D03*
X116800000Y-95800000D03*
X128900000Y-88750000D03*
X149300000Y-99200000D03*
X135700000Y-92000000D03*
X134150000Y-95930000D03*
X128000000Y-82300000D03*
X125300000Y-88750000D03*
%TO.N,+3.3V*%
X139600000Y-92720000D03*
X119345000Y-98225000D03*
X111650000Y-86000000D03*
X115300000Y-91250000D03*
X110750000Y-97517250D03*
X138980000Y-94800000D03*
%TO.N,NRST*%
X117900000Y-105500000D03*
D14*
%TO.N,DIO0*%
X116300000Y-85160000D03*
D13*
X110900000Y-93100000D03*
%TO.N,DIO1*%
X125200000Y-84047250D03*
X110128254Y-93563047D03*
%TO.N,DIO3*%
X109599999Y-95278550D03*
%TO.N,DIO2*%
X109800000Y-94401051D03*
%TO.N,DIO4*%
X109600000Y-96178552D03*
%TO.N,DIO5*%
X109800000Y-97500000D03*
%TD*%
D15*
%TO.N,NRST*%
X122170000Y-107330000D02*
X119730000Y-107330000D01*
X123500000Y-105600000D02*
X123500000Y-106000000D01*
X119730000Y-107330000D02*
X117900000Y-105500000D01*
X123500000Y-106000000D02*
X122170000Y-107330000D01*
D16*
%TO.N,DIO0*%
X110900000Y-90560000D02*
X110900000Y-93100000D01*
X116300000Y-85160000D02*
X110900000Y-90560000D01*
%TO.N,DIO1*%
X125197250Y-84050000D02*
X116460000Y-84050000D01*
X116460000Y-84050000D02*
X110128254Y-90381746D01*
X110128254Y-90381746D02*
X110128254Y-93563047D01*
X125200000Y-84047250D02*
X125197250Y-84050000D01*
%TO.N,DIO3*%
X129828250Y-77518250D02*
X131660000Y-79350000D01*
X121181750Y-77518250D02*
X129828250Y-77518250D01*
X108600000Y-94278551D02*
X108600000Y-90100000D01*
X109599999Y-95278550D02*
X108600000Y-94278551D01*
X108600000Y-90100000D02*
X121181750Y-77518250D01*
%TO.N,DIO2*%
X109410004Y-94011055D02*
X109410004Y-90209996D01*
X109410004Y-90209996D02*
X116320000Y-83300000D01*
X116320000Y-83300000D02*
X125600000Y-83300000D01*
X109800000Y-94401051D02*
X109410004Y-94011055D01*
X129120000Y-79780000D02*
X129120000Y-79350000D01*
X125600000Y-83300000D02*
X129120000Y-79780000D01*
%TO.N,DIO4*%
X134200000Y-81600000D02*
X134200000Y-79350000D01*
X109600000Y-96178552D02*
X109715756Y-96178552D01*
X111630000Y-90800000D02*
X117665500Y-84764500D01*
X131035500Y-84764500D02*
X134200000Y-81600000D01*
X109715756Y-96178552D02*
X111630000Y-94264308D01*
X117665500Y-84764500D02*
X131035500Y-84764500D01*
X111630000Y-94264308D02*
X111630000Y-90800000D01*
%TO.N,DIO5*%
X136500000Y-80400000D02*
X136500000Y-79590000D01*
X112290000Y-90950000D02*
X117690000Y-85550000D01*
X131350000Y-85550000D02*
X136500000Y-80400000D01*
X112290000Y-94590000D02*
X112290000Y-90950000D01*
X136500000Y-79590000D02*
X136740000Y-79350000D01*
X109800000Y-97500000D02*
X109800000Y-97080000D01*
X117690000Y-85550000D02*
X131350000Y-85550000D01*
X109800000Y-97080000D02*
X112290000Y-94590000D01*
%TD*%
%TA.AperFunction,Conductor*%
%TO.N,GND*%
G36*
X120597100Y-77370185D02*
G01*
X120642855Y-77422989D01*
X120652799Y-77492147D01*
X120623774Y-77555703D01*
X120617742Y-77562181D01*
X112361227Y-85818695D01*
X112299904Y-85852180D01*
X112230212Y-85847196D01*
X112174279Y-85805324D01*
X112166159Y-85793014D01*
X112153926Y-85771827D01*
X112090509Y-85661985D01*
X111988015Y-85559491D01*
X111988013Y-85559490D01*
X111988011Y-85559488D01*
X111862488Y-85487017D01*
X111862489Y-85487017D01*
X111851006Y-85483940D01*
X111722475Y-85449500D01*
X111577525Y-85449500D01*
X111448993Y-85483940D01*
X111437511Y-85487017D01*
X111311988Y-85559488D01*
X111311982Y-85559493D01*
X111209493Y-85661982D01*
X111209488Y-85661988D01*
X111137017Y-85787511D01*
X111132583Y-85804055D01*
X111099500Y-85927525D01*
X111099500Y-86072475D01*
X111137016Y-86212485D01*
X111137017Y-86212488D01*
X111209488Y-86338011D01*
X111209490Y-86338013D01*
X111209491Y-86338015D01*
X111311985Y-86440509D01*
X111421827Y-86503926D01*
X111443014Y-86516159D01*
X111491230Y-86566726D01*
X111504452Y-86635333D01*
X111478484Y-86700198D01*
X111468695Y-86711227D01*
X108374196Y-89805727D01*
X108305728Y-89874194D01*
X108305726Y-89874197D01*
X108257312Y-89958053D01*
X108257312Y-89958054D01*
X108232250Y-90051585D01*
X108232250Y-94230136D01*
X108232250Y-94326966D01*
X108253956Y-94407974D01*
X108257312Y-94420497D01*
X108305726Y-94504353D01*
X108305728Y-94504356D01*
X109013180Y-95211808D01*
X109046665Y-95273131D01*
X109049499Y-95299489D01*
X109049499Y-95351025D01*
X109087015Y-95491035D01*
X109087016Y-95491038D01*
X109159487Y-95616561D01*
X109159492Y-95616567D01*
X109183795Y-95640870D01*
X109217280Y-95702193D01*
X109212296Y-95771885D01*
X109183797Y-95816231D01*
X109159488Y-95840540D01*
X109087017Y-95966063D01*
X109087016Y-95966067D01*
X109049500Y-96106077D01*
X109049500Y-96251027D01*
X109087016Y-96391037D01*
X109087017Y-96391040D01*
X109159488Y-96516563D01*
X109159490Y-96516565D01*
X109159491Y-96516567D01*
X109261985Y-96619061D01*
X109261986Y-96619062D01*
X109261988Y-96619063D01*
X109387511Y-96691534D01*
X109387512Y-96691534D01*
X109387515Y-96691536D01*
X109415124Y-96698934D01*
X109474784Y-96735296D01*
X109505315Y-96798143D01*
X109500388Y-96858753D01*
X109496474Y-96870222D01*
X109457312Y-96938054D01*
X109432250Y-97031585D01*
X109432250Y-97058438D01*
X109425606Y-97077909D01*
X109416845Y-97090325D01*
X109412565Y-97104903D01*
X109395931Y-97125545D01*
X109359493Y-97161982D01*
X109359488Y-97161988D01*
X109287017Y-97287511D01*
X109287016Y-97287515D01*
X109249500Y-97427525D01*
X109249500Y-97572475D01*
X109286891Y-97712017D01*
X109287017Y-97712488D01*
X109359488Y-97838011D01*
X109359490Y-97838013D01*
X109359491Y-97838015D01*
X109461985Y-97940509D01*
X109461986Y-97940510D01*
X109461988Y-97940511D01*
X109587511Y-98012982D01*
X109587512Y-98012982D01*
X109587515Y-98012984D01*
X109727525Y-98050500D01*
X109727528Y-98050500D01*
X109872472Y-98050500D01*
X109872475Y-98050500D01*
X110012485Y-98012984D01*
X110138015Y-97940509D01*
X110178694Y-97899830D01*
X110240017Y-97866345D01*
X110309709Y-97871329D01*
X110354056Y-97899830D01*
X110411985Y-97957759D01*
X110411986Y-97957760D01*
X110411988Y-97957761D01*
X110537511Y-98030232D01*
X110537512Y-98030232D01*
X110537515Y-98030234D01*
X110677525Y-98067750D01*
X110677528Y-98067750D01*
X110822472Y-98067750D01*
X110822475Y-98067750D01*
X110962485Y-98030234D01*
X111088015Y-97957759D01*
X111190509Y-97855265D01*
X111262984Y-97729735D01*
X111300500Y-97589725D01*
X111300500Y-97444775D01*
X111262984Y-97304765D01*
X111253022Y-97287511D01*
X111190511Y-97179238D01*
X111190506Y-97179232D01*
X111088017Y-97076743D01*
X111088011Y-97076738D01*
X110962488Y-97004267D01*
X110962489Y-97004267D01*
X110951006Y-97001190D01*
X110822475Y-96966750D01*
X110732688Y-96966750D01*
X110665649Y-96947065D01*
X110619894Y-96894261D01*
X110609950Y-96825103D01*
X110638975Y-96761547D01*
X110645007Y-96755069D01*
X111293999Y-96106077D01*
X112584273Y-94815804D01*
X112632688Y-94731946D01*
X112633873Y-94727525D01*
X138429500Y-94727525D01*
X138429500Y-94872475D01*
X138440487Y-94913477D01*
X138467017Y-95012488D01*
X138539488Y-95138011D01*
X138539490Y-95138013D01*
X138539491Y-95138015D01*
X138641985Y-95240509D01*
X138641986Y-95240510D01*
X138641988Y-95240511D01*
X138767511Y-95312982D01*
X138767512Y-95312982D01*
X138767515Y-95312984D01*
X138907525Y-95350500D01*
X138907528Y-95350500D01*
X139052472Y-95350500D01*
X139052475Y-95350500D01*
X139192485Y-95312984D01*
X139318015Y-95240509D01*
X139420509Y-95138015D01*
X139492984Y-95012485D01*
X139530500Y-94872475D01*
X139530500Y-94727525D01*
X139492984Y-94587515D01*
X139466466Y-94541585D01*
X139420511Y-94461988D01*
X139420506Y-94461982D01*
X139318017Y-94359493D01*
X139318011Y-94359488D01*
X139192488Y-94287017D01*
X139192489Y-94287017D01*
X139181006Y-94283940D01*
X139052475Y-94249500D01*
X138907525Y-94249500D01*
X138778993Y-94283940D01*
X138767511Y-94287017D01*
X138641988Y-94359488D01*
X138641982Y-94359493D01*
X138539493Y-94461982D01*
X138539488Y-94461988D01*
X138467017Y-94587511D01*
X138467016Y-94587515D01*
X138429500Y-94727525D01*
X112633873Y-94727525D01*
X112657750Y-94638415D01*
X112657750Y-94541585D01*
X112657750Y-92647525D01*
X139049500Y-92647525D01*
X139049500Y-92792475D01*
X139087016Y-92932485D01*
X139087017Y-92932488D01*
X139159488Y-93058011D01*
X139159490Y-93058013D01*
X139159491Y-93058015D01*
X139261985Y-93160509D01*
X139261986Y-93160510D01*
X139261988Y-93160511D01*
X139387511Y-93232982D01*
X139387512Y-93232982D01*
X139387515Y-93232984D01*
X139527525Y-93270500D01*
X139527528Y-93270500D01*
X139672472Y-93270500D01*
X139672475Y-93270500D01*
X139812485Y-93232984D01*
X139938015Y-93160509D01*
X140040509Y-93058015D01*
X140112984Y-92932485D01*
X140150500Y-92792475D01*
X140150500Y-92647525D01*
X140112984Y-92507515D01*
X140040509Y-92381985D01*
X139938015Y-92279491D01*
X139938013Y-92279490D01*
X139938011Y-92279488D01*
X139812488Y-92207017D01*
X139812489Y-92207017D01*
X139801006Y-92203940D01*
X139672475Y-92169500D01*
X139527525Y-92169500D01*
X139398993Y-92203940D01*
X139387511Y-92207017D01*
X139261988Y-92279488D01*
X139261982Y-92279493D01*
X139159493Y-92381982D01*
X139159488Y-92381988D01*
X139087017Y-92507511D01*
X139087016Y-92507515D01*
X139049500Y-92647525D01*
X112657750Y-92647525D01*
X112657750Y-91177525D01*
X114749500Y-91177525D01*
X114749500Y-91322475D01*
X114787016Y-91462485D01*
X114787017Y-91462488D01*
X114859488Y-91588011D01*
X114859490Y-91588013D01*
X114859491Y-91588015D01*
X114961985Y-91690509D01*
X114961986Y-91690510D01*
X114961988Y-91690511D01*
X115087511Y-91762982D01*
X115087512Y-91762982D01*
X115087515Y-91762984D01*
X115227525Y-91800500D01*
X115227528Y-91800500D01*
X115372472Y-91800500D01*
X115372475Y-91800500D01*
X115512485Y-91762984D01*
X115638015Y-91690509D01*
X115740509Y-91588015D01*
X115812984Y-91462485D01*
X115850500Y-91322475D01*
X115850500Y-91177525D01*
X115812984Y-91037515D01*
X115740509Y-90911985D01*
X115638015Y-90809491D01*
X115638013Y-90809490D01*
X115638011Y-90809488D01*
X115512488Y-90737017D01*
X115512489Y-90737017D01*
X115490253Y-90731059D01*
X115372475Y-90699500D01*
X115227525Y-90699500D01*
X115109747Y-90731059D01*
X115087511Y-90737017D01*
X114961988Y-90809488D01*
X114961982Y-90809493D01*
X114859493Y-90911982D01*
X114859488Y-90911988D01*
X114787017Y-91037511D01*
X114787016Y-91037515D01*
X114749500Y-91177525D01*
X112657750Y-91177525D01*
X112657750Y-91153689D01*
X112677435Y-91086650D01*
X112694069Y-91066008D01*
X117806008Y-85954069D01*
X117867331Y-85920584D01*
X117893689Y-85917750D01*
X131398413Y-85917750D01*
X131398415Y-85917750D01*
X131491946Y-85892688D01*
X131575804Y-85844273D01*
X136794273Y-80625804D01*
X136842688Y-80541946D01*
X136862722Y-80467177D01*
X136899086Y-80407519D01*
X136958302Y-80377657D01*
X137046420Y-80360130D01*
X137237598Y-80280941D01*
X137409655Y-80165977D01*
X137555977Y-80019655D01*
X137670941Y-79847598D01*
X137691439Y-79798112D01*
X137735279Y-79743708D01*
X137801573Y-79721643D01*
X137869273Y-79738922D01*
X137916884Y-79790059D01*
X137930000Y-79845564D01*
X137930000Y-80247844D01*
X137936401Y-80307372D01*
X137936403Y-80307379D01*
X137986645Y-80442086D01*
X137986649Y-80442093D01*
X138072809Y-80557187D01*
X138072812Y-80557190D01*
X138187906Y-80643350D01*
X138187913Y-80643354D01*
X138322620Y-80693596D01*
X138322627Y-80693598D01*
X138382155Y-80699999D01*
X138382172Y-80700000D01*
X139030000Y-80700000D01*
X139030000Y-79783012D01*
X139087007Y-79815925D01*
X139214174Y-79850000D01*
X139345826Y-79850000D01*
X139472993Y-79815925D01*
X139530000Y-79783012D01*
X139530000Y-80700000D01*
X140177828Y-80700000D01*
X140177844Y-80699999D01*
X140237372Y-80693598D01*
X140237379Y-80693596D01*
X140372086Y-80643354D01*
X140372093Y-80643350D01*
X140487187Y-80557190D01*
X140487190Y-80557187D01*
X140573350Y-80442093D01*
X140573354Y-80442086D01*
X140623596Y-80307379D01*
X140623598Y-80307372D01*
X140629999Y-80247844D01*
X140630000Y-80247827D01*
X140630000Y-79600000D01*
X139713012Y-79600000D01*
X139745925Y-79542993D01*
X139780000Y-79415826D01*
X139780000Y-79284174D01*
X139745925Y-79157007D01*
X139713012Y-79100000D01*
X140630000Y-79100000D01*
X140630000Y-78452172D01*
X140629999Y-78452155D01*
X140623598Y-78392627D01*
X140623596Y-78392620D01*
X140573354Y-78257913D01*
X140573350Y-78257906D01*
X140487190Y-78142812D01*
X140487187Y-78142809D01*
X140372093Y-78056649D01*
X140372086Y-78056645D01*
X140237379Y-78006403D01*
X140237372Y-78006401D01*
X140177844Y-78000000D01*
X139530000Y-78000000D01*
X139530000Y-78916988D01*
X139472993Y-78884075D01*
X139345826Y-78850000D01*
X139214174Y-78850000D01*
X139087007Y-78884075D01*
X139030000Y-78916988D01*
X139030000Y-78000000D01*
X138382155Y-78000000D01*
X138322627Y-78006401D01*
X138322620Y-78006403D01*
X138187913Y-78056645D01*
X138187906Y-78056649D01*
X138072812Y-78142809D01*
X138072809Y-78142812D01*
X137986649Y-78257906D01*
X137986645Y-78257913D01*
X137936403Y-78392620D01*
X137936401Y-78392627D01*
X137930000Y-78452155D01*
X137930000Y-78854435D01*
X137910315Y-78921474D01*
X137857511Y-78967229D01*
X137788353Y-78977173D01*
X137724797Y-78948148D01*
X137691439Y-78901888D01*
X137687340Y-78891993D01*
X137670941Y-78852402D01*
X137555977Y-78680345D01*
X137555975Y-78680342D01*
X137409657Y-78534024D01*
X137321145Y-78474883D01*
X137237598Y-78419059D01*
X137058167Y-78344736D01*
X137046420Y-78339870D01*
X137046412Y-78339868D01*
X136843469Y-78299500D01*
X136843465Y-78299500D01*
X136636535Y-78299500D01*
X136636530Y-78299500D01*
X136433587Y-78339868D01*
X136433579Y-78339870D01*
X136242403Y-78419058D01*
X136070342Y-78534024D01*
X135924024Y-78680342D01*
X135809058Y-78852403D01*
X135729870Y-79043579D01*
X135729868Y-79043587D01*
X135689500Y-79246530D01*
X135689500Y-79453469D01*
X135729868Y-79656412D01*
X135729870Y-79656420D01*
X135809058Y-79847596D01*
X135924024Y-80019657D01*
X136054464Y-80150097D01*
X136087949Y-80211420D01*
X136082965Y-80281112D01*
X136054464Y-80325459D01*
X134779431Y-81600492D01*
X134718108Y-81633977D01*
X134648416Y-81628993D01*
X134592483Y-81587121D01*
X134568066Y-81521657D01*
X134567750Y-81512811D01*
X134567750Y-80417580D01*
X134587435Y-80350541D01*
X134640239Y-80304786D01*
X134644298Y-80303019D01*
X134697594Y-80280943D01*
X134697595Y-80280942D01*
X134697598Y-80280941D01*
X134869655Y-80165977D01*
X135015977Y-80019655D01*
X135130941Y-79847598D01*
X135210130Y-79656420D01*
X135250500Y-79453465D01*
X135250500Y-79246535D01*
X135210130Y-79043580D01*
X135130941Y-78852402D01*
X135015977Y-78680345D01*
X135015975Y-78680342D01*
X134869657Y-78534024D01*
X134781145Y-78474883D01*
X134697598Y-78419059D01*
X134518167Y-78344736D01*
X134506420Y-78339870D01*
X134506412Y-78339868D01*
X134303469Y-78299500D01*
X134303465Y-78299500D01*
X134096535Y-78299500D01*
X134096530Y-78299500D01*
X133893587Y-78339868D01*
X133893579Y-78339870D01*
X133702403Y-78419058D01*
X133530342Y-78534024D01*
X133384024Y-78680342D01*
X133269058Y-78852403D01*
X133189870Y-79043579D01*
X133189868Y-79043587D01*
X133149500Y-79246530D01*
X133149500Y-79453469D01*
X133189868Y-79656412D01*
X133189870Y-79656420D01*
X133269058Y-79847596D01*
X133384024Y-80019657D01*
X133530342Y-80165975D01*
X133702405Y-80280943D01*
X133755702Y-80303019D01*
X133810106Y-80346860D01*
X133832171Y-80413154D01*
X133832250Y-80417580D01*
X133832250Y-81396311D01*
X133812565Y-81463350D01*
X133795931Y-81483992D01*
X130919492Y-84360431D01*
X130858169Y-84393916D01*
X130831811Y-84396750D01*
X125837871Y-84396750D01*
X125770832Y-84377065D01*
X125725077Y-84324261D01*
X125715133Y-84255103D01*
X125718096Y-84240656D01*
X125750500Y-84119725D01*
X125750500Y-83974775D01*
X125712984Y-83834765D01*
X125712982Y-83834761D01*
X125699053Y-83810635D01*
X125682580Y-83742735D01*
X125705432Y-83676708D01*
X125744439Y-83641248D01*
X125825804Y-83594273D01*
X128983258Y-80436819D01*
X129044581Y-80403334D01*
X129070939Y-80400500D01*
X129223466Y-80400500D01*
X129223467Y-80400499D01*
X129426420Y-80360130D01*
X129617598Y-80280941D01*
X129789655Y-80165977D01*
X129935977Y-80019655D01*
X130050941Y-79847598D01*
X130130130Y-79656420D01*
X130170500Y-79453465D01*
X130170500Y-79246535D01*
X130130130Y-79043580D01*
X130050941Y-78852402D01*
X129935977Y-78680345D01*
X129935975Y-78680342D01*
X129789657Y-78534024D01*
X129701145Y-78474883D01*
X129617598Y-78419059D01*
X129438167Y-78344736D01*
X129426420Y-78339870D01*
X129426412Y-78339868D01*
X129223469Y-78299500D01*
X129223465Y-78299500D01*
X129016535Y-78299500D01*
X129016530Y-78299500D01*
X128813587Y-78339868D01*
X128813579Y-78339870D01*
X128622403Y-78419058D01*
X128450342Y-78534024D01*
X128304024Y-78680342D01*
X128189058Y-78852403D01*
X128109870Y-79043579D01*
X128109868Y-79043587D01*
X128069500Y-79246530D01*
X128069500Y-79453469D01*
X128109868Y-79656412D01*
X128109870Y-79656420D01*
X128189058Y-79847597D01*
X128270014Y-79968756D01*
X128290892Y-80035434D01*
X128272407Y-80102814D01*
X128254593Y-80125328D01*
X125483992Y-82895931D01*
X125422669Y-82929416D01*
X125396311Y-82932250D01*
X116587189Y-82932250D01*
X116520150Y-82912565D01*
X116474395Y-82859761D01*
X116464451Y-82790603D01*
X116493476Y-82727047D01*
X116499508Y-82720569D01*
X118366888Y-80853189D01*
X120278637Y-78941439D01*
X120339958Y-78907956D01*
X120409650Y-78912940D01*
X120465583Y-78954812D01*
X120490000Y-79020276D01*
X120487933Y-79053313D01*
X120449500Y-79246530D01*
X120449500Y-79453469D01*
X120489868Y-79656412D01*
X120489870Y-79656420D01*
X120569058Y-79847596D01*
X120684024Y-80019657D01*
X120830342Y-80165975D01*
X120830345Y-80165977D01*
X121002402Y-80280941D01*
X121193580Y-80360130D01*
X121372248Y-80395669D01*
X121396530Y-80400499D01*
X121396534Y-80400500D01*
X121396535Y-80400500D01*
X121603466Y-80400500D01*
X121603467Y-80400499D01*
X121806420Y-80360130D01*
X121997598Y-80280941D01*
X122169655Y-80165977D01*
X122315977Y-80019655D01*
X122430941Y-79847598D01*
X122510130Y-79656420D01*
X122550500Y-79453465D01*
X122550500Y-79246535D01*
X122550499Y-79246530D01*
X122989500Y-79246530D01*
X122989500Y-79453469D01*
X123029868Y-79656412D01*
X123029870Y-79656420D01*
X123109058Y-79847596D01*
X123224024Y-80019657D01*
X123370342Y-80165975D01*
X123370345Y-80165977D01*
X123542402Y-80280941D01*
X123733580Y-80360130D01*
X123912248Y-80395669D01*
X123936530Y-80400499D01*
X123936534Y-80400500D01*
X123936535Y-80400500D01*
X124143466Y-80400500D01*
X124143467Y-80400499D01*
X124346420Y-80360130D01*
X124537598Y-80280941D01*
X124709655Y-80165977D01*
X124855977Y-80019655D01*
X124970941Y-79847598D01*
X125050130Y-79656420D01*
X125090500Y-79453465D01*
X125090500Y-79246535D01*
X125090499Y-79246530D01*
X125529500Y-79246530D01*
X125529500Y-79453469D01*
X125569868Y-79656412D01*
X125569870Y-79656420D01*
X125649058Y-79847596D01*
X125764024Y-80019657D01*
X125910342Y-80165975D01*
X125910345Y-80165977D01*
X126082402Y-80280941D01*
X126273580Y-80360130D01*
X126452248Y-80395669D01*
X126476530Y-80400499D01*
X126476534Y-80400500D01*
X126476535Y-80400500D01*
X126683466Y-80400500D01*
X126683467Y-80400499D01*
X126886420Y-80360130D01*
X127077598Y-80280941D01*
X127249655Y-80165977D01*
X127395977Y-80019655D01*
X127510941Y-79847598D01*
X127590130Y-79656420D01*
X127630500Y-79453465D01*
X127630500Y-79246535D01*
X127590130Y-79043580D01*
X127510941Y-78852402D01*
X127395977Y-78680345D01*
X127395975Y-78680342D01*
X127249657Y-78534024D01*
X127161145Y-78474883D01*
X127077598Y-78419059D01*
X126898167Y-78344736D01*
X126886420Y-78339870D01*
X126886412Y-78339868D01*
X126683469Y-78299500D01*
X126683465Y-78299500D01*
X126476535Y-78299500D01*
X126476530Y-78299500D01*
X126273587Y-78339868D01*
X126273579Y-78339870D01*
X126082403Y-78419058D01*
X125910342Y-78534024D01*
X125764024Y-78680342D01*
X125649058Y-78852403D01*
X125569870Y-79043579D01*
X125569868Y-79043587D01*
X125529500Y-79246530D01*
X125090499Y-79246530D01*
X125050130Y-79043580D01*
X124970941Y-78852402D01*
X124855977Y-78680345D01*
X124855975Y-78680342D01*
X124709657Y-78534024D01*
X124621145Y-78474883D01*
X124537598Y-78419059D01*
X124358167Y-78344736D01*
X124346420Y-78339870D01*
X124346412Y-78339868D01*
X124143469Y-78299500D01*
X124143465Y-78299500D01*
X123936535Y-78299500D01*
X123936530Y-78299500D01*
X123733587Y-78339868D01*
X123733579Y-78339870D01*
X123542403Y-78419058D01*
X123370342Y-78534024D01*
X123224024Y-78680342D01*
X123109058Y-78852403D01*
X123029870Y-79043579D01*
X123029868Y-79043587D01*
X122989500Y-79246530D01*
X122550499Y-79246530D01*
X122510130Y-79043580D01*
X122430941Y-78852402D01*
X122315977Y-78680345D01*
X122315975Y-78680342D01*
X122169657Y-78534024D01*
X122081145Y-78474883D01*
X121997598Y-78419059D01*
X121818167Y-78344736D01*
X121806420Y-78339870D01*
X121806412Y-78339868D01*
X121603469Y-78299500D01*
X121603465Y-78299500D01*
X121396535Y-78299500D01*
X121396530Y-78299500D01*
X121203313Y-78337933D01*
X121133721Y-78331706D01*
X121078544Y-78288842D01*
X121055300Y-78222953D01*
X121071368Y-78154956D01*
X121091437Y-78128639D01*
X121297758Y-77922319D01*
X121359081Y-77888834D01*
X121385439Y-77886000D01*
X129624561Y-77886000D01*
X129691600Y-77905685D01*
X129712242Y-77922319D01*
X130645068Y-78855145D01*
X130678553Y-78916468D01*
X130673569Y-78986160D01*
X130671948Y-78990278D01*
X130649871Y-79043575D01*
X130649868Y-79043587D01*
X130609500Y-79246530D01*
X130609500Y-79453469D01*
X130649868Y-79656412D01*
X130649870Y-79656420D01*
X130729058Y-79847596D01*
X130844024Y-80019657D01*
X130990342Y-80165975D01*
X130990345Y-80165977D01*
X131162402Y-80280941D01*
X131353580Y-80360130D01*
X131532248Y-80395669D01*
X131556530Y-80400499D01*
X131556534Y-80400500D01*
X131556535Y-80400500D01*
X131763466Y-80400500D01*
X131763467Y-80400499D01*
X131966420Y-80360130D01*
X132157598Y-80280941D01*
X132329655Y-80165977D01*
X132475977Y-80019655D01*
X132590941Y-79847598D01*
X132670130Y-79656420D01*
X132710500Y-79453465D01*
X132710500Y-79246535D01*
X132670130Y-79043580D01*
X132590941Y-78852402D01*
X132475977Y-78680345D01*
X132475975Y-78680342D01*
X132329657Y-78534024D01*
X132241145Y-78474883D01*
X132157598Y-78419059D01*
X131978167Y-78344736D01*
X131966420Y-78339870D01*
X131966412Y-78339868D01*
X131763469Y-78299500D01*
X131763465Y-78299500D01*
X131556535Y-78299500D01*
X131556530Y-78299500D01*
X131353587Y-78339868D01*
X131353575Y-78339871D01*
X131300278Y-78361948D01*
X131230809Y-78369417D01*
X131168330Y-78338142D01*
X131165145Y-78335068D01*
X130392258Y-77562181D01*
X130358773Y-77500858D01*
X130363757Y-77431166D01*
X130405629Y-77375233D01*
X130471093Y-77350816D01*
X130479939Y-77350500D01*
X145444885Y-77350500D01*
X145446921Y-77350516D01*
X145731781Y-77355196D01*
X145735923Y-77355335D01*
X146003832Y-77368821D01*
X146008103Y-77369111D01*
X146264704Y-77391074D01*
X146269082Y-77391529D01*
X146514173Y-77421494D01*
X146518757Y-77422142D01*
X146753655Y-77459843D01*
X146758351Y-77460691D01*
X146982222Y-77505559D01*
X146987005Y-77506616D01*
X147201893Y-77558653D01*
X147206733Y-77559931D01*
X147411113Y-77618361D01*
X147415939Y-77619851D01*
X147612470Y-77685066D01*
X147617461Y-77686843D01*
X147797392Y-77755245D01*
X147804914Y-77758391D01*
X148160779Y-77921189D01*
X148170760Y-77926313D01*
X148490408Y-78109144D01*
X148500085Y-78115291D01*
X148792489Y-78320601D01*
X148801651Y-78327697D01*
X149069143Y-78555691D01*
X149077599Y-78563612D01*
X149203889Y-78693538D01*
X149321891Y-78814938D01*
X149329516Y-78823548D01*
X149551634Y-79099109D01*
X149558302Y-79108198D01*
X149758452Y-79408765D01*
X149764118Y-79418148D01*
X149941692Y-79743923D01*
X149946358Y-79753427D01*
X150099910Y-80103221D01*
X150103619Y-80112714D01*
X150136181Y-80207340D01*
X150230960Y-80482770D01*
X150233784Y-80492172D01*
X150332056Y-80873484D01*
X150334075Y-80882779D01*
X150400089Y-81255040D01*
X150401371Y-81264273D01*
X150433015Y-81578664D01*
X150433548Y-81586364D01*
X150436910Y-81674665D01*
X150437000Y-81679383D01*
X150437000Y-101686137D01*
X150436975Y-101688651D01*
X150435560Y-101758442D01*
X150435341Y-101763705D01*
X150409119Y-102180988D01*
X150408501Y-102187806D01*
X150346278Y-102712780D01*
X150345254Y-102719730D01*
X150249050Y-103264995D01*
X150247569Y-103272148D01*
X150121039Y-103804016D01*
X150119030Y-103811433D01*
X149965772Y-104314830D01*
X149963151Y-104322526D01*
X149786416Y-104790487D01*
X149783092Y-104798438D01*
X149585700Y-105228133D01*
X149581587Y-105236283D01*
X149365819Y-105627278D01*
X149360838Y-105635529D01*
X149128443Y-105988693D01*
X149122536Y-105996917D01*
X148874662Y-106313883D01*
X148867806Y-106321920D01*
X148604920Y-106604729D01*
X148597132Y-106612400D01*
X148319029Y-106863141D01*
X148310378Y-106870259D01*
X148016127Y-107090870D01*
X148006736Y-107097260D01*
X147694783Y-107289249D01*
X147684823Y-107294765D01*
X147352966Y-107459116D01*
X147342638Y-107463658D01*
X146981821Y-107603118D01*
X146973987Y-107605849D01*
X146794693Y-107661686D01*
X146789458Y-107663191D01*
X146595608Y-107714339D01*
X146590400Y-107715593D01*
X146390403Y-107759219D01*
X146385252Y-107760229D01*
X146176967Y-107796505D01*
X146171890Y-107797281D01*
X145956232Y-107825697D01*
X145951253Y-107826251D01*
X145726935Y-107846631D01*
X145722067Y-107846977D01*
X145489240Y-107858919D01*
X145484500Y-107859072D01*
X145236736Y-107862294D01*
X145234432Y-107862302D01*
X122558665Y-107735683D01*
X122491736Y-107715624D01*
X122446277Y-107662566D01*
X122436720Y-107593353D01*
X122466099Y-107529960D01*
X122471647Y-107524034D01*
X123308862Y-106686818D01*
X123370185Y-106653334D01*
X123396543Y-106650500D01*
X123603466Y-106650500D01*
X123603467Y-106650499D01*
X123806420Y-106610130D01*
X123997598Y-106530941D01*
X124169655Y-106415977D01*
X124315977Y-106269655D01*
X124430941Y-106097598D01*
X124510130Y-105906420D01*
X124550500Y-105703465D01*
X124550500Y-105496535D01*
X124550499Y-105496530D01*
X124989500Y-105496530D01*
X124989500Y-105703469D01*
X125029868Y-105906412D01*
X125029870Y-105906420D01*
X125095939Y-106065925D01*
X125109059Y-106097598D01*
X125145768Y-106152537D01*
X125224024Y-106269657D01*
X125370342Y-106415975D01*
X125370345Y-106415977D01*
X125542402Y-106530941D01*
X125733580Y-106610130D01*
X125893702Y-106641980D01*
X125936530Y-106650499D01*
X125936534Y-106650500D01*
X125936535Y-106650500D01*
X126143466Y-106650500D01*
X126143467Y-106650499D01*
X126346420Y-106610130D01*
X126537598Y-106530941D01*
X126709655Y-106415977D01*
X126855977Y-106269655D01*
X126970941Y-106097598D01*
X127050130Y-105906420D01*
X127090500Y-105703465D01*
X127090500Y-105496535D01*
X127090499Y-105496530D01*
X127529500Y-105496530D01*
X127529500Y-105703469D01*
X127569868Y-105906412D01*
X127569870Y-105906420D01*
X127635939Y-106065925D01*
X127649059Y-106097598D01*
X127685768Y-106152537D01*
X127764024Y-106269657D01*
X127910342Y-106415975D01*
X127910345Y-106415977D01*
X128082402Y-106530941D01*
X128273580Y-106610130D01*
X128433702Y-106641980D01*
X128476530Y-106650499D01*
X128476534Y-106650500D01*
X128476535Y-106650500D01*
X128683466Y-106650500D01*
X128683467Y-106650499D01*
X128886420Y-106610130D01*
X129077598Y-106530941D01*
X129249655Y-106415977D01*
X129395977Y-106269655D01*
X129510941Y-106097598D01*
X129590130Y-105906420D01*
X129630500Y-105703465D01*
X129630500Y-105496535D01*
X129630499Y-105496530D01*
X130069500Y-105496530D01*
X130069500Y-105703469D01*
X130109868Y-105906412D01*
X130109870Y-105906420D01*
X130175939Y-106065925D01*
X130189059Y-106097598D01*
X130225768Y-106152537D01*
X130304024Y-106269657D01*
X130450342Y-106415975D01*
X130450345Y-106415977D01*
X130622402Y-106530941D01*
X130813580Y-106610130D01*
X130973702Y-106641980D01*
X131016530Y-106650499D01*
X131016534Y-106650500D01*
X131016535Y-106650500D01*
X131223466Y-106650500D01*
X131223467Y-106650499D01*
X131426420Y-106610130D01*
X131617598Y-106530941D01*
X131789655Y-106415977D01*
X131935977Y-106269655D01*
X132050941Y-106097598D01*
X132130130Y-105906420D01*
X132170500Y-105703465D01*
X132170500Y-105496535D01*
X132170499Y-105496530D01*
X132609500Y-105496530D01*
X132609500Y-105703469D01*
X132649868Y-105906412D01*
X132649870Y-105906420D01*
X132715939Y-106065925D01*
X132729059Y-106097598D01*
X132765768Y-106152537D01*
X132844024Y-106269657D01*
X132990342Y-106415975D01*
X132990345Y-106415977D01*
X133162402Y-106530941D01*
X133353580Y-106610130D01*
X133513702Y-106641980D01*
X133556530Y-106650499D01*
X133556534Y-106650500D01*
X133556535Y-106650500D01*
X133763466Y-106650500D01*
X133763467Y-106650499D01*
X133966420Y-106610130D01*
X134157598Y-106530941D01*
X134329655Y-106415977D01*
X134475977Y-106269655D01*
X134590941Y-106097598D01*
X134670130Y-105906420D01*
X134710500Y-105703465D01*
X134710500Y-105496535D01*
X134710499Y-105496530D01*
X135149500Y-105496530D01*
X135149500Y-105703469D01*
X135189868Y-105906412D01*
X135189870Y-105906420D01*
X135255939Y-106065925D01*
X135269059Y-106097598D01*
X135305768Y-106152537D01*
X135384024Y-106269657D01*
X135530342Y-106415975D01*
X135530345Y-106415977D01*
X135702402Y-106530941D01*
X135893580Y-106610130D01*
X136053702Y-106641980D01*
X136096530Y-106650499D01*
X136096534Y-106650500D01*
X136096535Y-106650500D01*
X136303466Y-106650500D01*
X136303467Y-106650499D01*
X136506420Y-106610130D01*
X136697598Y-106530941D01*
X136869655Y-106415977D01*
X137015977Y-106269655D01*
X137130941Y-106097598D01*
X137151439Y-106048112D01*
X137195279Y-105993708D01*
X137261573Y-105971643D01*
X137329273Y-105988922D01*
X137376884Y-106040059D01*
X137390000Y-106095564D01*
X137390000Y-106497844D01*
X137396401Y-106557372D01*
X137396403Y-106557379D01*
X137446645Y-106692086D01*
X137446649Y-106692093D01*
X137532809Y-106807187D01*
X137532812Y-106807190D01*
X137647906Y-106893350D01*
X137647913Y-106893354D01*
X137782620Y-106943596D01*
X137782627Y-106943598D01*
X137842155Y-106949999D01*
X137842172Y-106950000D01*
X138490000Y-106950000D01*
X138490000Y-106033012D01*
X138547007Y-106065925D01*
X138674174Y-106100000D01*
X138805826Y-106100000D01*
X138932993Y-106065925D01*
X138990000Y-106033012D01*
X138990000Y-106950000D01*
X139637828Y-106950000D01*
X139637844Y-106949999D01*
X139697372Y-106943598D01*
X139697379Y-106943596D01*
X139832086Y-106893354D01*
X139832093Y-106893350D01*
X139947187Y-106807190D01*
X139947190Y-106807187D01*
X140033350Y-106692093D01*
X140033354Y-106692086D01*
X140083596Y-106557379D01*
X140083598Y-106557372D01*
X140089999Y-106497844D01*
X140090000Y-106497827D01*
X140090000Y-105850000D01*
X139173012Y-105850000D01*
X139205925Y-105792993D01*
X139240000Y-105665826D01*
X139240000Y-105534174D01*
X139205925Y-105407007D01*
X139173012Y-105350000D01*
X140090000Y-105350000D01*
X140090000Y-104702172D01*
X140089999Y-104702155D01*
X140083598Y-104642627D01*
X140083596Y-104642620D01*
X140033354Y-104507913D01*
X140033350Y-104507906D01*
X139947190Y-104392812D01*
X139947187Y-104392809D01*
X139832093Y-104306649D01*
X139832086Y-104306645D01*
X139697379Y-104256403D01*
X139697372Y-104256401D01*
X139637844Y-104250000D01*
X138990000Y-104250000D01*
X138990000Y-105166988D01*
X138932993Y-105134075D01*
X138805826Y-105100000D01*
X138674174Y-105100000D01*
X138547007Y-105134075D01*
X138490000Y-105166988D01*
X138490000Y-104250000D01*
X137842155Y-104250000D01*
X137782627Y-104256401D01*
X137782620Y-104256403D01*
X137647913Y-104306645D01*
X137647906Y-104306649D01*
X137532812Y-104392809D01*
X137532809Y-104392812D01*
X137446649Y-104507906D01*
X137446645Y-104507913D01*
X137396403Y-104642620D01*
X137396401Y-104642627D01*
X137390000Y-104702155D01*
X137390000Y-105104435D01*
X137370315Y-105171474D01*
X137317511Y-105217229D01*
X137248353Y-105227173D01*
X137184797Y-105198148D01*
X137151439Y-105151888D01*
X137137941Y-105119302D01*
X137130941Y-105102402D01*
X137015977Y-104930345D01*
X137015975Y-104930342D01*
X136869657Y-104784024D01*
X136727455Y-104689009D01*
X136697598Y-104669059D01*
X136506420Y-104589870D01*
X136506412Y-104589868D01*
X136303469Y-104549500D01*
X136303465Y-104549500D01*
X136096535Y-104549500D01*
X136096530Y-104549500D01*
X135893587Y-104589868D01*
X135893579Y-104589870D01*
X135702403Y-104669058D01*
X135530342Y-104784024D01*
X135384024Y-104930342D01*
X135269058Y-105102403D01*
X135189870Y-105293579D01*
X135189868Y-105293587D01*
X135149500Y-105496530D01*
X134710499Y-105496530D01*
X134670130Y-105293580D01*
X134590941Y-105102402D01*
X134475977Y-104930345D01*
X134475975Y-104930342D01*
X134329657Y-104784024D01*
X134187455Y-104689009D01*
X134157598Y-104669059D01*
X133966420Y-104589870D01*
X133966412Y-104589868D01*
X133763469Y-104549500D01*
X133763465Y-104549500D01*
X133556535Y-104549500D01*
X133556530Y-104549500D01*
X133353587Y-104589868D01*
X133353579Y-104589870D01*
X133162403Y-104669058D01*
X132990342Y-104784024D01*
X132844024Y-104930342D01*
X132729058Y-105102403D01*
X132649870Y-105293579D01*
X132649868Y-105293587D01*
X132609500Y-105496530D01*
X132170499Y-105496530D01*
X132130130Y-105293580D01*
X132050941Y-105102402D01*
X131935977Y-104930345D01*
X131935975Y-104930342D01*
X131789657Y-104784024D01*
X131647455Y-104689009D01*
X131617598Y-104669059D01*
X131426420Y-104589870D01*
X131426412Y-104589868D01*
X131223469Y-104549500D01*
X131223465Y-104549500D01*
X131016535Y-104549500D01*
X131016530Y-104549500D01*
X130813587Y-104589868D01*
X130813579Y-104589870D01*
X130622403Y-104669058D01*
X130450342Y-104784024D01*
X130304024Y-104930342D01*
X130189058Y-105102403D01*
X130109870Y-105293579D01*
X130109868Y-105293587D01*
X130069500Y-105496530D01*
X129630499Y-105496530D01*
X129590130Y-105293580D01*
X129510941Y-105102402D01*
X129395977Y-104930345D01*
X129395975Y-104930342D01*
X129249657Y-104784024D01*
X129107455Y-104689009D01*
X129077598Y-104669059D01*
X128886420Y-104589870D01*
X128886412Y-104589868D01*
X128683469Y-104549500D01*
X128683465Y-104549500D01*
X128476535Y-104549500D01*
X128476530Y-104549500D01*
X128273587Y-104589868D01*
X128273579Y-104589870D01*
X128082403Y-104669058D01*
X127910342Y-104784024D01*
X127764024Y-104930342D01*
X127649058Y-105102403D01*
X127569870Y-105293579D01*
X127569868Y-105293587D01*
X127529500Y-105496530D01*
X127090499Y-105496530D01*
X127050130Y-105293580D01*
X126970941Y-105102402D01*
X126855977Y-104930345D01*
X126855975Y-104930342D01*
X126709657Y-104784024D01*
X126567455Y-104689009D01*
X126537598Y-104669059D01*
X126346420Y-104589870D01*
X126346412Y-104589868D01*
X126143469Y-104549500D01*
X126143465Y-104549500D01*
X125936535Y-104549500D01*
X125936530Y-104549500D01*
X125733587Y-104589868D01*
X125733579Y-104589870D01*
X125542403Y-104669058D01*
X125370342Y-104784024D01*
X125224024Y-104930342D01*
X125109058Y-105102403D01*
X125029870Y-105293579D01*
X125029868Y-105293587D01*
X124989500Y-105496530D01*
X124550499Y-105496530D01*
X124510130Y-105293580D01*
X124430941Y-105102402D01*
X124315977Y-104930345D01*
X124315975Y-104930342D01*
X124169657Y-104784024D01*
X124027455Y-104689009D01*
X123997598Y-104669059D01*
X123806420Y-104589870D01*
X123806412Y-104589868D01*
X123603469Y-104549500D01*
X123603465Y-104549500D01*
X123396535Y-104549500D01*
X123396530Y-104549500D01*
X123193587Y-104589868D01*
X123193579Y-104589870D01*
X123002403Y-104669058D01*
X122830342Y-104784024D01*
X122684024Y-104930342D01*
X122569057Y-105102403D01*
X122500835Y-105267108D01*
X122456994Y-105321511D01*
X122390700Y-105343576D01*
X122323000Y-105326297D01*
X122275390Y-105275159D01*
X122268343Y-105257973D01*
X122211095Y-105081782D01*
X122114624Y-104892449D01*
X122075270Y-104838282D01*
X122075269Y-104838282D01*
X121442962Y-105470590D01*
X121425925Y-105407007D01*
X121360099Y-105292993D01*
X121267007Y-105199901D01*
X121152993Y-105134075D01*
X121089409Y-105117037D01*
X121721716Y-104484728D01*
X121667550Y-104445375D01*
X121478217Y-104348904D01*
X121276129Y-104283242D01*
X121066246Y-104250000D01*
X120853754Y-104250000D01*
X120643872Y-104283242D01*
X120643869Y-104283242D01*
X120441782Y-104348904D01*
X120252439Y-104445380D01*
X120198282Y-104484727D01*
X120198282Y-104484728D01*
X120830591Y-105117037D01*
X120767007Y-105134075D01*
X120652993Y-105199901D01*
X120559901Y-105292993D01*
X120494075Y-105407007D01*
X120477037Y-105470591D01*
X119844728Y-104838282D01*
X119844727Y-104838282D01*
X119805380Y-104892439D01*
X119708904Y-105081782D01*
X119643242Y-105283869D01*
X119643242Y-105283872D01*
X119610000Y-105493753D01*
X119610000Y-105706246D01*
X119643242Y-105916127D01*
X119643242Y-105916130D01*
X119708904Y-106118217D01*
X119805375Y-106307550D01*
X119844728Y-106361716D01*
X120477037Y-105729408D01*
X120494075Y-105792993D01*
X120559901Y-105907007D01*
X120652993Y-106000099D01*
X120767007Y-106065925D01*
X120830590Y-106082962D01*
X120198282Y-106715269D01*
X120198282Y-106715271D01*
X120253215Y-106755182D01*
X120295881Y-106810511D01*
X120301860Y-106880125D01*
X120269255Y-106941920D01*
X120208416Y-106976277D01*
X120180330Y-106979500D01*
X119926544Y-106979500D01*
X119859505Y-106959815D01*
X119838863Y-106943181D01*
X118486819Y-105591137D01*
X118472115Y-105564209D01*
X118455523Y-105538391D01*
X118454631Y-105532190D01*
X118453334Y-105529814D01*
X118450500Y-105503456D01*
X118450500Y-105427527D01*
X118450500Y-105427525D01*
X118412984Y-105287515D01*
X118405850Y-105275159D01*
X118340511Y-105161988D01*
X118340506Y-105161982D01*
X118238017Y-105059493D01*
X118238011Y-105059488D01*
X118112488Y-104987017D01*
X118112489Y-104987017D01*
X118101006Y-104983940D01*
X117972475Y-104949500D01*
X117827525Y-104949500D01*
X117698993Y-104983940D01*
X117687511Y-104987017D01*
X117561988Y-105059488D01*
X117561982Y-105059493D01*
X117459493Y-105161982D01*
X117459488Y-105161988D01*
X117387017Y-105287511D01*
X117387016Y-105287515D01*
X117349500Y-105427525D01*
X117349500Y-105572475D01*
X117384600Y-105703469D01*
X117387017Y-105712488D01*
X117459488Y-105838011D01*
X117459490Y-105838013D01*
X117459491Y-105838015D01*
X117561985Y-105940509D01*
X117561986Y-105940510D01*
X117561988Y-105940511D01*
X117687511Y-106012982D01*
X117687512Y-106012982D01*
X117687515Y-106012984D01*
X117827525Y-106050500D01*
X117903456Y-106050500D01*
X117970495Y-106070185D01*
X117991137Y-106086819D01*
X119410249Y-107505931D01*
X119443734Y-107567254D01*
X119438750Y-107636946D01*
X119396878Y-107692879D01*
X119331414Y-107717296D01*
X119321876Y-107717610D01*
X111606466Y-107674528D01*
X111605021Y-107674512D01*
X111321021Y-107669617D01*
X111316798Y-107669472D01*
X111050334Y-107655788D01*
X111045982Y-107655487D01*
X110789833Y-107633277D01*
X110785363Y-107632808D01*
X110539661Y-107602498D01*
X110535079Y-107601846D01*
X110298554Y-107563658D01*
X110293875Y-107562810D01*
X110067410Y-107517275D01*
X110062647Y-107516219D01*
X109844251Y-107463291D01*
X109839425Y-107462018D01*
X109636928Y-107404223D01*
X109629625Y-107401893D01*
X109229317Y-107260358D01*
X109219514Y-107256414D01*
X109027090Y-107169305D01*
X108855119Y-107091454D01*
X108845452Y-107086557D01*
X108508177Y-106896746D01*
X108498822Y-106890920D01*
X108421507Y-106837853D01*
X108376834Y-106807190D01*
X108186165Y-106676319D01*
X108177317Y-106669645D01*
X107887253Y-106429789D01*
X107879075Y-106422390D01*
X107828097Y-106371969D01*
X107610097Y-106156352D01*
X107602730Y-106148397D01*
X107353965Y-105854984D01*
X107347465Y-105846616D01*
X107231703Y-105683653D01*
X107118777Y-105524683D01*
X107113179Y-105516068D01*
X107101610Y-105496535D01*
X106905083Y-105164721D01*
X106900395Y-105156031D01*
X106714146Y-104775226D01*
X106710311Y-104766559D01*
X106697583Y-104734538D01*
X106547817Y-104357754D01*
X106544783Y-104349224D01*
X106408534Y-103916536D01*
X106406221Y-103908178D01*
X106299249Y-103460982D01*
X106297579Y-103452778D01*
X106223231Y-103011521D01*
X106222140Y-103003410D01*
X106183036Y-102615647D01*
X106182518Y-102608365D01*
X106175589Y-102441741D01*
X106175483Y-102436832D01*
X106170141Y-98152525D01*
X118794500Y-98152525D01*
X118794500Y-98297475D01*
X118832016Y-98437485D01*
X118832017Y-98437488D01*
X118904488Y-98563011D01*
X118904490Y-98563013D01*
X118904491Y-98563015D01*
X119006985Y-98665509D01*
X119006986Y-98665510D01*
X119006988Y-98665511D01*
X119132511Y-98737982D01*
X119132512Y-98737982D01*
X119132515Y-98737984D01*
X119272525Y-98775500D01*
X119272528Y-98775500D01*
X119417472Y-98775500D01*
X119417475Y-98775500D01*
X119557485Y-98737984D01*
X119683015Y-98665509D01*
X119785509Y-98563015D01*
X119857984Y-98437485D01*
X119895500Y-98297475D01*
X119895500Y-98152525D01*
X119857984Y-98012515D01*
X119816412Y-97940511D01*
X119785511Y-97886988D01*
X119785506Y-97886982D01*
X119683017Y-97784493D01*
X119683011Y-97784488D01*
X119557488Y-97712017D01*
X119557489Y-97712017D01*
X119546006Y-97708940D01*
X119417475Y-97674500D01*
X119272525Y-97674500D01*
X119143993Y-97708940D01*
X119132511Y-97712017D01*
X119006988Y-97784488D01*
X119006982Y-97784493D01*
X118904493Y-97886982D01*
X118904488Y-97886988D01*
X118832017Y-98012511D01*
X118832016Y-98012515D01*
X118794500Y-98152525D01*
X106170141Y-98152525D01*
X106150511Y-82409842D01*
X106150575Y-82405746D01*
X106153766Y-82307221D01*
X106154184Y-82300310D01*
X106154645Y-82295099D01*
X106185612Y-81945108D01*
X106186636Y-81936771D01*
X106205182Y-81818895D01*
X106253231Y-81513491D01*
X106254850Y-81505106D01*
X106354534Y-81069950D01*
X106356809Y-81061428D01*
X106486287Y-80637785D01*
X106489299Y-80629102D01*
X106493023Y-80619530D01*
X106523202Y-80541946D01*
X106645504Y-80227540D01*
X106649337Y-80218715D01*
X106682365Y-80150097D01*
X106829727Y-79843942D01*
X106834419Y-79835124D01*
X107037066Y-79488862D01*
X107042681Y-79480131D01*
X107266315Y-79162503D01*
X107272848Y-79154028D01*
X107516935Y-78864264D01*
X107524374Y-78856189D01*
X107525425Y-78855145D01*
X107789107Y-78593169D01*
X107797317Y-78585714D01*
X108083620Y-78348294D01*
X108092501Y-78341581D01*
X108401907Y-78128917D01*
X108411298Y-78123063D01*
X108745899Y-77934742D01*
X108755595Y-77929832D01*
X109124072Y-77763220D01*
X109131368Y-77760200D01*
X109316920Y-77690275D01*
X109321751Y-77688569D01*
X109522976Y-77622255D01*
X109527844Y-77620763D01*
X109736207Y-77561499D01*
X109741001Y-77560238D01*
X109959242Y-77507571D01*
X109963947Y-77506534D01*
X110190472Y-77461223D01*
X110195113Y-77460387D01*
X110431809Y-77422412D01*
X110436354Y-77421769D01*
X110682559Y-77391635D01*
X110686998Y-77391174D01*
X110943775Y-77369141D01*
X110948088Y-77368847D01*
X111215439Y-77355338D01*
X111219631Y-77355198D01*
X111503122Y-77350517D01*
X111505169Y-77350500D01*
X120530061Y-77350500D01*
X120597100Y-77370185D01*
G37*
%TD.AperFunction*%
%TA.AperFunction,Conductor*%
G36*
X122075270Y-106361717D02*
G01*
X122075270Y-106361716D01*
X122114622Y-106307554D01*
X122211095Y-106118217D01*
X122268343Y-105942026D01*
X122307780Y-105884351D01*
X122372139Y-105857152D01*
X122440985Y-105869066D01*
X122492461Y-105916310D01*
X122500833Y-105932887D01*
X122523949Y-105988693D01*
X122555939Y-106065925D01*
X122569059Y-106097598D01*
X122647770Y-106215398D01*
X122668647Y-106282075D01*
X122650162Y-106349455D01*
X122632348Y-106371969D01*
X122061137Y-106943181D01*
X122034209Y-106957884D01*
X122008391Y-106974477D01*
X122002190Y-106975368D01*
X121999814Y-106976666D01*
X121973456Y-106979500D01*
X121739671Y-106979500D01*
X121672632Y-106959815D01*
X121626877Y-106907011D01*
X121616933Y-106837853D01*
X121645958Y-106774297D01*
X121666785Y-106755182D01*
X121721716Y-106715270D01*
X121721717Y-106715270D01*
X121089408Y-106082962D01*
X121152993Y-106065925D01*
X121267007Y-106000099D01*
X121360099Y-105907007D01*
X121425925Y-105792993D01*
X121442962Y-105729408D01*
X122075270Y-106361717D01*
G37*
%TD.AperFunction*%
%TD*%
M02*
