%TF.GenerationSoftware,KiCad,Pcbnew,9.0.6*%
%TF.CreationDate,2026-08-19T00:14:21+05:30*%
%TF.ProjectId,RF_Transiever,52465f54-7261-46e7-9369-657665722e6b,rev?*%
%TF.SameCoordinates,Original*%
%TF.FileFunction,Copper,L4,Bot*%
%TF.FilePolarity,Positive*%
%FSLAX46Y46*%
G04 Gerber Fmt 4.6, Leading zero omitted, Abs format (unit mm)*
G04 Created by KiCad (PCBNEW 9.0.6) date 2026-08-19 00:14:21*
%MOMM*%
%LPD*%
G01*
G04 APERTURE LIST*
%TA.AperFunction,ComponentPad*%
%ADD10C,4.400000*%
%TD*%
%TA.AperFunction,ComponentPad*%
%ADD11R,1.700000X1.700000*%
%TD*%
%TA.AperFunction,ComponentPad*%
%ADD12C,1.700000*%
%TD*%
%TA.AperFunction,ViaPad*%
%ADD13C,0.700000*%
%TD*%
%TA.AperFunction,Conductor*%
%ADD14C,0.300000*%
%TD*%
%TA.AperFunction,Conductor*%
%ADD15C,0.334500*%
%TD*%
G04 APERTURE END LIST*
D10*
%TO.P,H4,1,1*%
%TO.N,GND*%
X147450000Y-103850000D03*
%TD*%
%TO.P,H3,1,1*%
%TO.N,GND*%
X110100000Y-104600000D03*
%TD*%
%TO.P,H2,1,1*%
%TO.N,GND*%
X146450000Y-80700000D03*
%TD*%
%TO.P,H1,1,1*%
%TO.N,GND*%
X110050000Y-80850000D03*
%TD*%
D11*
%TO.P,J1,1,Pin_1*%
%TO.N,GND*%
X139280000Y-79350000D03*
D12*
%TO.P,J1,2,Pin_2*%
%TO.N,DIO5*%
X136740000Y-79350000D03*
%TO.P,J1,3,Pin_3*%
%TO.N,DIO4*%
X134200000Y-79350000D03*
%TO.P,J1,4,Pin_4*%
%TO.N,DIO3*%
X131660000Y-79350000D03*
%TO.P,J1,5,Pin_5*%
%TO.N,DIO2*%
X129120000Y-79350000D03*
%TO.P,J1,6,Pin_6*%
%TO.N,DIO1*%
X126580000Y-79350000D03*
%TO.P,J1,7,Pin_7*%
%TO.N,DIO0*%
X124040000Y-79350000D03*
%TO.P,J1,8,Pin_8*%
%TO.N,+3.3V*%
X121500000Y-79350000D03*
%TD*%
D11*
%TO.P,J2,1,Pin_1*%
%TO.N,GND*%
X138740000Y-105600000D03*
D12*
%TO.P,J2,2,Pin_2*%
%TO.N,VCTL*%
X136200000Y-105600000D03*
%TO.P,J2,3,Pin_3*%
%TO.N,CS*%
X133660000Y-105600000D03*
%TO.P,J2,4,Pin_4*%
%TO.N,MOSI*%
X131120000Y-105600000D03*
%TO.P,J2,5,Pin_5*%
%TO.N,MISO*%
X128580000Y-105600000D03*
%TO.P,J2,6,Pin_6*%
%TO.N,SCK*%
X126040000Y-105600000D03*
%TO.P,J2,7,Pin_7*%
%TO.N,NRST*%
X123500000Y-105600000D03*
%TO.P,J2,8,Pin_8*%
%TO.N,GND*%
X120960000Y-105600000D03*
%TD*%
D13*
%TO.N,Net-(U1-VR_ANA)*%
X116400000Y-91250000D03*
X114000000Y-90880000D03*
%TO.N,GND*%
X124900000Y-86400000D03*
X127750000Y-102450000D03*
X121500000Y-96700000D03*
X141100000Y-96600000D03*
X137200000Y-92000000D03*
X119100000Y-92600000D03*
X134600000Y-93250000D03*
X135700000Y-90600000D03*
X131650000Y-98750000D03*
X130150000Y-83840000D03*
X126550000Y-88750000D03*
X115900000Y-97200000D03*
X115100000Y-96500000D03*
X147650000Y-90000000D03*
X109000000Y-88700000D03*
X122500000Y-86400000D03*
X139450000Y-90000000D03*
X123000000Y-88750000D03*
X113300000Y-95100000D03*
X132850000Y-87800000D03*
X131850000Y-87150000D03*
X139000000Y-102200000D03*
X112800000Y-106900000D03*
X133700000Y-86100000D03*
X135900000Y-96100000D03*
X129550000Y-92600000D03*
X144650000Y-90000000D03*
X137200000Y-90600000D03*
X144600000Y-98300000D03*
X111800000Y-99700000D03*
X116300000Y-106200000D03*
X120600000Y-94539000D03*
X131600000Y-90000000D03*
X150050000Y-85150000D03*
X133150000Y-91250000D03*
X120305000Y-97075000D03*
X137200000Y-91300000D03*
X121300000Y-86350000D03*
X144700000Y-86300000D03*
X122900000Y-94700000D03*
X146700000Y-90000000D03*
X123950000Y-94700000D03*
X116800000Y-95100000D03*
X134400000Y-89200000D03*
X113350000Y-103000000D03*
X135600000Y-84300000D03*
X133150000Y-97000000D03*
X141400000Y-87400000D03*
X115100000Y-94400000D03*
X141550000Y-90000000D03*
X147900000Y-92050000D03*
X127750000Y-88750000D03*
X130700000Y-82200000D03*
X150000000Y-96800000D03*
X115900000Y-96500000D03*
X143600000Y-90000000D03*
X130750000Y-86650000D03*
X132300000Y-90650000D03*
X145700000Y-90000000D03*
X132750000Y-92100000D03*
X144900000Y-93600000D03*
X146800000Y-99500000D03*
X136500000Y-98550000D03*
X133700000Y-88550000D03*
X129550000Y-86450000D03*
X113300000Y-97200000D03*
X119550000Y-88750000D03*
X148850000Y-92050000D03*
X113300000Y-96500000D03*
X128400000Y-92600000D03*
X119250000Y-104550000D03*
X135100000Y-101150000D03*
X141300000Y-84500000D03*
X116800000Y-93700000D03*
X118800000Y-89400000D03*
X120250000Y-92600000D03*
X135000000Y-103100000D03*
X149800000Y-92000000D03*
X131850000Y-92600000D03*
X109700000Y-84900000D03*
X128150000Y-96000000D03*
X131500000Y-95850000D03*
X124150000Y-88750000D03*
X136433100Y-91300000D03*
X114200000Y-96500000D03*
X116450000Y-88850000D03*
X113300000Y-95800000D03*
X142400000Y-105700000D03*
X125000000Y-94700000D03*
X127250000Y-92600000D03*
X120305000Y-98225000D03*
X121450000Y-92600000D03*
X148550000Y-90000000D03*
X120300000Y-95939000D03*
X113300000Y-94400000D03*
X129800000Y-101950000D03*
X117200000Y-80200000D03*
X117050000Y-87600000D03*
X121800000Y-94700000D03*
X132550000Y-101700000D03*
X108550000Y-95600000D03*
X115000000Y-78500000D03*
X130700000Y-92600000D03*
X115100000Y-97200000D03*
X123750000Y-86400000D03*
X129300000Y-94580000D03*
X140550000Y-83000000D03*
X144900000Y-94800000D03*
X142600000Y-90000000D03*
X116800000Y-96500000D03*
X121850000Y-88750000D03*
X123850000Y-92600000D03*
X133750000Y-93950000D03*
X115300000Y-105200000D03*
X115900000Y-95800000D03*
X115100000Y-95100000D03*
X127100000Y-96000000D03*
X115100000Y-95800000D03*
X107250000Y-92050000D03*
X125300000Y-99200000D03*
X126050000Y-86400000D03*
X114200000Y-94400000D03*
X143700000Y-101900000D03*
X127650000Y-83950000D03*
X114200000Y-93700000D03*
X130450000Y-95850000D03*
X136433100Y-92000000D03*
X116800000Y-94400000D03*
X116800000Y-97200000D03*
X118000000Y-92600000D03*
X122100000Y-99200000D03*
X116429975Y-90260025D03*
X125900000Y-96750000D03*
X115900000Y-94400000D03*
X130950000Y-89300000D03*
X125200000Y-82100000D03*
X109950000Y-86950000D03*
X108850000Y-98150000D03*
X126150000Y-92600000D03*
X117700000Y-103800000D03*
X128400000Y-86400000D03*
X114950000Y-102000000D03*
X149550000Y-90000000D03*
X120700000Y-88750000D03*
X115100000Y-93700000D03*
X135700000Y-91300000D03*
X140750000Y-93080000D03*
X125950000Y-103050000D03*
X146900000Y-92000000D03*
X141850000Y-91985000D03*
X122600000Y-92600000D03*
X114200000Y-95100000D03*
X115900000Y-93700000D03*
X128150000Y-98200000D03*
X125000000Y-92600000D03*
X139600000Y-93710000D03*
X106700000Y-96250000D03*
X108300000Y-101350000D03*
X114200000Y-95800000D03*
X120150000Y-86350000D03*
X140500000Y-90000000D03*
X127250000Y-86400000D03*
X114200000Y-97200000D03*
X115900000Y-95100000D03*
X143450000Y-92000000D03*
X113300000Y-93700000D03*
X136433100Y-90600000D03*
X130000000Y-88800000D03*
X116800000Y-95800000D03*
X128900000Y-88750000D03*
X149300000Y-99200000D03*
X135700000Y-92000000D03*
X128000000Y-82300000D03*
X125300000Y-88750000D03*
%TO.N,+3.3V*%
X139600000Y-92720000D03*
X119700000Y-99200000D03*
X111650000Y-86000000D03*
X115300000Y-91250000D03*
X111900000Y-98300000D03*
X138980000Y-94800000D03*
%TO.N,NRST*%
X117900000Y-105500000D03*
%TO.N,DIO0*%
X110900000Y-93100000D03*
%TO.N,DIO1*%
X125200000Y-84047250D03*
X110128254Y-93563047D03*
%TO.N,DIO3*%
X109599999Y-95278550D03*
%TO.N,DIO2*%
X109800000Y-94401051D03*
%TO.N,DIO4*%
X109600000Y-96178552D03*
%TO.N,DIO5*%
X109800000Y-97500000D03*
%TD*%
D14*
%TO.N,Net-(U1-VR_ANA)*%
X114360000Y-90520000D02*
X115700000Y-90520000D01*
X114000000Y-90880000D02*
X114360000Y-90520000D01*
X115700000Y-90520000D02*
X116400000Y-91220000D01*
X116400000Y-91220000D02*
X116400000Y-91250000D01*
%TO.N,NRST*%
X123500000Y-106000000D02*
X122250000Y-107250000D01*
X123500000Y-105600000D02*
X123500000Y-106000000D01*
X119650000Y-107250000D02*
X117900000Y-105500000D01*
X122250000Y-107250000D02*
X119650000Y-107250000D01*
D15*
%TO.N,DIO1*%
X110128254Y-91121746D02*
X110128254Y-93563047D01*
X117200000Y-84050000D02*
X110128254Y-91121746D01*
X125197250Y-84050000D02*
X117200000Y-84050000D01*
X125200000Y-84047250D02*
X125197250Y-84050000D01*
%TO.N,DIO3*%
X108600000Y-94278551D02*
X108600000Y-90100000D01*
X109281750Y-89418250D02*
X109297509Y-89418250D01*
X109718250Y-88981750D02*
X121181750Y-77518250D01*
X121181750Y-77518250D02*
X129828250Y-77518250D01*
X109297509Y-89418250D02*
X109718250Y-88997509D01*
X109599999Y-95278550D02*
X108600000Y-94278551D01*
X109718250Y-88997509D02*
X109718250Y-88981750D01*
X108600000Y-90100000D02*
X109281750Y-89418250D01*
X129828250Y-77518250D02*
X131660000Y-79350000D01*
%TO.N,DIO2*%
X109410004Y-90889996D02*
X117000000Y-83300000D01*
X129120000Y-79780000D02*
X129120000Y-79350000D01*
X117000000Y-83300000D02*
X125600000Y-83300000D01*
X109800000Y-94401051D02*
X109410004Y-94011055D01*
X109410004Y-94011055D02*
X109410004Y-90889996D01*
X125600000Y-83300000D02*
X129120000Y-79780000D01*
%TO.N,DIO4*%
X111630000Y-90520000D02*
X117385500Y-84764500D01*
X134200000Y-81600000D02*
X134200000Y-79350000D01*
X109715756Y-96178552D02*
X111630000Y-94264308D01*
X109600000Y-96178552D02*
X109715756Y-96178552D01*
X111630000Y-94264308D02*
X111630000Y-90520000D01*
X117385500Y-84764500D02*
X131035500Y-84764500D01*
X131035500Y-84764500D02*
X134200000Y-81600000D01*
%TO.N,DIO5*%
X112190000Y-95110000D02*
X112190000Y-91010000D01*
X112190000Y-91010000D02*
X117650000Y-85550000D01*
X117650000Y-85550000D02*
X131350000Y-85550000D01*
X131350000Y-85550000D02*
X136500000Y-80400000D01*
X109800000Y-97500000D02*
X112190000Y-95110000D01*
X136500000Y-80400000D02*
X136500000Y-79590000D01*
X136500000Y-79590000D02*
X136740000Y-79350000D01*
%TD*%
%TA.AperFunction,Conductor*%
%TO.N,GND*%
G36*
X120597100Y-77370185D02*
G01*
X120642855Y-77422989D01*
X120652799Y-77492147D01*
X120623774Y-77555703D01*
X120617742Y-77562181D01*
X112361227Y-85818695D01*
X112299904Y-85852180D01*
X112230212Y-85847196D01*
X112174279Y-85805324D01*
X112166159Y-85793014D01*
X112153926Y-85771827D01*
X112090509Y-85661985D01*
X111988015Y-85559491D01*
X111988013Y-85559490D01*
X111988011Y-85559488D01*
X111862488Y-85487017D01*
X111862489Y-85487017D01*
X111851006Y-85483940D01*
X111722475Y-85449500D01*
X111577525Y-85449500D01*
X111448993Y-85483940D01*
X111437511Y-85487017D01*
X111311988Y-85559488D01*
X111311982Y-85559493D01*
X111209493Y-85661982D01*
X111209488Y-85661988D01*
X111137017Y-85787511D01*
X111132583Y-85804055D01*
X111099500Y-85927525D01*
X111099500Y-86072475D01*
X111137016Y-86212485D01*
X111137017Y-86212488D01*
X111209488Y-86338011D01*
X111209490Y-86338013D01*
X111209491Y-86338015D01*
X111311985Y-86440509D01*
X111421827Y-86503926D01*
X111443014Y-86516159D01*
X111491230Y-86566726D01*
X111504452Y-86635333D01*
X111478484Y-86700198D01*
X111468695Y-86711227D01*
X109495604Y-88684318D01*
X109495597Y-88684325D01*
X109492446Y-88687477D01*
X109423977Y-88755946D01*
X109404708Y-88789319D01*
X109396976Y-88798252D01*
X109394871Y-88799605D01*
X109390905Y-88804775D01*
X109104775Y-89090905D01*
X109079098Y-89110609D01*
X109055943Y-89123978D01*
X108374196Y-89805727D01*
X108305728Y-89874194D01*
X108305726Y-89874197D01*
X108257312Y-89958053D01*
X108257312Y-89958054D01*
X108232250Y-90051585D01*
X108232250Y-94230136D01*
X108232250Y-94326966D01*
X108253956Y-94407974D01*
X108257312Y-94420497D01*
X108305726Y-94504353D01*
X108305728Y-94504356D01*
X109013180Y-95211808D01*
X109046665Y-95273131D01*
X109049499Y-95299489D01*
X109049499Y-95351025D01*
X109087015Y-95491035D01*
X109087016Y-95491038D01*
X109159487Y-95616561D01*
X109159492Y-95616567D01*
X109183795Y-95640870D01*
X109217280Y-95702193D01*
X109212296Y-95771885D01*
X109183797Y-95816231D01*
X109159488Y-95840540D01*
X109087017Y-95966063D01*
X109087016Y-95966067D01*
X109049500Y-96106077D01*
X109049500Y-96251027D01*
X109087016Y-96391037D01*
X109087017Y-96391040D01*
X109159488Y-96516563D01*
X109159490Y-96516565D01*
X109159491Y-96516567D01*
X109261985Y-96619061D01*
X109261986Y-96619062D01*
X109261988Y-96619063D01*
X109387511Y-96691534D01*
X109387512Y-96691534D01*
X109387515Y-96691536D01*
X109527525Y-96729052D01*
X109527528Y-96729052D01*
X109608377Y-96729052D01*
X109675416Y-96748737D01*
X109721171Y-96801541D01*
X109731115Y-96870699D01*
X109702090Y-96934255D01*
X109643312Y-96972029D01*
X109640523Y-96972812D01*
X109592559Y-96985664D01*
X109587511Y-96987017D01*
X109461988Y-97059488D01*
X109461982Y-97059493D01*
X109359493Y-97161982D01*
X109359488Y-97161988D01*
X109287017Y-97287511D01*
X109287016Y-97287515D01*
X109249500Y-97427525D01*
X109249500Y-97572475D01*
X109287016Y-97712485D01*
X109287017Y-97712488D01*
X109359488Y-97838011D01*
X109359490Y-97838013D01*
X109359491Y-97838015D01*
X109461985Y-97940509D01*
X109461986Y-97940510D01*
X109461988Y-97940511D01*
X109587511Y-98012982D01*
X109587512Y-98012982D01*
X109587515Y-98012984D01*
X109727525Y-98050500D01*
X109727528Y-98050500D01*
X109872472Y-98050500D01*
X109872475Y-98050500D01*
X110012485Y-98012984D01*
X110138015Y-97940509D01*
X110240509Y-97838015D01*
X110312984Y-97712485D01*
X110350500Y-97572475D01*
X110350500Y-97520939D01*
X110370185Y-97453900D01*
X110386819Y-97433258D01*
X111429040Y-96391037D01*
X112484273Y-95335804D01*
X112532688Y-95251946D01*
X112557750Y-95158415D01*
X112557750Y-95061585D01*
X112557750Y-94727525D01*
X138429500Y-94727525D01*
X138429500Y-94872475D01*
X138440487Y-94913477D01*
X138467017Y-95012488D01*
X138539488Y-95138011D01*
X138539490Y-95138013D01*
X138539491Y-95138015D01*
X138641985Y-95240509D01*
X138641986Y-95240510D01*
X138641988Y-95240511D01*
X138767511Y-95312982D01*
X138767512Y-95312982D01*
X138767515Y-95312984D01*
X138907525Y-95350500D01*
X138907528Y-95350500D01*
X139052472Y-95350500D01*
X139052475Y-95350500D01*
X139192485Y-95312984D01*
X139318015Y-95240509D01*
X139420509Y-95138015D01*
X139492984Y-95012485D01*
X139530500Y-94872475D01*
X139530500Y-94727525D01*
X139492984Y-94587515D01*
X139444971Y-94504355D01*
X139420511Y-94461988D01*
X139420506Y-94461982D01*
X139318017Y-94359493D01*
X139318011Y-94359488D01*
X139192488Y-94287017D01*
X139192489Y-94287017D01*
X139181006Y-94283940D01*
X139052475Y-94249500D01*
X138907525Y-94249500D01*
X138778993Y-94283940D01*
X138767511Y-94287017D01*
X138641988Y-94359488D01*
X138641982Y-94359493D01*
X138539493Y-94461982D01*
X138539488Y-94461988D01*
X138467017Y-94587511D01*
X138467016Y-94587515D01*
X138429500Y-94727525D01*
X112557750Y-94727525D01*
X112557750Y-92647525D01*
X139049500Y-92647525D01*
X139049500Y-92792475D01*
X139087016Y-92932485D01*
X139087017Y-92932488D01*
X139159488Y-93058011D01*
X139159490Y-93058013D01*
X139159491Y-93058015D01*
X139261985Y-93160509D01*
X139261986Y-93160510D01*
X139261988Y-93160511D01*
X139387511Y-93232982D01*
X139387512Y-93232982D01*
X139387515Y-93232984D01*
X139527525Y-93270500D01*
X139527528Y-93270500D01*
X139672472Y-93270500D01*
X139672475Y-93270500D01*
X139812485Y-93232984D01*
X139938015Y-93160509D01*
X140040509Y-93058015D01*
X140112984Y-92932485D01*
X140150500Y-92792475D01*
X140150500Y-92647525D01*
X140112984Y-92507515D01*
X140040509Y-92381985D01*
X139938015Y-92279491D01*
X139938013Y-92279490D01*
X139938011Y-92279488D01*
X139812488Y-92207017D01*
X139812489Y-92207017D01*
X139801006Y-92203940D01*
X139672475Y-92169500D01*
X139527525Y-92169500D01*
X139398993Y-92203940D01*
X139387511Y-92207017D01*
X139261988Y-92279488D01*
X139261982Y-92279493D01*
X139159493Y-92381982D01*
X139159488Y-92381988D01*
X139087017Y-92507511D01*
X139087016Y-92507515D01*
X139049500Y-92647525D01*
X112557750Y-92647525D01*
X112557750Y-91213689D01*
X112577435Y-91146650D01*
X112594069Y-91126008D01*
X112912552Y-90807525D01*
X113449500Y-90807525D01*
X113449500Y-90952475D01*
X113472286Y-91037511D01*
X113487017Y-91092488D01*
X113559488Y-91218011D01*
X113559490Y-91218013D01*
X113559491Y-91218015D01*
X113661985Y-91320509D01*
X113661986Y-91320510D01*
X113661988Y-91320511D01*
X113787511Y-91392982D01*
X113787512Y-91392982D01*
X113787515Y-91392984D01*
X113927525Y-91430500D01*
X113927528Y-91430500D01*
X114072472Y-91430500D01*
X114072475Y-91430500D01*
X114212485Y-91392984D01*
X114338015Y-91320509D01*
X114440509Y-91218015D01*
X114512984Y-91092485D01*
X114547839Y-90962403D01*
X114584203Y-90902746D01*
X114647050Y-90872217D01*
X114667613Y-90870500D01*
X114670617Y-90870500D01*
X114737656Y-90890185D01*
X114783411Y-90942989D01*
X114793355Y-91012147D01*
X114788588Y-91029522D01*
X114789120Y-91029665D01*
X114787018Y-91037511D01*
X114787016Y-91037515D01*
X114749500Y-91177525D01*
X114749500Y-91322475D01*
X114778446Y-91430500D01*
X114787017Y-91462488D01*
X114859488Y-91588011D01*
X114859490Y-91588013D01*
X114859491Y-91588015D01*
X114961985Y-91690509D01*
X114961986Y-91690510D01*
X114961988Y-91690511D01*
X115087511Y-91762982D01*
X115087512Y-91762982D01*
X115087515Y-91762984D01*
X115227525Y-91800500D01*
X115227528Y-91800500D01*
X115372472Y-91800500D01*
X115372475Y-91800500D01*
X115512485Y-91762984D01*
X115638015Y-91690509D01*
X115740509Y-91588015D01*
X115742612Y-91584371D01*
X115745190Y-91581913D01*
X115745457Y-91581566D01*
X115745511Y-91581607D01*
X115793177Y-91536156D01*
X115861783Y-91522931D01*
X115926649Y-91548897D01*
X115957386Y-91584370D01*
X115959491Y-91588015D01*
X116061985Y-91690509D01*
X116061986Y-91690510D01*
X116061988Y-91690511D01*
X116187511Y-91762982D01*
X116187512Y-91762982D01*
X116187515Y-91762984D01*
X116327525Y-91800500D01*
X116327528Y-91800500D01*
X116472472Y-91800500D01*
X116472475Y-91800500D01*
X116612485Y-91762984D01*
X116738015Y-91690509D01*
X116840509Y-91588015D01*
X116912984Y-91462485D01*
X116950500Y-91322475D01*
X116950500Y-91177525D01*
X116912984Y-91037515D01*
X116908369Y-91029522D01*
X116840511Y-90911988D01*
X116840506Y-90911982D01*
X116738017Y-90809493D01*
X116738011Y-90809488D01*
X116612488Y-90737017D01*
X116612489Y-90737017D01*
X116597046Y-90732879D01*
X116472475Y-90699500D01*
X116472472Y-90699500D01*
X116426544Y-90699500D01*
X116359505Y-90679815D01*
X116338863Y-90663181D01*
X115915213Y-90239531D01*
X115915208Y-90239527D01*
X115835290Y-90193387D01*
X115835289Y-90193386D01*
X115835288Y-90193386D01*
X115746144Y-90169500D01*
X114313856Y-90169500D01*
X114224712Y-90193386D01*
X114224709Y-90193387D01*
X114144791Y-90239527D01*
X114144786Y-90239531D01*
X114091137Y-90293181D01*
X114029814Y-90326666D01*
X114003456Y-90329500D01*
X113927525Y-90329500D01*
X113798993Y-90363940D01*
X113787511Y-90367017D01*
X113661988Y-90439488D01*
X113661982Y-90439493D01*
X113559493Y-90541982D01*
X113559488Y-90541988D01*
X113487017Y-90667511D01*
X113487016Y-90667515D01*
X113449500Y-90807525D01*
X112912552Y-90807525D01*
X117766008Y-85954069D01*
X117827331Y-85920584D01*
X117853689Y-85917750D01*
X131398413Y-85917750D01*
X131398415Y-85917750D01*
X131491946Y-85892688D01*
X131575804Y-85844273D01*
X136794273Y-80625804D01*
X136842688Y-80541946D01*
X136862722Y-80467177D01*
X136899086Y-80407519D01*
X136958302Y-80377657D01*
X137046420Y-80360130D01*
X137237598Y-80280941D01*
X137409655Y-80165977D01*
X137555977Y-80019655D01*
X137670941Y-79847598D01*
X137691439Y-79798112D01*
X137735279Y-79743708D01*
X137801573Y-79721643D01*
X137869273Y-79738922D01*
X137916884Y-79790059D01*
X137930000Y-79845564D01*
X137930000Y-80247844D01*
X137936401Y-80307372D01*
X137936403Y-80307379D01*
X137986645Y-80442086D01*
X137986649Y-80442093D01*
X138072809Y-80557187D01*
X138072812Y-80557190D01*
X138187906Y-80643350D01*
X138187913Y-80643354D01*
X138322620Y-80693596D01*
X138322627Y-80693598D01*
X138382155Y-80699999D01*
X138382172Y-80700000D01*
X139030000Y-80700000D01*
X139030000Y-79783012D01*
X139087007Y-79815925D01*
X139214174Y-79850000D01*
X139345826Y-79850000D01*
X139472993Y-79815925D01*
X139530000Y-79783012D01*
X139530000Y-80700000D01*
X140177828Y-80700000D01*
X140177844Y-80699999D01*
X140237372Y-80693598D01*
X140237379Y-80693596D01*
X140372086Y-80643354D01*
X140372093Y-80643350D01*
X140487187Y-80557190D01*
X140487190Y-80557187D01*
X140573350Y-80442093D01*
X140573354Y-80442086D01*
X140623596Y-80307379D01*
X140623598Y-80307372D01*
X140629999Y-80247844D01*
X140630000Y-80247827D01*
X140630000Y-79600000D01*
X139713012Y-79600000D01*
X139745925Y-79542993D01*
X139780000Y-79415826D01*
X139780000Y-79284174D01*
X139745925Y-79157007D01*
X139713012Y-79100000D01*
X140630000Y-79100000D01*
X140630000Y-78452172D01*
X140629999Y-78452155D01*
X140623598Y-78392627D01*
X140623596Y-78392620D01*
X140573354Y-78257913D01*
X140573350Y-78257906D01*
X140487190Y-78142812D01*
X140487187Y-78142809D01*
X140372093Y-78056649D01*
X140372086Y-78056645D01*
X140237379Y-78006403D01*
X140237372Y-78006401D01*
X140177844Y-78000000D01*
X139530000Y-78000000D01*
X139530000Y-78916988D01*
X139472993Y-78884075D01*
X139345826Y-78850000D01*
X139214174Y-78850000D01*
X139087007Y-78884075D01*
X139030000Y-78916988D01*
X139030000Y-78000000D01*
X138382155Y-78000000D01*
X138322627Y-78006401D01*
X138322620Y-78006403D01*
X138187913Y-78056645D01*
X138187906Y-78056649D01*
X138072812Y-78142809D01*
X138072809Y-78142812D01*
X137986649Y-78257906D01*
X137986645Y-78257913D01*
X137936403Y-78392620D01*
X137936401Y-78392627D01*
X137930000Y-78452155D01*
X137930000Y-78854435D01*
X137910315Y-78921474D01*
X137857511Y-78967229D01*
X137788353Y-78977173D01*
X137724797Y-78948148D01*
X137691439Y-78901888D01*
X137687340Y-78891993D01*
X137670941Y-78852402D01*
X137555977Y-78680345D01*
X137555975Y-78680342D01*
X137409657Y-78534024D01*
X137287130Y-78452155D01*
X137237598Y-78419059D01*
X137058167Y-78344736D01*
X137046420Y-78339870D01*
X137046412Y-78339868D01*
X136843469Y-78299500D01*
X136843465Y-78299500D01*
X136636535Y-78299500D01*
X136636530Y-78299500D01*
X136433587Y-78339868D01*
X136433579Y-78339870D01*
X136242403Y-78419058D01*
X136070342Y-78534024D01*
X135924024Y-78680342D01*
X135809058Y-78852403D01*
X135729870Y-79043579D01*
X135729868Y-79043587D01*
X135689500Y-79246530D01*
X135689500Y-79453469D01*
X135729868Y-79656412D01*
X135729870Y-79656420D01*
X135809058Y-79847596D01*
X135924024Y-80019657D01*
X136054464Y-80150097D01*
X136087949Y-80211420D01*
X136082965Y-80281112D01*
X136054464Y-80325459D01*
X134779431Y-81600492D01*
X134718108Y-81633977D01*
X134648416Y-81628993D01*
X134592483Y-81587121D01*
X134568066Y-81521657D01*
X134567750Y-81512811D01*
X134567750Y-80417580D01*
X134587435Y-80350541D01*
X134640239Y-80304786D01*
X134644298Y-80303019D01*
X134697594Y-80280943D01*
X134697595Y-80280942D01*
X134697598Y-80280941D01*
X134869655Y-80165977D01*
X135015977Y-80019655D01*
X135130941Y-79847598D01*
X135210130Y-79656420D01*
X135250500Y-79453465D01*
X135250500Y-79246535D01*
X135210130Y-79043580D01*
X135130941Y-78852402D01*
X135015977Y-78680345D01*
X135015975Y-78680342D01*
X134869657Y-78534024D01*
X134747130Y-78452155D01*
X134697598Y-78419059D01*
X134518167Y-78344736D01*
X134506420Y-78339870D01*
X134506412Y-78339868D01*
X134303469Y-78299500D01*
X134303465Y-78299500D01*
X134096535Y-78299500D01*
X134096530Y-78299500D01*
X133893587Y-78339868D01*
X133893579Y-78339870D01*
X133702403Y-78419058D01*
X133530342Y-78534024D01*
X133384024Y-78680342D01*
X133269058Y-78852403D01*
X133189870Y-79043579D01*
X133189868Y-79043587D01*
X133149500Y-79246530D01*
X133149500Y-79453469D01*
X133189868Y-79656412D01*
X133189870Y-79656420D01*
X133269058Y-79847596D01*
X133384024Y-80019657D01*
X133530342Y-80165975D01*
X133702405Y-80280943D01*
X133755702Y-80303019D01*
X133810106Y-80346860D01*
X133832171Y-80413154D01*
X133832250Y-80417580D01*
X133832250Y-81396311D01*
X133812565Y-81463350D01*
X133795931Y-81483992D01*
X130919492Y-84360431D01*
X130858169Y-84393916D01*
X130831811Y-84396750D01*
X125837871Y-84396750D01*
X125770832Y-84377065D01*
X125725077Y-84324261D01*
X125715133Y-84255103D01*
X125718096Y-84240656D01*
X125750500Y-84119725D01*
X125750500Y-83974775D01*
X125712984Y-83834765D01*
X125712982Y-83834761D01*
X125699053Y-83810635D01*
X125682580Y-83742735D01*
X125705432Y-83676708D01*
X125744439Y-83641248D01*
X125825804Y-83594273D01*
X128983258Y-80436819D01*
X129044581Y-80403334D01*
X129070939Y-80400500D01*
X129223466Y-80400500D01*
X129223467Y-80400499D01*
X129426420Y-80360130D01*
X129617598Y-80280941D01*
X129789655Y-80165977D01*
X129935977Y-80019655D01*
X130050941Y-79847598D01*
X130130130Y-79656420D01*
X130170500Y-79453465D01*
X130170500Y-79246535D01*
X130130130Y-79043580D01*
X130050941Y-78852402D01*
X129935977Y-78680345D01*
X129935975Y-78680342D01*
X129789657Y-78534024D01*
X129667130Y-78452155D01*
X129617598Y-78419059D01*
X129438167Y-78344736D01*
X129426420Y-78339870D01*
X129426412Y-78339868D01*
X129223469Y-78299500D01*
X129223465Y-78299500D01*
X129016535Y-78299500D01*
X129016530Y-78299500D01*
X128813587Y-78339868D01*
X128813579Y-78339870D01*
X128622403Y-78419058D01*
X128450342Y-78534024D01*
X128304024Y-78680342D01*
X128189058Y-78852403D01*
X128109870Y-79043579D01*
X128109868Y-79043587D01*
X128069500Y-79246530D01*
X128069500Y-79453469D01*
X128109868Y-79656412D01*
X128109870Y-79656420D01*
X128189058Y-79847597D01*
X128270014Y-79968756D01*
X128290892Y-80035434D01*
X128272407Y-80102814D01*
X128254593Y-80125328D01*
X125483992Y-82895931D01*
X125422669Y-82929416D01*
X125396311Y-82932250D01*
X117048415Y-82932250D01*
X116951585Y-82932250D01*
X116889231Y-82948958D01*
X116858053Y-82957312D01*
X116774197Y-83005726D01*
X116774194Y-83005728D01*
X109179431Y-90600492D01*
X109118108Y-90633977D01*
X109048416Y-90628993D01*
X108992483Y-90587121D01*
X108968066Y-90521657D01*
X108967750Y-90512811D01*
X108967750Y-90303688D01*
X108987435Y-90236649D01*
X109004065Y-90216011D01*
X109474485Y-89745590D01*
X109500163Y-89725887D01*
X109523313Y-89712523D01*
X110012523Y-89223313D01*
X110025887Y-89200163D01*
X110045590Y-89174485D01*
X120278636Y-78941439D01*
X120339958Y-78907956D01*
X120409650Y-78912940D01*
X120465583Y-78954812D01*
X120490000Y-79020276D01*
X120487933Y-79053313D01*
X120449500Y-79246530D01*
X120449500Y-79453469D01*
X120489868Y-79656412D01*
X120489870Y-79656420D01*
X120569058Y-79847596D01*
X120684024Y-80019657D01*
X120830342Y-80165975D01*
X120830345Y-80165977D01*
X121002402Y-80280941D01*
X121193580Y-80360130D01*
X121380875Y-80397385D01*
X121396530Y-80400499D01*
X121396534Y-80400500D01*
X121396535Y-80400500D01*
X121603466Y-80400500D01*
X121603467Y-80400499D01*
X121806420Y-80360130D01*
X121997598Y-80280941D01*
X122169655Y-80165977D01*
X122315977Y-80019655D01*
X122430941Y-79847598D01*
X122510130Y-79656420D01*
X122550500Y-79453465D01*
X122550500Y-79246535D01*
X122550499Y-79246530D01*
X122989500Y-79246530D01*
X122989500Y-79453469D01*
X123029868Y-79656412D01*
X123029870Y-79656420D01*
X123109058Y-79847596D01*
X123224024Y-80019657D01*
X123370342Y-80165975D01*
X123370345Y-80165977D01*
X123542402Y-80280941D01*
X123733580Y-80360130D01*
X123920875Y-80397385D01*
X123936530Y-80400499D01*
X123936534Y-80400500D01*
X123936535Y-80400500D01*
X124143466Y-80400500D01*
X124143467Y-80400499D01*
X124346420Y-80360130D01*
X124537598Y-80280941D01*
X124709655Y-80165977D01*
X124855977Y-80019655D01*
X124970941Y-79847598D01*
X125050130Y-79656420D01*
X125090500Y-79453465D01*
X125090500Y-79246535D01*
X125090499Y-79246530D01*
X125529500Y-79246530D01*
X125529500Y-79453469D01*
X125569868Y-79656412D01*
X125569870Y-79656420D01*
X125649058Y-79847596D01*
X125764024Y-80019657D01*
X125910342Y-80165975D01*
X125910345Y-80165977D01*
X126082402Y-80280941D01*
X126273580Y-80360130D01*
X126460875Y-80397385D01*
X126476530Y-80400499D01*
X126476534Y-80400500D01*
X126476535Y-80400500D01*
X126683466Y-80400500D01*
X126683467Y-80400499D01*
X126886420Y-80360130D01*
X127077598Y-80280941D01*
X127249655Y-80165977D01*
X127395977Y-80019655D01*
X127510941Y-79847598D01*
X127590130Y-79656420D01*
X127630500Y-79453465D01*
X127630500Y-79246535D01*
X127590130Y-79043580D01*
X127510941Y-78852402D01*
X127395977Y-78680345D01*
X127395975Y-78680342D01*
X127249657Y-78534024D01*
X127127130Y-78452155D01*
X127077598Y-78419059D01*
X126898167Y-78344736D01*
X126886420Y-78339870D01*
X126886412Y-78339868D01*
X126683469Y-78299500D01*
X126683465Y-78299500D01*
X126476535Y-78299500D01*
X126476530Y-78299500D01*
X126273587Y-78339868D01*
X126273579Y-78339870D01*
X126082403Y-78419058D01*
X125910342Y-78534024D01*
X125764024Y-78680342D01*
X125649058Y-78852403D01*
X125569870Y-79043579D01*
X125569868Y-79043587D01*
X125529500Y-79246530D01*
X125090499Y-79246530D01*
X125050130Y-79043580D01*
X124970941Y-78852402D01*
X124855977Y-78680345D01*
X124855975Y-78680342D01*
X124709657Y-78534024D01*
X124587130Y-78452155D01*
X124537598Y-78419059D01*
X124358167Y-78344736D01*
X124346420Y-78339870D01*
X124346412Y-78339868D01*
X124143469Y-78299500D01*
X124143465Y-78299500D01*
X123936535Y-78299500D01*
X123936530Y-78299500D01*
X123733587Y-78339868D01*
X123733579Y-78339870D01*
X123542403Y-78419058D01*
X123370342Y-78534024D01*
X123224024Y-78680342D01*
X123109058Y-78852403D01*
X123029870Y-79043579D01*
X123029868Y-79043587D01*
X122989500Y-79246530D01*
X122550499Y-79246530D01*
X122510130Y-79043580D01*
X122430941Y-78852402D01*
X122315977Y-78680345D01*
X122315975Y-78680342D01*
X122169657Y-78534024D01*
X122047130Y-78452155D01*
X121997598Y-78419059D01*
X121818167Y-78344736D01*
X121806420Y-78339870D01*
X121806412Y-78339868D01*
X121603469Y-78299500D01*
X121603465Y-78299500D01*
X121396535Y-78299500D01*
X121396530Y-78299500D01*
X121203313Y-78337933D01*
X121133721Y-78331706D01*
X121078544Y-78288842D01*
X121055300Y-78222953D01*
X121071368Y-78154956D01*
X121091437Y-78128639D01*
X121297758Y-77922319D01*
X121359081Y-77888834D01*
X121385439Y-77886000D01*
X129624561Y-77886000D01*
X129691600Y-77905685D01*
X129712242Y-77922319D01*
X130645068Y-78855145D01*
X130678553Y-78916468D01*
X130673569Y-78986160D01*
X130671948Y-78990278D01*
X130649871Y-79043575D01*
X130649868Y-79043587D01*
X130609500Y-79246530D01*
X130609500Y-79453469D01*
X130649868Y-79656412D01*
X130649870Y-79656420D01*
X130729058Y-79847596D01*
X130844024Y-80019657D01*
X130990342Y-80165975D01*
X130990345Y-80165977D01*
X131162402Y-80280941D01*
X131353580Y-80360130D01*
X131540875Y-80397385D01*
X131556530Y-80400499D01*
X131556534Y-80400500D01*
X131556535Y-80400500D01*
X131763466Y-80400500D01*
X131763467Y-80400499D01*
X131966420Y-80360130D01*
X132157598Y-80280941D01*
X132329655Y-80165977D01*
X132475977Y-80019655D01*
X132590941Y-79847598D01*
X132670130Y-79656420D01*
X132710500Y-79453465D01*
X132710500Y-79246535D01*
X132670130Y-79043580D01*
X132590941Y-78852402D01*
X132475977Y-78680345D01*
X132475975Y-78680342D01*
X132329657Y-78534024D01*
X132207130Y-78452155D01*
X132157598Y-78419059D01*
X131978167Y-78344736D01*
X131966420Y-78339870D01*
X131966412Y-78339868D01*
X131763469Y-78299500D01*
X131763465Y-78299500D01*
X131556535Y-78299500D01*
X131556530Y-78299500D01*
X131353587Y-78339868D01*
X131353575Y-78339871D01*
X131300278Y-78361948D01*
X131230809Y-78369417D01*
X131168330Y-78338142D01*
X131165145Y-78335068D01*
X130392258Y-77562181D01*
X130358773Y-77500858D01*
X130363757Y-77431166D01*
X130405629Y-77375233D01*
X130471093Y-77350816D01*
X130479939Y-77350500D01*
X145813789Y-77350500D01*
X145818238Y-77350580D01*
X145824718Y-77350812D01*
X146037319Y-77358447D01*
X146043517Y-77358826D01*
X146509801Y-77399290D01*
X146516823Y-77400103D01*
X147033571Y-77475040D01*
X147040823Y-77476314D01*
X147553229Y-77582253D01*
X147560811Y-77584072D01*
X148046303Y-77716962D01*
X148054229Y-77719422D01*
X148502909Y-77875466D01*
X148511208Y-77878693D01*
X148919256Y-78054574D01*
X148927901Y-78058704D01*
X149294574Y-78251612D01*
X149303424Y-78256744D01*
X149558420Y-78419059D01*
X149629843Y-78464522D01*
X149638740Y-78470749D01*
X149911907Y-78680345D01*
X149926987Y-78691915D01*
X149935719Y-78699278D01*
X150175787Y-78921474D01*
X150188385Y-78933134D01*
X150196742Y-78941652D01*
X150416548Y-79188375D01*
X150424268Y-79197958D01*
X150613728Y-79458636D01*
X150620571Y-79469128D01*
X150781656Y-79745687D01*
X150787425Y-79756858D01*
X150921354Y-80052004D01*
X150925920Y-80063575D01*
X151031966Y-80377655D01*
X151035390Y-80387794D01*
X151037987Y-80396535D01*
X151079178Y-80556468D01*
X151080527Y-80562278D01*
X151116741Y-80737357D01*
X151117789Y-80743108D01*
X151146510Y-80924753D01*
X151147271Y-80930406D01*
X151166169Y-81100277D01*
X151168398Y-81120310D01*
X151168888Y-81125846D01*
X151181957Y-81323674D01*
X151182196Y-81329066D01*
X151186976Y-81542090D01*
X151187007Y-81544717D01*
X151211977Y-101545103D01*
X151211779Y-101552256D01*
X151184100Y-102041896D01*
X151183413Y-102049688D01*
X151121593Y-102564299D01*
X151120542Y-102571337D01*
X151024380Y-103109082D01*
X151022863Y-103116313D01*
X150896227Y-103641649D01*
X150894174Y-103649131D01*
X150740614Y-104147086D01*
X150737941Y-104154834D01*
X150560663Y-104618441D01*
X150557285Y-104626427D01*
X150359027Y-105052881D01*
X150354859Y-105061043D01*
X150314094Y-105134075D01*
X150137855Y-105449810D01*
X150132830Y-105458043D01*
X149898741Y-105809936D01*
X149892796Y-105818127D01*
X149642712Y-106134667D01*
X149635834Y-106142651D01*
X149370138Y-106425772D01*
X149362354Y-106433369D01*
X149080786Y-106685041D01*
X149072178Y-106692066D01*
X148909773Y-106812898D01*
X148773755Y-106914096D01*
X148764431Y-106920396D01*
X148447569Y-107114174D01*
X148437704Y-107119607D01*
X148100217Y-107285983D01*
X148090015Y-107290455D01*
X147722943Y-107432051D01*
X147715215Y-107434743D01*
X147532385Y-107491730D01*
X147527226Y-107493216D01*
X147329811Y-107545490D01*
X147324681Y-107546732D01*
X147120920Y-107591502D01*
X147115848Y-107592506D01*
X146903672Y-107629929D01*
X146898673Y-107630706D01*
X146678966Y-107660275D01*
X146674067Y-107660836D01*
X146445565Y-107682380D01*
X146440772Y-107682738D01*
X146203614Y-107695854D01*
X146198949Y-107696024D01*
X145946918Y-107700459D01*
X145944642Y-107700478D01*
X122612121Y-107682828D01*
X122545097Y-107663093D01*
X122499382Y-107610254D01*
X122489491Y-107541088D01*
X122518564Y-107477554D01*
X122524521Y-107471160D01*
X123308862Y-106686818D01*
X123370185Y-106653334D01*
X123396543Y-106650500D01*
X123603466Y-106650500D01*
X123603467Y-106650499D01*
X123806420Y-106610130D01*
X123997598Y-106530941D01*
X124169655Y-106415977D01*
X124315977Y-106269655D01*
X124430941Y-106097598D01*
X124510130Y-105906420D01*
X124550500Y-105703465D01*
X124550500Y-105496535D01*
X124550499Y-105496530D01*
X124989500Y-105496530D01*
X124989500Y-105703469D01*
X125029868Y-105906412D01*
X125029870Y-105906420D01*
X125109058Y-106097596D01*
X125224024Y-106269657D01*
X125370342Y-106415975D01*
X125370345Y-106415977D01*
X125542402Y-106530941D01*
X125733580Y-106610130D01*
X125893702Y-106641980D01*
X125936530Y-106650499D01*
X125936534Y-106650500D01*
X125936535Y-106650500D01*
X126143466Y-106650500D01*
X126143467Y-106650499D01*
X126346420Y-106610130D01*
X126537598Y-106530941D01*
X126709655Y-106415977D01*
X126855977Y-106269655D01*
X126970941Y-106097598D01*
X127050130Y-105906420D01*
X127090500Y-105703465D01*
X127090500Y-105496535D01*
X127090499Y-105496530D01*
X127529500Y-105496530D01*
X127529500Y-105703469D01*
X127569868Y-105906412D01*
X127569870Y-105906420D01*
X127649058Y-106097596D01*
X127764024Y-106269657D01*
X127910342Y-106415975D01*
X127910345Y-106415977D01*
X128082402Y-106530941D01*
X128273580Y-106610130D01*
X128433702Y-106641980D01*
X128476530Y-106650499D01*
X128476534Y-106650500D01*
X128476535Y-106650500D01*
X128683466Y-106650500D01*
X128683467Y-106650499D01*
X128886420Y-106610130D01*
X129077598Y-106530941D01*
X129249655Y-106415977D01*
X129395977Y-106269655D01*
X129510941Y-106097598D01*
X129590130Y-105906420D01*
X129630500Y-105703465D01*
X129630500Y-105496535D01*
X129630499Y-105496530D01*
X130069500Y-105496530D01*
X130069500Y-105703469D01*
X130109868Y-105906412D01*
X130109870Y-105906420D01*
X130189058Y-106097596D01*
X130304024Y-106269657D01*
X130450342Y-106415975D01*
X130450345Y-106415977D01*
X130622402Y-106530941D01*
X130813580Y-106610130D01*
X130973702Y-106641980D01*
X131016530Y-106650499D01*
X131016534Y-106650500D01*
X131016535Y-106650500D01*
X131223466Y-106650500D01*
X131223467Y-106650499D01*
X131426420Y-106610130D01*
X131617598Y-106530941D01*
X131789655Y-106415977D01*
X131935977Y-106269655D01*
X132050941Y-106097598D01*
X132130130Y-105906420D01*
X132170500Y-105703465D01*
X132170500Y-105496535D01*
X132170499Y-105496530D01*
X132609500Y-105496530D01*
X132609500Y-105703469D01*
X132649868Y-105906412D01*
X132649870Y-105906420D01*
X132729058Y-106097596D01*
X132844024Y-106269657D01*
X132990342Y-106415975D01*
X132990345Y-106415977D01*
X133162402Y-106530941D01*
X133353580Y-106610130D01*
X133513702Y-106641980D01*
X133556530Y-106650499D01*
X133556534Y-106650500D01*
X133556535Y-106650500D01*
X133763466Y-106650500D01*
X133763467Y-106650499D01*
X133966420Y-106610130D01*
X134157598Y-106530941D01*
X134329655Y-106415977D01*
X134475977Y-106269655D01*
X134590941Y-106097598D01*
X134670130Y-105906420D01*
X134710500Y-105703465D01*
X134710500Y-105496535D01*
X134710499Y-105496530D01*
X135149500Y-105496530D01*
X135149500Y-105703469D01*
X135189868Y-105906412D01*
X135189870Y-105906420D01*
X135269058Y-106097596D01*
X135384024Y-106269657D01*
X135530342Y-106415975D01*
X135530345Y-106415977D01*
X135702402Y-106530941D01*
X135893580Y-106610130D01*
X136053702Y-106641980D01*
X136096530Y-106650499D01*
X136096534Y-106650500D01*
X136096535Y-106650500D01*
X136303466Y-106650500D01*
X136303467Y-106650499D01*
X136506420Y-106610130D01*
X136697598Y-106530941D01*
X136869655Y-106415977D01*
X137015977Y-106269655D01*
X137130941Y-106097598D01*
X137151439Y-106048112D01*
X137195279Y-105993708D01*
X137261573Y-105971643D01*
X137329273Y-105988922D01*
X137376884Y-106040059D01*
X137390000Y-106095564D01*
X137390000Y-106497844D01*
X137396401Y-106557372D01*
X137396403Y-106557379D01*
X137446645Y-106692086D01*
X137446649Y-106692093D01*
X137532809Y-106807187D01*
X137532812Y-106807190D01*
X137647906Y-106893350D01*
X137647913Y-106893354D01*
X137782620Y-106943596D01*
X137782627Y-106943598D01*
X137842155Y-106949999D01*
X137842172Y-106950000D01*
X138490000Y-106950000D01*
X138490000Y-106033012D01*
X138547007Y-106065925D01*
X138674174Y-106100000D01*
X138805826Y-106100000D01*
X138932993Y-106065925D01*
X138990000Y-106033012D01*
X138990000Y-106950000D01*
X139637828Y-106950000D01*
X139637844Y-106949999D01*
X139697372Y-106943598D01*
X139697379Y-106943596D01*
X139832086Y-106893354D01*
X139832093Y-106893350D01*
X139947187Y-106807190D01*
X139947190Y-106807187D01*
X140033350Y-106692093D01*
X140033354Y-106692086D01*
X140083596Y-106557379D01*
X140083598Y-106557372D01*
X140089999Y-106497844D01*
X140090000Y-106497827D01*
X140090000Y-105850000D01*
X139173012Y-105850000D01*
X139205925Y-105792993D01*
X139240000Y-105665826D01*
X139240000Y-105534174D01*
X139205925Y-105407007D01*
X139173012Y-105350000D01*
X140090000Y-105350000D01*
X140090000Y-104702172D01*
X140089999Y-104702155D01*
X140083598Y-104642627D01*
X140083596Y-104642620D01*
X140033354Y-104507913D01*
X140033350Y-104507906D01*
X139947190Y-104392812D01*
X139947187Y-104392809D01*
X139832093Y-104306649D01*
X139832086Y-104306645D01*
X139697379Y-104256403D01*
X139697372Y-104256401D01*
X139637844Y-104250000D01*
X138990000Y-104250000D01*
X138990000Y-105166988D01*
X138932993Y-105134075D01*
X138805826Y-105100000D01*
X138674174Y-105100000D01*
X138547007Y-105134075D01*
X138490000Y-105166988D01*
X138490000Y-104250000D01*
X137842155Y-104250000D01*
X137782627Y-104256401D01*
X137782620Y-104256403D01*
X137647913Y-104306645D01*
X137647906Y-104306649D01*
X137532812Y-104392809D01*
X137532809Y-104392812D01*
X137446649Y-104507906D01*
X137446645Y-104507913D01*
X137396403Y-104642620D01*
X137396401Y-104642627D01*
X137390000Y-104702155D01*
X137390000Y-105104435D01*
X137370315Y-105171474D01*
X137317511Y-105217229D01*
X137248353Y-105227173D01*
X137184797Y-105198148D01*
X137151439Y-105151888D01*
X137144060Y-105134075D01*
X137130941Y-105102402D01*
X137015977Y-104930345D01*
X137015975Y-104930342D01*
X136869657Y-104784024D01*
X136727716Y-104689183D01*
X136697598Y-104669059D01*
X136506420Y-104589870D01*
X136506412Y-104589868D01*
X136303469Y-104549500D01*
X136303465Y-104549500D01*
X136096535Y-104549500D01*
X136096530Y-104549500D01*
X135893587Y-104589868D01*
X135893579Y-104589870D01*
X135702403Y-104669058D01*
X135530342Y-104784024D01*
X135384024Y-104930342D01*
X135269058Y-105102403D01*
X135189870Y-105293579D01*
X135189868Y-105293587D01*
X135149500Y-105496530D01*
X134710499Y-105496530D01*
X134670130Y-105293580D01*
X134590941Y-105102402D01*
X134475977Y-104930345D01*
X134475975Y-104930342D01*
X134329657Y-104784024D01*
X134187716Y-104689183D01*
X134157598Y-104669059D01*
X133966420Y-104589870D01*
X133966412Y-104589868D01*
X133763469Y-104549500D01*
X133763465Y-104549500D01*
X133556535Y-104549500D01*
X133556530Y-104549500D01*
X133353587Y-104589868D01*
X133353579Y-104589870D01*
X133162403Y-104669058D01*
X132990342Y-104784024D01*
X132844024Y-104930342D01*
X132729058Y-105102403D01*
X132649870Y-105293579D01*
X132649868Y-105293587D01*
X132609500Y-105496530D01*
X132170499Y-105496530D01*
X132130130Y-105293580D01*
X132050941Y-105102402D01*
X131935977Y-104930345D01*
X131935975Y-104930342D01*
X131789657Y-104784024D01*
X131647716Y-104689183D01*
X131617598Y-104669059D01*
X131426420Y-104589870D01*
X131426412Y-104589868D01*
X131223469Y-104549500D01*
X131223465Y-104549500D01*
X131016535Y-104549500D01*
X131016530Y-104549500D01*
X130813587Y-104589868D01*
X130813579Y-104589870D01*
X130622403Y-104669058D01*
X130450342Y-104784024D01*
X130304024Y-104930342D01*
X130189058Y-105102403D01*
X130109870Y-105293579D01*
X130109868Y-105293587D01*
X130069500Y-105496530D01*
X129630499Y-105496530D01*
X129590130Y-105293580D01*
X129510941Y-105102402D01*
X129395977Y-104930345D01*
X129395975Y-104930342D01*
X129249657Y-104784024D01*
X129107716Y-104689183D01*
X129077598Y-104669059D01*
X128886420Y-104589870D01*
X128886412Y-104589868D01*
X128683469Y-104549500D01*
X128683465Y-104549500D01*
X128476535Y-104549500D01*
X128476530Y-104549500D01*
X128273587Y-104589868D01*
X128273579Y-104589870D01*
X128082403Y-104669058D01*
X127910342Y-104784024D01*
X127764024Y-104930342D01*
X127649058Y-105102403D01*
X127569870Y-105293579D01*
X127569868Y-105293587D01*
X127529500Y-105496530D01*
X127090499Y-105496530D01*
X127050130Y-105293580D01*
X126970941Y-105102402D01*
X126855977Y-104930345D01*
X126855975Y-104930342D01*
X126709657Y-104784024D01*
X126567716Y-104689183D01*
X126537598Y-104669059D01*
X126346420Y-104589870D01*
X126346412Y-104589868D01*
X126143469Y-104549500D01*
X126143465Y-104549500D01*
X125936535Y-104549500D01*
X125936530Y-104549500D01*
X125733587Y-104589868D01*
X125733579Y-104589870D01*
X125542403Y-104669058D01*
X125370342Y-104784024D01*
X125224024Y-104930342D01*
X125109058Y-105102403D01*
X125029870Y-105293579D01*
X125029868Y-105293587D01*
X124989500Y-105496530D01*
X124550499Y-105496530D01*
X124510130Y-105293580D01*
X124430941Y-105102402D01*
X124315977Y-104930345D01*
X124315975Y-104930342D01*
X124169657Y-104784024D01*
X124027716Y-104689183D01*
X123997598Y-104669059D01*
X123806420Y-104589870D01*
X123806412Y-104589868D01*
X123603469Y-104549500D01*
X123603465Y-104549500D01*
X123396535Y-104549500D01*
X123396530Y-104549500D01*
X123193587Y-104589868D01*
X123193579Y-104589870D01*
X123002403Y-104669058D01*
X122830342Y-104784024D01*
X122684024Y-104930342D01*
X122569057Y-105102403D01*
X122500835Y-105267108D01*
X122456994Y-105321511D01*
X122390700Y-105343576D01*
X122323000Y-105326297D01*
X122275390Y-105275159D01*
X122268343Y-105257973D01*
X122211095Y-105081782D01*
X122114624Y-104892449D01*
X122075270Y-104838282D01*
X122075269Y-104838282D01*
X121442962Y-105470590D01*
X121425925Y-105407007D01*
X121360099Y-105292993D01*
X121267007Y-105199901D01*
X121152993Y-105134075D01*
X121089409Y-105117037D01*
X121721716Y-104484728D01*
X121667550Y-104445375D01*
X121478217Y-104348904D01*
X121276129Y-104283242D01*
X121066246Y-104250000D01*
X120853754Y-104250000D01*
X120643872Y-104283242D01*
X120643869Y-104283242D01*
X120441782Y-104348904D01*
X120252439Y-104445380D01*
X120198282Y-104484727D01*
X120198282Y-104484728D01*
X120830591Y-105117037D01*
X120767007Y-105134075D01*
X120652993Y-105199901D01*
X120559901Y-105292993D01*
X120494075Y-105407007D01*
X120477037Y-105470591D01*
X119844728Y-104838282D01*
X119844727Y-104838282D01*
X119805380Y-104892439D01*
X119708904Y-105081782D01*
X119643242Y-105283869D01*
X119643242Y-105283872D01*
X119610000Y-105493753D01*
X119610000Y-105706246D01*
X119643242Y-105916127D01*
X119643242Y-105916130D01*
X119708904Y-106118217D01*
X119805375Y-106307550D01*
X119844728Y-106361716D01*
X120477037Y-105729408D01*
X120494075Y-105792993D01*
X120559901Y-105907007D01*
X120652993Y-106000099D01*
X120767007Y-106065925D01*
X120830590Y-106082962D01*
X120198282Y-106715269D01*
X120202257Y-106765771D01*
X120199397Y-106779381D01*
X120201377Y-106793147D01*
X120192356Y-106812898D01*
X120187893Y-106834148D01*
X120178129Y-106844052D01*
X120172352Y-106856703D01*
X120154085Y-106868442D01*
X120138842Y-106883905D01*
X120124070Y-106887731D01*
X120113574Y-106894477D01*
X120078639Y-106899500D01*
X119846544Y-106899500D01*
X119779505Y-106879815D01*
X119758863Y-106863181D01*
X118486819Y-105591137D01*
X118453334Y-105529814D01*
X118450500Y-105503456D01*
X118450500Y-105427527D01*
X118450500Y-105427525D01*
X118412984Y-105287515D01*
X118405850Y-105275159D01*
X118340511Y-105161988D01*
X118340506Y-105161982D01*
X118238017Y-105059493D01*
X118238011Y-105059488D01*
X118112488Y-104987017D01*
X118112489Y-104987017D01*
X118101006Y-104983940D01*
X117972475Y-104949500D01*
X117827525Y-104949500D01*
X117698993Y-104983940D01*
X117687511Y-104987017D01*
X117561988Y-105059488D01*
X117561982Y-105059493D01*
X117459493Y-105161982D01*
X117459488Y-105161988D01*
X117387017Y-105287511D01*
X117387016Y-105287515D01*
X117349500Y-105427525D01*
X117349500Y-105572475D01*
X117384600Y-105703469D01*
X117387017Y-105712488D01*
X117459488Y-105838011D01*
X117459490Y-105838013D01*
X117459491Y-105838015D01*
X117561985Y-105940509D01*
X117561986Y-105940510D01*
X117561988Y-105940511D01*
X117687511Y-106012982D01*
X117687512Y-106012982D01*
X117687515Y-106012984D01*
X117827525Y-106050500D01*
X117903456Y-106050500D01*
X117970495Y-106070185D01*
X117991137Y-106086819D01*
X119372948Y-107468630D01*
X119406433Y-107529953D01*
X119401449Y-107599645D01*
X119359577Y-107655578D01*
X119294113Y-107679995D01*
X119285173Y-107680311D01*
X111605514Y-107674502D01*
X111603472Y-107674484D01*
X111321022Y-107669617D01*
X111316798Y-107669472D01*
X111050334Y-107655788D01*
X111045982Y-107655487D01*
X110789833Y-107633277D01*
X110785363Y-107632808D01*
X110539661Y-107602498D01*
X110535079Y-107601846D01*
X110298554Y-107563658D01*
X110293875Y-107562810D01*
X110067410Y-107517275D01*
X110062647Y-107516219D01*
X109844251Y-107463291D01*
X109839425Y-107462018D01*
X109636928Y-107404223D01*
X109629625Y-107401893D01*
X109229317Y-107260358D01*
X109219514Y-107256414D01*
X109027090Y-107169305D01*
X108855119Y-107091454D01*
X108845452Y-107086557D01*
X108508177Y-106896746D01*
X108498822Y-106890920D01*
X108458408Y-106863181D01*
X108376834Y-106807190D01*
X108186165Y-106676319D01*
X108177317Y-106669645D01*
X107887253Y-106429789D01*
X107879075Y-106422390D01*
X107868642Y-106412071D01*
X107610097Y-106156352D01*
X107602730Y-106148397D01*
X107353965Y-105854984D01*
X107347465Y-105846616D01*
X107238110Y-105692673D01*
X107118777Y-105524683D01*
X107113179Y-105516068D01*
X107101610Y-105496535D01*
X106905083Y-105164721D01*
X106900395Y-105156031D01*
X106714146Y-104775226D01*
X106710311Y-104766559D01*
X106697583Y-104734538D01*
X106547817Y-104357754D01*
X106544783Y-104349224D01*
X106408534Y-103916536D01*
X106406221Y-103908178D01*
X106299249Y-103460982D01*
X106297579Y-103452778D01*
X106223231Y-103011521D01*
X106222140Y-103003410D01*
X106183036Y-102615647D01*
X106182518Y-102608365D01*
X106180978Y-102571337D01*
X106175589Y-102441741D01*
X106175483Y-102436832D01*
X106171356Y-99127525D01*
X119149500Y-99127525D01*
X119149500Y-99272475D01*
X119187016Y-99412485D01*
X119187017Y-99412488D01*
X119259488Y-99538011D01*
X119259490Y-99538013D01*
X119259491Y-99538015D01*
X119361985Y-99640509D01*
X119361986Y-99640510D01*
X119361988Y-99640511D01*
X119487511Y-99712982D01*
X119487512Y-99712982D01*
X119487515Y-99712984D01*
X119627525Y-99750500D01*
X119627528Y-99750500D01*
X119772472Y-99750500D01*
X119772475Y-99750500D01*
X119912485Y-99712984D01*
X120038015Y-99640509D01*
X120140509Y-99538015D01*
X120212984Y-99412485D01*
X120250500Y-99272475D01*
X120250500Y-99127525D01*
X120212984Y-98987515D01*
X120140509Y-98861985D01*
X120038015Y-98759491D01*
X120038013Y-98759490D01*
X120038011Y-98759488D01*
X119912488Y-98687017D01*
X119912489Y-98687017D01*
X119901006Y-98683940D01*
X119772475Y-98649500D01*
X119627525Y-98649500D01*
X119498993Y-98683940D01*
X119487511Y-98687017D01*
X119361988Y-98759488D01*
X119361982Y-98759493D01*
X119259493Y-98861982D01*
X119259488Y-98861988D01*
X119187017Y-98987511D01*
X119187016Y-98987515D01*
X119149500Y-99127525D01*
X106171356Y-99127525D01*
X106170234Y-98227525D01*
X111349500Y-98227525D01*
X111349500Y-98372475D01*
X111387016Y-98512485D01*
X111387017Y-98512488D01*
X111459488Y-98638011D01*
X111459490Y-98638013D01*
X111459491Y-98638015D01*
X111561985Y-98740509D01*
X111561986Y-98740510D01*
X111561988Y-98740511D01*
X111687511Y-98812982D01*
X111687512Y-98812982D01*
X111687515Y-98812984D01*
X111827525Y-98850500D01*
X111827528Y-98850500D01*
X111972472Y-98850500D01*
X111972475Y-98850500D01*
X112112485Y-98812984D01*
X112238015Y-98740509D01*
X112340509Y-98638015D01*
X112412984Y-98512485D01*
X112450500Y-98372475D01*
X112450500Y-98227525D01*
X112412984Y-98087515D01*
X112391613Y-98050500D01*
X112340511Y-97961988D01*
X112340506Y-97961982D01*
X112238017Y-97859493D01*
X112238011Y-97859488D01*
X112112488Y-97787017D01*
X112112489Y-97787017D01*
X112101006Y-97783940D01*
X111972475Y-97749500D01*
X111827525Y-97749500D01*
X111698993Y-97783940D01*
X111687511Y-97787017D01*
X111561988Y-97859488D01*
X111561982Y-97859493D01*
X111459493Y-97961982D01*
X111459488Y-97961988D01*
X111387017Y-98087511D01*
X111387016Y-98087515D01*
X111349500Y-98227525D01*
X106170234Y-98227525D01*
X106150511Y-82409842D01*
X106150575Y-82405746D01*
X106153766Y-82307221D01*
X106154184Y-82300310D01*
X106154645Y-82295099D01*
X106185612Y-81945108D01*
X106186636Y-81936771D01*
X106205182Y-81818895D01*
X106253231Y-81513491D01*
X106254850Y-81505106D01*
X106354534Y-81069950D01*
X106356809Y-81061428D01*
X106486287Y-80637785D01*
X106489299Y-80629102D01*
X106645504Y-80227540D01*
X106649337Y-80218715D01*
X106694287Y-80125328D01*
X106829727Y-79843942D01*
X106834419Y-79835124D01*
X107037066Y-79488862D01*
X107042681Y-79480131D01*
X107266315Y-79162503D01*
X107272848Y-79154028D01*
X107516935Y-78864264D01*
X107524374Y-78856189D01*
X107525425Y-78855145D01*
X107789107Y-78593169D01*
X107797317Y-78585714D01*
X108083620Y-78348294D01*
X108092501Y-78341581D01*
X108401907Y-78128917D01*
X108411298Y-78123063D01*
X108745899Y-77934742D01*
X108755595Y-77929832D01*
X109124072Y-77763220D01*
X109131368Y-77760200D01*
X109316920Y-77690275D01*
X109321751Y-77688569D01*
X109522976Y-77622255D01*
X109527844Y-77620763D01*
X109736207Y-77561499D01*
X109741001Y-77560238D01*
X109959242Y-77507571D01*
X109963947Y-77506534D01*
X110190472Y-77461223D01*
X110195113Y-77460387D01*
X110431809Y-77422412D01*
X110436354Y-77421769D01*
X110682559Y-77391635D01*
X110686998Y-77391174D01*
X110943775Y-77369141D01*
X110948088Y-77368847D01*
X111215439Y-77355338D01*
X111219631Y-77355198D01*
X111489454Y-77350742D01*
X111503122Y-77350517D01*
X111505169Y-77350500D01*
X120530061Y-77350500D01*
X120597100Y-77370185D01*
G37*
%TD.AperFunction*%
%TA.AperFunction,Conductor*%
G36*
X122075270Y-106361717D02*
G01*
X122075270Y-106361716D01*
X122114622Y-106307554D01*
X122211095Y-106118217D01*
X122268343Y-105942026D01*
X122307780Y-105884351D01*
X122372139Y-105857152D01*
X122440985Y-105869066D01*
X122492461Y-105916310D01*
X122500833Y-105932887D01*
X122518685Y-105975984D01*
X122569058Y-106097596D01*
X122647770Y-106215398D01*
X122668647Y-106282075D01*
X122650162Y-106349455D01*
X122632348Y-106371969D01*
X122141137Y-106863181D01*
X122114209Y-106877884D01*
X122088391Y-106894477D01*
X122082190Y-106895368D01*
X122079814Y-106896666D01*
X122053456Y-106899500D01*
X121841361Y-106899500D01*
X121774322Y-106879815D01*
X121728567Y-106827011D01*
X121717743Y-106765772D01*
X121721717Y-106715270D01*
X121089408Y-106082962D01*
X121152993Y-106065925D01*
X121267007Y-106000099D01*
X121360099Y-105907007D01*
X121425925Y-105792993D01*
X121442962Y-105729408D01*
X122075270Y-106361717D01*
G37*
%TD.AperFunction*%
%TD*%
M02*
